VT323_v3_decomposed.ufo
<glyph name="numbersign" format="1">
  <advance width="400"/>
  <unicode hex="0023"/>
  <outline>
    <contour>
      <point x="87" y="148"/>
      <point x="86" y="131"/>
      <point x="86" y="120" type="curve" smooth="yes"/>
      <point x="86" y="109"/>
      <point x="87" y="93"/>
      <point x="90" y="80" type="curve"/>
      <point x="170" y="80" type="line"/>
      <point x="173" y="93"/>
      <point x="174" y="109"/>
      <point x="174" y="120" type="curve" smooth="yes"/>
      <point x="174" y="131"/>
      <point x="173" y="148"/>
      <point x="170" y="160" type="curve"/>
      <point x="90" y="160" type="line"/>
    </contour>
    <contour>
      <point x="87" y="308"/>
      <point x="86" y="291"/>
      <point x="86" y="280" type="curve" smooth="yes"/>
      <point x="86" y="269"/>
      <point x="87" y="253"/>
      <point x="90" y="240" type="curve"/>
      <point x="170" y="240" type="line"/>
      <point x="173" y="253"/>
      <point x="174" y="269"/>
      <point x="174" y="280" type="curve" smooth="yes"/>
      <point x="174" y="291"/>
      <point x="173" y="308"/>
      <point x="170" y="320" type="curve"/>
      <point x="90" y="320" type="line"/>
    </contour>
    <contour>
      <point x="87" y="388"/>
      <point x="86" y="371"/>
      <point x="86" y="360" type="curve" smooth="yes"/>
      <point x="86" y="349"/>
      <point x="87" y="333"/>
      <point x="90" y="320" type="curve"/>
      <point x="170" y="320" type="line"/>
      <point x="173" y="333"/>
      <point x="174" y="349"/>
      <point x="174" y="360" type="curve" smooth="yes"/>
      <point x="174" y="371"/>
      <point x="173" y="388"/>
      <point x="170" y="400" type="curve"/>
      <point x="90" y="400" type="line"/>
    </contour>
    <contour>
      <point x="37" y="468"/>
      <point x="36" y="451"/>
      <point x="36" y="440" type="curve" smooth="yes"/>
      <point x="36" y="429"/>
      <point x="37" y="413"/>
      <point x="40" y="400" type="curve"/>
      <point x="200" y="400" type="line"/>
      <point x="203" y="413"/>
      <point x="204" y="429"/>
      <point x="204" y="440" type="curve" smooth="yes"/>
      <point x="204" y="451"/>
      <point x="203" y="468"/>
      <point x="200" y="480" type="curve"/>
      <point x="40" y="480" type="line"/>
    </contour>
    <contour>
      <point x="87" y="548"/>
      <point x="86" y="531"/>
      <point x="86" y="520" type="curve" smooth="yes"/>
      <point x="86" y="509"/>
      <point x="87" y="493"/>
      <point x="90" y="480" type="curve"/>
      <point x="170" y="480" type="line"/>
      <point x="173" y="493"/>
      <point x="174" y="509"/>
      <point x="174" y="520" type="curve" smooth="yes"/>
      <point x="174" y="531"/>
      <point x="173" y="548"/>
      <point x="170" y="560" type="curve"/>
      <point x="90" y="560" type="line"/>
    </contour>
    <contour>
      <point x="227" y="148"/>
      <point x="226" y="131"/>
      <point x="226" y="120" type="curve" smooth="yes"/>
      <point x="226" y="109"/>
      <point x="227" y="93"/>
      <point x="230" y="80" type="curve"/>
      <point x="310" y="80" type="line"/>
      <point x="313" y="93"/>
      <point x="314" y="109"/>
      <point x="314" y="120" type="curve" smooth="yes"/>
      <point x="314" y="131"/>
      <point x="313" y="148"/>
      <point x="310" y="160" type="curve"/>
      <point x="230" y="160" type="line"/>
    </contour>
    <contour>
      <point x="227" y="308"/>
      <point x="226" y="291"/>
      <point x="226" y="280" type="curve" smooth="yes"/>
      <point x="226" y="269"/>
      <point x="227" y="253"/>
      <point x="230" y="240" type="curve"/>
      <point x="310" y="240" type="line"/>
      <point x="313" y="253"/>
      <point x="314" y="269"/>
      <point x="314" y="280" type="curve" smooth="yes"/>
      <point x="314" y="291"/>
      <point x="313" y="308"/>
      <point x="310" y="320" type="curve"/>
      <point x="230" y="320" type="line"/>
    </contour>
    <contour>
      <point x="227" y="388"/>
      <point x="226" y="371"/>
      <point x="226" y="360" type="curve" smooth="yes"/>
      <point x="226" y="349"/>
      <point x="227" y="333"/>
      <point x="230" y="320" type="curve"/>
      <point x="310" y="320" type="line"/>
      <point x="313" y="333"/>
      <point x="314" y="349"/>
      <point x="314" y="360" type="curve" smooth="yes"/>
      <point x="314" y="371"/>
      <point x="313" y="388"/>
      <point x="310" y="400" type="curve"/>
      <point x="230" y="400" type="line"/>
    </contour>
    <contour>
      <point x="227" y="548"/>
      <point x="226" y="531"/>
      <point x="226" y="520" type="curve" smooth="yes"/>
      <point x="226" y="509"/>
      <point x="227" y="493"/>
      <point x="230" y="480" type="curve"/>
      <point x="310" y="480" type="line"/>
      <point x="313" y="493"/>
      <point x="314" y="509"/>
      <point x="314" y="520" type="curve" smooth="yes"/>
      <point x="314" y="531"/>
      <point x="313" y="548"/>
      <point x="310" y="560" type="curve"/>
      <point x="230" y="560" type="line"/>
    </contour>
    <contour>
      <point x="197" y="468"/>
      <point x="196" y="451"/>
      <point x="196" y="440" type="curve" smooth="yes"/>
      <point x="196" y="429"/>
      <point x="197" y="413"/>
      <point x="200" y="400" type="curve"/>
      <point x="360" y="400" type="line"/>
      <point x="363" y="413"/>
      <point x="364" y="429"/>
      <point x="364" y="440" type="curve" smooth="yes"/>
      <point x="364" y="451"/>
      <point x="363" y="468"/>
      <point x="360" y="480" type="curve"/>
      <point x="200" y="480" type="line"/>
    </contour>
    <contour>
      <point x="37" y="228"/>
      <point x="36" y="211"/>
      <point x="36" y="200" type="curve" smooth="yes"/>
      <point x="36" y="189"/>
      <point x="37" y="173"/>
      <point x="40" y="160" type="curve"/>
      <point x="200" y="160" type="line"/>
      <point x="203" y="173"/>
      <point x="204" y="189"/>
      <point x="204" y="200" type="curve" smooth="yes"/>
      <point x="204" y="211"/>
      <point x="203" y="228"/>
      <point x="200" y="240" type="curve"/>
      <point x="40" y="240" type="line"/>
    </contour>
    <contour>
      <point x="197" y="228"/>
      <point x="196" y="211"/>
      <point x="196" y="200" type="curve" smooth="yes"/>
      <point x="196" y="189"/>
      <point x="197" y="173"/>
      <point x="200" y="160" type="curve"/>
      <point x="360" y="160" type="line"/>
      <point x="363" y="173"/>
      <point x="364" y="189"/>
      <point x="364" y="200" type="curve" smooth="yes"/>
      <point x="364" y="211"/>
      <point x="363" y="228"/>
      <point x="360" y="240" type="curve"/>
      <point x="200" y="240" type="line"/>
    </contour>
  </outline>
</glyph>
<glyph name="ampersand" format="1">
  <advance width="400"/>
  <unicode hex="0026"/>
  <outline>
    <contour>
      <point x="187" y="148"/>
      <point x="186" y="131"/>
      <point x="186" y="120" type="curve" smooth="yes"/>
      <point x="186" y="109"/>
      <point x="187" y="93"/>
      <point x="190" y="80" type="curve"/>
      <point x="250" y="80" type="line"/>
      <point x="253" y="93"/>
      <point x="254" y="109"/>
      <point x="254" y="120" type="curve" smooth="yes"/>
      <point x="254" y="131"/>
      <point x="253" y="148"/>
      <point x="250" y="160" type="curve"/>
      <point x="190" y="160" type="line"/>
    </contour>
    <contour>
      <point x="37" y="148"/>
      <point x="36" y="131"/>
      <point x="36" y="120" type="curve" smooth="yes"/>
      <point x="36" y="109"/>
      <point x="37" y="93"/>
      <point x="40" y="80" type="curve"/>
      <point x="120" y="80" type="line"/>
      <point x="123" y="93"/>
      <point x="124" y="109"/>
      <point x="124" y="120" type="curve" smooth="yes"/>
      <point x="124" y="131"/>
      <point x="123" y="148"/>
      <point x="120" y="160" type="curve"/>
      <point x="40" y="160" type="line"/>
    </contour>
    <contour>
      <point x="37" y="228"/>
      <point x="36" y="211"/>
      <point x="36" y="200" type="curve" smooth="yes"/>
      <point x="36" y="189"/>
      <point x="37" y="173"/>
      <point x="40" y="160" type="curve"/>
      <point x="120" y="160" type="line"/>
      <point x="123" y="173"/>
      <point x="124" y="189"/>
      <point x="124" y="200" type="curve" smooth="yes"/>
      <point x="124" y="211"/>
      <point x="123" y="228"/>
      <point x="120" y="240" type="curve"/>
      <point x="40" y="240" type="line"/>
    </contour>
    <contour>
      <point x="77" y="308"/>
      <point x="76" y="291"/>
      <point x="76" y="280" type="curve" smooth="yes"/>
      <point x="76" y="269"/>
      <point x="77" y="253"/>
      <point x="80" y="240" type="curve"/>
      <point x="160" y="240" type="line"/>
      <point x="163" y="253"/>
      <point x="164" y="269"/>
      <point x="164" y="280" type="curve" smooth="yes"/>
      <point x="164" y="291"/>
      <point x="163" y="308"/>
      <point x="160" y="320" type="curve"/>
      <point x="80" y="320" type="line"/>
    </contour>
    <contour>
      <point x="77" y="68"/>
      <point x="76" y="51"/>
      <point x="76" y="40" type="curve" smooth="yes"/>
      <point x="76" y="29"/>
      <point x="77" y="13"/>
      <point x="80" y="0" type="curve"/>
      <point x="220" y="0" type="line"/>
      <point x="223" y="13"/>
      <point x="224" y="29"/>
      <point x="224" y="40" type="curve" smooth="yes"/>
      <point x="224" y="51"/>
      <point x="223" y="68"/>
      <point x="220" y="80" type="curve"/>
      <point x="80" y="80" type="line"/>
    </contour>
    <contour>
      <point x="217" y="228"/>
      <point x="216" y="211"/>
      <point x="216" y="200" type="curve" smooth="yes"/>
      <point x="216" y="189"/>
      <point x="217" y="173"/>
      <point x="220" y="160" type="curve"/>
      <point x="310" y="160" type="line"/>
      <point x="313" y="173"/>
      <point x="314" y="189"/>
      <point x="314" y="200" type="curve" smooth="yes"/>
      <point x="314" y="211"/>
      <point x="313" y="228"/>
      <point x="310" y="240" type="curve"/>
      <point x="220" y="240" type="line"/>
    </contour>
    <contour>
      <point x="277" y="148"/>
      <point x="276" y="131"/>
      <point x="276" y="120" type="curve" smooth="yes"/>
      <point x="276" y="109"/>
      <point x="277" y="93"/>
      <point x="280" y="80" type="curve"/>
      <point x="340" y="80" type="line"/>
      <point x="343" y="93"/>
      <point x="344" y="109"/>
      <point x="344" y="120" type="curve" smooth="yes"/>
      <point x="344" y="131"/>
      <point x="343" y="148"/>
      <point x="340" y="160" type="curve"/>
      <point x="280" y="160" type="line"/>
    </contour>
    <contour>
      <point x="277" y="68"/>
      <point x="276" y="51"/>
      <point x="276" y="40" type="curve" smooth="yes"/>
      <point x="276" y="29"/>
      <point x="277" y="13"/>
      <point x="280" y="0" type="curve"/>
      <point x="360" y="0" type="line"/>
      <point x="363" y="13"/>
      <point x="364" y="29"/>
      <point x="364" y="40" type="curve" smooth="yes"/>
      <point x="364" y="51"/>
      <point x="363" y="68"/>
      <point x="360" y="80" type="curve"/>
      <point x="280" y="80" type="line"/>
    </contour>
    <contour>
      <point x="187" y="308"/>
      <point x="186" y="291"/>
      <point x="186" y="280" type="curve" smooth="yes"/>
      <point x="186" y="269"/>
      <point x="187" y="253"/>
      <point x="190" y="240" type="curve"/>
      <point x="250" y="240" type="line"/>
      <point x="253" y="253"/>
      <point x="254" y="269"/>
      <point x="254" y="280" type="curve" smooth="yes"/>
      <point x="254" y="291"/>
      <point x="253" y="308"/>
      <point x="250" y="320" type="curve"/>
      <point x="190" y="320" type="line"/>
    </contour>
    <contour>
      <point x="117" y="388"/>
      <point x="116" y="371"/>
      <point x="116" y="360" type="curve" smooth="yes"/>
      <point x="116" y="349"/>
      <point x="117" y="333"/>
      <point x="120" y="320" type="curve"/>
      <point x="220" y="320" type="line"/>
      <point x="223" y="333"/>
      <point x="224" y="349"/>
      <point x="224" y="360" type="curve" smooth="yes"/>
      <point x="224" y="371"/>
      <point x="223" y="388"/>
      <point x="220" y="400" type="curve"/>
      <point x="120" y="400" type="line"/>
    </contour>
    <contour>
      <point x="297" y="308"/>
      <point x="296" y="291"/>
      <point x="296" y="280" type="curve" smooth="yes"/>
      <point x="296" y="269"/>
      <point x="297" y="253"/>
      <point x="300" y="240" type="curve"/>
      <point x="360" y="240" type="line"/>
      <point x="363" y="253"/>
      <point x="364" y="269"/>
      <point x="364" y="280" type="curve" smooth="yes"/>
      <point x="364" y="291"/>
      <point x="363" y="308"/>
      <point x="360" y="320" type="curve"/>
      <point x="300" y="320" type="line"/>
    </contour>
    <contour>
      <point x="297" y="388"/>
      <point x="296" y="371"/>
      <point x="296" y="360" type="curve" smooth="yes"/>
      <point x="296" y="349"/>
      <point x="297" y="333"/>
      <point x="300" y="320" type="curve"/>
      <point x="360" y="320" type="line"/>
      <point x="363" y="333"/>
      <point x="364" y="349"/>
      <point x="364" y="360" type="curve" smooth="yes"/>
      <point x="364" y="371"/>
      <point x="363" y="388"/>
      <point x="360" y="400" type="curve"/>
      <point x="300" y="400" type="line"/>
    </contour>
    <contour>
      <point x="217" y="468"/>
      <point x="216" y="451"/>
      <point x="216" y="440" type="curve" smooth="yes"/>
      <point x="216" y="429"/>
      <point x="217" y="413"/>
      <point x="220" y="400" type="curve"/>
      <point x="280" y="400" type="line"/>
      <point x="283" y="413"/>
      <point x="284" y="429"/>
      <point x="284" y="440" type="curve" smooth="yes"/>
      <point x="284" y="451"/>
      <point x="283" y="468"/>
      <point x="280" y="480" type="curve"/>
      <point x="220" y="480" type="line"/>
    </contour>
    <contour>
      <point x="77" y="468"/>
      <point x="76" y="451"/>
      <point x="76" y="440" type="curve" smooth="yes"/>
      <point x="76" y="429"/>
      <point x="77" y="413"/>
      <point x="80" y="400" type="curve"/>
      <point x="140" y="400" type="line"/>
      <point x="143" y="413"/>
      <point x="144" y="429"/>
      <point x="144" y="440" type="curve" smooth="yes"/>
      <point x="144" y="451"/>
      <point x="143" y="468"/>
      <point x="140" y="480" type="curve"/>
      <point x="80" y="480" type="line"/>
    </contour>
    <contour>
      <point x="117" y="548"/>
      <point x="116" y="531"/>
      <point x="116" y="520" type="curve" smooth="yes"/>
      <point x="116" y="509"/>
      <point x="117" y="493"/>
      <point x="120" y="480" type="curve"/>
      <point x="240" y="480" type="line"/>
      <point x="243" y="493"/>
      <point x="244" y="509"/>
      <point x="244" y="520" type="curve" smooth="yes"/>
      <point x="244" y="531"/>
      <point x="243" y="548"/>
      <point x="240" y="560" type="curve"/>
      <point x="120" y="560" type="line"/>
    </contour>
  </outline>
</glyph>
<glyph name="asterisk" format="1">
  <advance width="400"/>
  <unicode hex="002A"/>
  <outline>
    <contour>
      <point x="167" y="468"/>
      <point x="166" y="451"/>
      <point x="166" y="440" type="curve" smooth="yes"/>
      <point x="166" y="429"/>
      <point x="167" y="413"/>
      <point x="170" y="400" type="curve"/>
      <point x="230" y="400" type="line"/>
      <point x="233" y="413"/>
      <point x="234" y="429"/>
      <point x="234" y="440" type="curve" smooth="yes"/>
      <point x="234" y="451"/>
      <point x="233" y="468"/>
      <point x="230" y="480" type="curve"/>
      <point x="170" y="480" type="line"/>
    </contour>
    <contour>
      <point x="167" y="388"/>
      <point x="166" y="371"/>
      <point x="166" y="360" type="curve" smooth="yes"/>
      <point x="166" y="349"/>
      <point x="167" y="333"/>
      <point x="170" y="320" type="curve"/>
      <point x="230" y="320" type="line"/>
      <point x="233" y="333"/>
      <point x="234" y="349"/>
      <point x="234" y="360" type="curve" smooth="yes"/>
      <point x="234" y="371"/>
      <point x="233" y="388"/>
      <point x="230" y="400" type="curve"/>
      <point x="170" y="400" type="line"/>
    </contour>
    <contour>
      <point x="137" y="308"/>
      <point x="136" y="291"/>
      <point x="136" y="280" type="curve" smooth="yes"/>
      <point x="136" y="269"/>
      <point x="137" y="253"/>
      <point x="140" y="240" type="curve"/>
      <point x="260" y="240" type="line"/>
      <point x="263" y="253"/>
      <point x="264" y="269"/>
      <point x="264" y="280" type="curve" smooth="yes"/>
      <point x="264" y="291"/>
      <point x="263" y="308"/>
      <point x="260" y="320" type="curve"/>
      <point x="140" y="320" type="line"/>
    </contour>
    <contour>
      <point x="167" y="228"/>
      <point x="166" y="211"/>
      <point x="166" y="200" type="curve" smooth="yes"/>
      <point x="166" y="189"/>
      <point x="167" y="173"/>
      <point x="170" y="160" type="curve"/>
      <point x="230" y="160" type="line"/>
      <point x="233" y="173"/>
      <point x="234" y="189"/>
      <point x="234" y="200" type="curve" smooth="yes"/>
      <point x="234" y="211"/>
      <point x="233" y="228"/>
      <point x="230" y="240" type="curve"/>
      <point x="170" y="240" type="line"/>
    </contour>
    <contour>
      <point x="167" y="148"/>
      <point x="166" y="131"/>
      <point x="166" y="120" type="curve" smooth="yes"/>
      <point x="166" y="109"/>
      <point x="167" y="93"/>
      <point x="170" y="80" type="curve"/>
      <point x="230" y="80" type="line"/>
      <point x="233" y="93"/>
      <point x="234" y="109"/>
      <point x="234" y="120" type="curve" smooth="yes"/>
      <point x="234" y="131"/>
      <point x="233" y="148"/>
      <point x="230" y="160" type="curve"/>
      <point x="170" y="160" type="line"/>
    </contour>
    <contour>
      <point x="57" y="388"/>
      <point x="56" y="371"/>
      <point x="56" y="360" type="curve" smooth="yes"/>
      <point x="56" y="349"/>
      <point x="57" y="333"/>
      <point x="60" y="320" type="curve"/>
      <point x="140" y="320" type="line"/>
      <point x="143" y="333"/>
      <point x="144" y="349"/>
      <point x="144" y="360" type="curve" smooth="yes"/>
      <point x="144" y="371"/>
      <point x="143" y="388"/>
      <point x="140" y="400" type="curve"/>
      <point x="60" y="400" type="line"/>
    </contour>
    <contour>
      <point x="57" y="228"/>
      <point x="56" y="211"/>
      <point x="56" y="200" type="curve" smooth="yes"/>
      <point x="56" y="189"/>
      <point x="57" y="173"/>
      <point x="60" y="160" type="curve"/>
      <point x="140" y="160" type="line"/>
      <point x="143" y="173"/>
      <point x="144" y="189"/>
      <point x="144" y="200" type="curve" smooth="yes"/>
      <point x="144" y="211"/>
      <point x="143" y="228"/>
      <point x="140" y="240" type="curve"/>
      <point x="60" y="240" type="line"/>
    </contour>
    <contour>
      <point x="257" y="388"/>
      <point x="256" y="371"/>
      <point x="256" y="360" type="curve" smooth="yes"/>
      <point x="256" y="349"/>
      <point x="257" y="333"/>
      <point x="260" y="320" type="curve"/>
      <point x="340" y="320" type="line"/>
      <point x="343" y="333"/>
      <point x="344" y="349"/>
      <point x="344" y="360" type="curve" smooth="yes"/>
      <point x="344" y="371"/>
      <point x="343" y="388"/>
      <point x="340" y="400" type="curve"/>
      <point x="260" y="400" type="line"/>
    </contour>
    <contour>
      <point x="257" y="228"/>
      <point x="256" y="211"/>
      <point x="256" y="200" type="curve" smooth="yes"/>
      <point x="256" y="189"/>
      <point x="257" y="173"/>
      <point x="260" y="160" type="curve"/>
      <point x="340" y="160" type="line"/>
      <point x="343" y="173"/>
      <point x="344" y="189"/>
      <point x="344" y="200" type="curve" smooth="yes"/>
      <point x="344" y="211"/>
      <point x="343" y="228"/>
      <point x="340" y="240" type="curve"/>
      <point x="260" y="240" type="line"/>
    </contour>
  </outline>
</glyph>
<glyph name="three" format="1">
  <advance width="400"/>
  <unicode hex="0033"/>
  <outline>
    <contour>
      <point x="97" y="68"/>
      <point x="96" y="51"/>
      <point x="96" y="40" type="curve" smooth="yes"/>
      <point x="96" y="29"/>
      <point x="97" y="13"/>
      <point x="100" y="0" type="curve"/>
      <point x="180" y="0" type="line"/>
      <point x="183" y="13"/>
      <point x="184" y="29"/>
      <point x="184" y="40" type="curve" smooth="yes"/>
      <point x="184" y="51"/>
      <point x="183" y="68"/>
      <point x="180" y="80" type="curve"/>
      <point x="100" y="80" type="line"/>
    </contour>
    <contour>
      <point x="57" y="148"/>
      <point x="56" y="131"/>
      <point x="56" y="120" type="curve" smooth="yes"/>
      <point x="56" y="109"/>
      <point x="57" y="93"/>
      <point x="60" y="80" type="curve"/>
      <point x="140" y="80" type="line"/>
      <point x="143" y="93"/>
      <point x="144" y="109"/>
      <point x="144" y="120" type="curve" smooth="yes"/>
      <point x="144" y="131"/>
      <point x="143" y="148"/>
      <point x="140" y="160" type="curve"/>
      <point x="60" y="160" type="line"/>
    </contour>
    <contour>
      <point x="57" y="468"/>
      <point x="56" y="451"/>
      <point x="56" y="440" type="curve" smooth="yes"/>
      <point x="56" y="429"/>
      <point x="57" y="413"/>
      <point x="60" y="400" type="curve"/>
      <point x="140" y="400" type="line"/>
      <point x="143" y="413"/>
      <point x="144" y="429"/>
      <point x="144" y="440" type="curve" smooth="yes"/>
      <point x="144" y="451"/>
      <point x="143" y="468"/>
      <point x="140" y="480" type="curve"/>
      <point x="60" y="480" type="line"/>
    </contour>
    <contour>
      <point x="97" y="548"/>
      <point x="96" y="531"/>
      <point x="96" y="520" type="curve" smooth="yes"/>
      <point x="96" y="509"/>
      <point x="97" y="493"/>
      <point x="100" y="480" type="curve"/>
      <point x="180" y="480" type="line"/>
      <point x="183" y="493"/>
      <point x="184" y="509"/>
      <point x="184" y="520" type="curve" smooth="yes"/>
      <point x="184" y="531"/>
      <point x="183" y="548"/>
      <point x="180" y="560" type="curve"/>
      <point x="100" y="560" type="line"/>
    </contour>
    <contour>
      <point x="157" y="308"/>
      <point x="156" y="291"/>
      <point x="156" y="280" type="curve" smooth="yes"/>
      <point x="156" y="269"/>
      <point x="157" y="253"/>
      <point x="160" y="240" type="curve"/>
      <point x="300" y="240" type="line"/>
      <point x="303" y="253"/>
      <point x="304" y="269"/>
      <point x="304" y="280" type="curve" smooth="yes"/>
      <point x="304" y="291"/>
      <point x="303" y="308"/>
      <point x="300" y="320" type="curve"/>
      <point x="160" y="320" type="line"/>
    </contour>
    <contour>
      <point x="177" y="548"/>
      <point x="176" y="531"/>
      <point x="176" y="520" type="curve" smooth="yes"/>
      <point x="176" y="509"/>
      <point x="177" y="493"/>
      <point x="180" y="480" type="curve"/>
      <point x="300" y="480" type="line"/>
      <point x="303" y="493"/>
      <point x="304" y="509"/>
      <point x="304" y="520" type="curve" smooth="yes"/>
      <point x="304" y="531"/>
      <point x="303" y="548"/>
      <point x="300" y="560" type="curve"/>
      <point x="180" y="560" type="line"/>
    </contour>
    <contour>
      <point x="177" y="68"/>
      <point x="176" y="51"/>
      <point x="176" y="40" type="curve" smooth="yes"/>
      <point x="176" y="29"/>
      <point x="177" y="13"/>
      <point x="180" y="0" type="curve"/>
      <point x="300" y="0" type="line"/>
      <point x="303" y="13"/>
      <point x="304" y="29"/>
      <point x="304" y="40" type="curve" smooth="yes"/>
      <point x="304" y="51"/>
      <point x="303" y="68"/>
      <point x="300" y="80" type="curve"/>
      <point x="180" y="80" type="line"/>
    </contour>
    <contour>
      <point x="257" y="148"/>
      <point x="256" y="131"/>
      <point x="256" y="120" type="curve" smooth="yes"/>
      <point x="256" y="109"/>
      <point x="257" y="93"/>
      <point x="260" y="80" type="curve"/>
      <point x="340" y="80" type="line"/>
      <point x="343" y="93"/>
      <point x="344" y="109"/>
      <point x="344" y="120" type="curve" smooth="yes"/>
      <point x="344" y="131"/>
      <point x="343" y="148"/>
      <point x="340" y="160" type="curve"/>
      <point x="260" y="160" type="line"/>
    </contour>
    <contour>
      <point x="257" y="228"/>
      <point x="256" y="211"/>
      <point x="256" y="200" type="curve" smooth="yes"/>
      <point x="256" y="189"/>
      <point x="257" y="173"/>
      <point x="260" y="160" type="curve"/>
      <point x="340" y="160" type="line"/>
      <point x="343" y="173"/>
      <point x="344" y="189"/>
      <point x="344" y="200" type="curve" smooth="yes"/>
      <point x="344" y="211"/>
      <point x="343" y="228"/>
      <point x="340" y="240" type="curve"/>
      <point x="260" y="240" type="line"/>
    </contour>
    <contour>
      <point x="257" y="388"/>
      <point x="256" y="371"/>
      <point x="256" y="360" type="curve" smooth="yes"/>
      <point x="256" y="349"/>
      <point x="257" y="333"/>
      <point x="260" y="320" type="curve"/>
      <point x="340" y="320" type="line"/>
      <point x="343" y="333"/>
      <point x="344" y="349"/>
      <point x="344" y="360" type="curve" smooth="yes"/>
      <point x="344" y="371"/>
      <point x="343" y="388"/>
      <point x="340" y="400" type="curve"/>
      <point x="260" y="400" type="line"/>
    </contour>
    <contour>
      <point x="257" y="468"/>
      <point x="256" y="451"/>
      <point x="256" y="440" type="curve" smooth="yes"/>
      <point x="256" y="429"/>
      <point x="257" y="413"/>
      <point x="260" y="400" type="curve"/>
      <point x="340" y="400" type="line"/>
      <point x="343" y="413"/>
      <point x="344" y="429"/>
      <point x="344" y="440" type="curve" smooth="yes"/>
      <point x="344" y="451"/>
      <point x="343" y="468"/>
      <point x="340" y="480" type="curve"/>
      <point x="260" y="480" type="line"/>
    </contour>
  </outline>
</glyph>
<glyph name="four" format="1">
  <advance width="400"/>
  <unicode hex="0034"/>
  <outline>
    <contour>
      <point x="237" y="148"/>
      <point x="236" y="131"/>
      <point x="236" y="120" type="curve" smooth="yes"/>
      <point x="236" y="109"/>
      <point x="237" y="93"/>
      <point x="240" y="80" type="curve"/>
      <point x="320" y="80" type="line"/>
      <point x="323" y="93"/>
      <point x="324" y="109"/>
      <point x="324" y="120" type="curve" smooth="yes"/>
      <point x="324" y="131"/>
      <point x="323" y="148"/>
      <point x="320" y="160" type="curve"/>
      <point x="240" y="160" type="line"/>
    </contour>
    <contour>
      <point x="197" y="228"/>
      <point x="196" y="211"/>
      <point x="196" y="200" type="curve" smooth="yes"/>
      <point x="196" y="189"/>
      <point x="197" y="173"/>
      <point x="200" y="160" type="curve"/>
      <point x="360" y="160" type="line"/>
      <point x="363" y="173"/>
      <point x="364" y="189"/>
      <point x="364" y="200" type="curve" smooth="yes"/>
      <point x="364" y="211"/>
      <point x="363" y="228"/>
      <point x="360" y="240" type="curve"/>
      <point x="200" y="240" type="line"/>
    </contour>
    <contour>
      <point x="237" y="68"/>
      <point x="236" y="51"/>
      <point x="236" y="40" type="curve" smooth="yes"/>
      <point x="236" y="29"/>
      <point x="237" y="13"/>
      <point x="240" y="0" type="curve"/>
      <point x="320" y="0" type="line"/>
      <point x="323" y="13"/>
      <point x="324" y="29"/>
      <point x="324" y="40" type="curve" smooth="yes"/>
      <point x="324" y="51"/>
      <point x="323" y="68"/>
      <point x="320" y="80" type="curve"/>
      <point x="240" y="80" type="line"/>
    </contour>
    <contour>
      <point x="237" y="308"/>
      <point x="236" y="291"/>
      <point x="236" y="280" type="curve" smooth="yes"/>
      <point x="236" y="269"/>
      <point x="237" y="253"/>
      <point x="240" y="240" type="curve"/>
      <point x="320" y="240" type="line"/>
      <point x="323" y="253"/>
      <point x="324" y="269"/>
      <point x="324" y="280" type="curve" smooth="yes"/>
      <point x="324" y="291"/>
      <point x="323" y="308"/>
      <point x="320" y="320" type="curve"/>
      <point x="240" y="320" type="line"/>
    </contour>
    <contour>
      <point x="237" y="388"/>
      <point x="236" y="371"/>
      <point x="236" y="360" type="curve" smooth="yes"/>
      <point x="236" y="349"/>
      <point x="237" y="333"/>
      <point x="240" y="320" type="curve"/>
      <point x="320" y="320" type="line"/>
      <point x="323" y="333"/>
      <point x="324" y="349"/>
      <point x="324" y="360" type="curve" smooth="yes"/>
      <point x="324" y="371"/>
      <point x="323" y="388"/>
      <point x="320" y="400" type="curve"/>
      <point x="240" y="400" type="line"/>
    </contour>
    <contour>
      <point x="237" y="468"/>
      <point x="236" y="451"/>
      <point x="236" y="440" type="curve" smooth="yes"/>
      <point x="236" y="429"/>
      <point x="237" y="413"/>
      <point x="240" y="400" type="curve"/>
      <point x="320" y="400" type="line"/>
      <point x="323" y="413"/>
      <point x="324" y="429"/>
      <point x="324" y="440" type="curve" smooth="yes"/>
      <point x="324" y="451"/>
      <point x="323" y="468"/>
      <point x="320" y="480" type="curve"/>
      <point x="240" y="480" type="line"/>
    </contour>
    <contour>
      <point x="177" y="548"/>
      <point x="176" y="531"/>
      <point x="176" y="520" type="curve" smooth="yes"/>
      <point x="176" y="509"/>
      <point x="177" y="493"/>
      <point x="180" y="480" type="curve"/>
      <point x="320" y="480" type="line"/>
      <point x="323" y="493"/>
      <point x="324" y="509"/>
      <point x="324" y="520" type="curve" smooth="yes"/>
      <point x="324" y="531"/>
      <point x="323" y="548"/>
      <point x="320" y="560" type="curve"/>
      <point x="180" y="560" type="line"/>
    </contour>
    <contour>
      <point x="37" y="228"/>
      <point x="36" y="211"/>
      <point x="36" y="200" type="curve" smooth="yes"/>
      <point x="36" y="189"/>
      <point x="37" y="173"/>
      <point x="40" y="160" type="curve"/>
      <point x="200" y="160" type="line"/>
      <point x="203" y="173"/>
      <point x="204" y="189"/>
      <point x="204" y="200" type="curve" smooth="yes"/>
      <point x="204" y="211"/>
      <point x="203" y="228"/>
      <point x="200" y="240" type="curve"/>
      <point x="40" y="240" type="line"/>
    </contour>
    <contour>
      <point x="67" y="308"/>
      <point x="66" y="291"/>
      <point x="66" y="280" type="curve" smooth="yes"/>
      <point x="66" y="269"/>
      <point x="67" y="253"/>
      <point x="70" y="240" type="curve"/>
      <point x="120" y="240" type="line"/>
      <point x="123" y="253"/>
      <point x="124" y="269"/>
      <point x="124" y="280" type="curve" smooth="yes"/>
      <point x="124" y="291"/>
      <point x="123" y="308"/>
      <point x="120" y="320" type="curve"/>
      <point x="70" y="320" type="line"/>
    </contour>
    <contour>
      <point x="97" y="388"/>
      <point x="96" y="371"/>
      <point x="96" y="360" type="curve" smooth="yes"/>
      <point x="96" y="349"/>
      <point x="97" y="333"/>
      <point x="100" y="320" type="curve"/>
      <point x="150" y="320" type="line"/>
      <point x="153" y="333"/>
      <point x="154" y="349"/>
      <point x="154" y="360" type="curve" smooth="yes"/>
      <point x="154" y="371"/>
      <point x="153" y="388"/>
      <point x="150" y="400" type="curve"/>
      <point x="100" y="400" type="line"/>
    </contour>
    <contour>
      <point x="127" y="468"/>
      <point x="126" y="451"/>
      <point x="126" y="440" type="curve" smooth="yes"/>
      <point x="126" y="429"/>
      <point x="127" y="413"/>
      <point x="130" y="400" type="curve"/>
      <point x="180" y="400" type="line"/>
      <point x="183" y="413"/>
      <point x="184" y="429"/>
      <point x="184" y="440" type="curve" smooth="yes"/>
      <point x="184" y="451"/>
      <point x="183" y="468"/>
      <point x="180" y="480" type="curve"/>
      <point x="130" y="480" type="line"/>
    </contour>
  </outline>
</glyph>
<glyph name="five" format="1">
  <advance width="400"/>
  <unicode hex="0035"/>
  <outline>
    <contour>
      <point x="57" y="148"/>
      <point x="56" y="131"/>
      <point x="56" y="120" type="curve" smooth="yes"/>
      <point x="56" y="109"/>
      <point x="57" y="93"/>
      <point x="60" y="80" type="curve"/>
      <point x="120" y="80" type="line"/>
      <point x="123" y="93"/>
      <point x="124" y="109"/>
      <point x="124" y="120" type="curve" smooth="yes"/>
      <point x="124" y="131"/>
      <point x="123" y="148"/>
      <point x="120" y="160" type="curve"/>
      <point x="60" y="160" type="line"/>
    </contour>
    <contour>
      <point x="247" y="148"/>
      <point x="246" y="131"/>
      <point x="246" y="120" type="curve" smooth="yes"/>
      <point x="246" y="109"/>
      <point x="247" y="93"/>
      <point x="250" y="80" type="curve"/>
      <point x="330" y="80" type="line"/>
      <point x="333" y="93"/>
      <point x="334" y="109"/>
      <point x="334" y="120" type="curve" smooth="yes"/>
      <point x="334" y="131"/>
      <point x="333" y="148"/>
      <point x="330" y="160" type="curve"/>
      <point x="250" y="160" type="line"/>
    </contour>
    <contour>
      <point x="197" y="68"/>
      <point x="196" y="51"/>
      <point x="196" y="40" type="curve" smooth="yes"/>
      <point x="196" y="29"/>
      <point x="197" y="13"/>
      <point x="200" y="0" type="curve"/>
      <point x="280" y="0" type="line"/>
      <point x="283" y="13"/>
      <point x="284" y="29"/>
      <point x="284" y="40" type="curve" smooth="yes"/>
      <point x="284" y="51"/>
      <point x="283" y="68"/>
      <point x="280" y="80" type="curve"/>
      <point x="200" y="80" type="line"/>
    </contour>
    <contour>
      <point x="97" y="68"/>
      <point x="96" y="51"/>
      <point x="96" y="40" type="curve" smooth="yes"/>
      <point x="96" y="29"/>
      <point x="97" y="13"/>
      <point x="100" y="0" type="curve"/>
      <point x="200" y="0" type="line"/>
      <point x="203" y="13"/>
      <point x="204" y="29"/>
      <point x="204" y="40" type="curve" smooth="yes"/>
      <point x="204" y="51"/>
      <point x="203" y="68"/>
      <point x="200" y="80" type="curve"/>
      <point x="100" y="80" type="line"/>
    </contour>
    <contour>
      <point x="277" y="228"/>
      <point x="276" y="211"/>
      <point x="276" y="200" type="curve" smooth="yes"/>
      <point x="276" y="189"/>
      <point x="277" y="173"/>
      <point x="280" y="160" type="curve"/>
      <point x="360" y="160" type="line"/>
      <point x="363" y="173"/>
      <point x="364" y="189"/>
      <point x="364" y="200" type="curve" smooth="yes"/>
      <point x="364" y="211"/>
      <point x="363" y="228"/>
      <point x="360" y="240" type="curve"/>
      <point x="280" y="240" type="line"/>
    </contour>
    <contour>
      <point x="247" y="308"/>
      <point x="246" y="291"/>
      <point x="246" y="280" type="curve" smooth="yes"/>
      <point x="246" y="269"/>
      <point x="247" y="253"/>
      <point x="250" y="240" type="curve"/>
      <point x="330" y="240" type="line"/>
      <point x="333" y="253"/>
      <point x="334" y="269"/>
      <point x="334" y="280" type="curve" smooth="yes"/>
      <point x="334" y="291"/>
      <point x="333" y="308"/>
      <point x="330" y="320" type="curve"/>
      <point x="250" y="320" type="line"/>
    </contour>
    <contour>
      <point x="167" y="388"/>
      <point x="166" y="371"/>
      <point x="166" y="360" type="curve" smooth="yes"/>
      <point x="166" y="349"/>
      <point x="167" y="333"/>
      <point x="170" y="320" type="curve"/>
      <point x="280" y="320" type="line"/>
      <point x="283" y="333"/>
      <point x="284" y="349"/>
      <point x="284" y="360" type="curve" smooth="yes"/>
      <point x="284" y="371"/>
      <point x="283" y="388"/>
      <point x="280" y="400" type="curve"/>
      <point x="170" y="400" type="line"/>
    </contour>
    <contour>
      <point x="57" y="308"/>
      <point x="56" y="291"/>
      <point x="56" y="280" type="curve" smooth="yes"/>
      <point x="56" y="269"/>
      <point x="57" y="253"/>
      <point x="60" y="240" type="curve"/>
      <point x="170" y="240" type="line"/>
      <point x="173" y="253"/>
      <point x="174" y="269"/>
      <point x="174" y="280" type="curve" smooth="yes"/>
      <point x="174" y="291"/>
      <point x="173" y="308"/>
      <point x="170" y="320" type="curve"/>
      <point x="60" y="320" type="line"/>
    </contour>
    <contour>
      <point x="57" y="388"/>
      <point x="56" y="371"/>
      <point x="56" y="360" type="curve" smooth="yes"/>
      <point x="56" y="349"/>
      <point x="57" y="333"/>
      <point x="60" y="320" type="curve"/>
      <point x="140" y="320" type="line"/>
      <point x="143" y="333"/>
      <point x="144" y="349"/>
      <point x="144" y="360" type="curve" smooth="yes"/>
      <point x="144" y="371"/>
      <point x="143" y="388"/>
      <point x="140" y="400" type="curve"/>
      <point x="60" y="400" type="line"/>
    </contour>
    <contour>
      <point x="57" y="468"/>
      <point x="56" y="451"/>
      <point x="56" y="440" type="curve" smooth="yes"/>
      <point x="56" y="429"/>
      <point x="57" y="413"/>
      <point x="60" y="400" type="curve"/>
      <point x="140" y="400" type="line"/>
      <point x="143" y="413"/>
      <point x="144" y="429"/>
      <point x="144" y="440" type="curve" smooth="yes"/>
      <point x="144" y="451"/>
      <point x="143" y="468"/>
      <point x="140" y="480" type="curve"/>
      <point x="60" y="480" type="line"/>
    </contour>
    <contour>
      <point x="57" y="548"/>
      <point x="56" y="531"/>
      <point x="56" y="520" type="curve" smooth="yes"/>
      <point x="56" y="509"/>
      <point x="57" y="493"/>
      <point x="60" y="480" type="curve"/>
      <point x="220" y="480" type="line"/>
      <point x="223" y="493"/>
      <point x="224" y="509"/>
      <point x="224" y="520" type="curve" smooth="yes"/>
      <point x="224" y="531"/>
      <point x="223" y="548"/>
      <point x="220" y="560" type="curve"/>
      <point x="60" y="560" type="line"/>
    </contour>
    <contour>
      <point x="197" y="548"/>
      <point x="196" y="531"/>
      <point x="196" y="520" type="curve" smooth="yes"/>
      <point x="196" y="509"/>
      <point x="197" y="493"/>
      <point x="200" y="480" type="curve"/>
      <point x="330" y="480" type="line"/>
      <point x="333" y="493"/>
      <point x="334" y="509"/>
      <point x="334" y="520" type="curve" smooth="yes"/>
      <point x="334" y="531"/>
      <point x="333" y="548"/>
      <point x="330" y="560" type="curve"/>
      <point x="200" y="560" type="line"/>
    </contour>
  </outline>
</glyph>
<glyph name="six" format="1">
  <advance width="400"/>
  <unicode hex="0036"/>
  <outline>
    <contour>
      <point x="82" y="148"/>
      <point x="81" y="131"/>
      <point x="81" y="120" type="curve" smooth="yes"/>
      <point x="81" y="109"/>
      <point x="82" y="93"/>
      <point x="85" y="80" type="curve"/>
      <point x="165" y="80" type="line"/>
      <point x="168" y="93"/>
      <point x="169" y="109"/>
      <point x="169" y="120" type="curve" smooth="yes"/>
      <point x="169" y="131"/>
      <point x="168" y="148"/>
      <point x="165" y="160" type="curve"/>
      <point x="85" y="160" type="line"/>
    </contour>
    <contour>
      <point x="52" y="228"/>
      <point x="51" y="211"/>
      <point x="51" y="200" type="curve" smooth="yes"/>
      <point x="51" y="189"/>
      <point x="52" y="173"/>
      <point x="55" y="160" type="curve"/>
      <point x="165" y="160" type="line"/>
      <point x="168" y="173"/>
      <point x="169" y="189"/>
      <point x="169" y="200" type="curve" smooth="yes"/>
      <point x="169" y="211"/>
      <point x="168" y="228"/>
      <point x="165" y="240" type="curve"/>
      <point x="55" y="240" type="line"/>
    </contour>
    <contour>
      <point x="82" y="468"/>
      <point x="81" y="451"/>
      <point x="81" y="440" type="curve" smooth="yes"/>
      <point x="81" y="429"/>
      <point x="82" y="413"/>
      <point x="85" y="400" type="curve"/>
      <point x="165" y="400" type="line"/>
      <point x="168" y="413"/>
      <point x="169" y="429"/>
      <point x="169" y="440" type="curve" smooth="yes"/>
      <point x="169" y="451"/>
      <point x="168" y="468"/>
      <point x="165" y="480" type="curve"/>
      <point x="85" y="480" type="line"/>
    </contour>
    <contour>
      <point x="262" y="148"/>
      <point x="261" y="131"/>
      <point x="261" y="120" type="curve" smooth="yes"/>
      <point x="261" y="109"/>
      <point x="262" y="93"/>
      <point x="265" y="80" type="curve"/>
      <point x="345" y="80" type="line"/>
      <point x="348" y="93"/>
      <point x="349" y="109"/>
      <point x="349" y="120" type="curve" smooth="yes"/>
      <point x="349" y="131"/>
      <point x="348" y="148"/>
      <point x="345" y="160" type="curve"/>
      <point x="265" y="160" type="line"/>
    </contour>
    <contour>
      <point x="162" y="68"/>
      <point x="161" y="51"/>
      <point x="161" y="40" type="curve" smooth="yes"/>
      <point x="161" y="29"/>
      <point x="162" y="13"/>
      <point x="165" y="0" type="curve"/>
      <point x="285" y="0" type="line"/>
      <point x="288" y="13"/>
      <point x="289" y="29"/>
      <point x="289" y="40" type="curve" smooth="yes"/>
      <point x="289" y="51"/>
      <point x="288" y="68"/>
      <point x="285" y="80" type="curve"/>
      <point x="165" y="80" type="line"/>
    </contour>
    <contour>
      <point x="162" y="548"/>
      <point x="161" y="531"/>
      <point x="161" y="520" type="curve" smooth="yes"/>
      <point x="161" y="509"/>
      <point x="162" y="493"/>
      <point x="165" y="480" type="curve"/>
      <point x="305" y="480" type="line"/>
      <point x="308" y="493"/>
      <point x="309" y="509"/>
      <point x="309" y="520" type="curve" smooth="yes"/>
      <point x="309" y="531"/>
      <point x="308" y="548"/>
      <point x="305" y="560" type="curve"/>
      <point x="165" y="560" type="line"/>
    </contour>
    <contour>
      <point x="262" y="228"/>
      <point x="261" y="211"/>
      <point x="261" y="200" type="curve" smooth="yes"/>
      <point x="261" y="189"/>
      <point x="262" y="173"/>
      <point x="265" y="160" type="curve"/>
      <point x="345" y="160" type="line"/>
      <point x="348" y="173"/>
      <point x="349" y="189"/>
      <point x="349" y="200" type="curve" smooth="yes"/>
      <point x="349" y="211"/>
      <point x="348" y="228"/>
      <point x="345" y="240" type="curve"/>
      <point x="265" y="240" type="line"/>
    </contour>
    <contour>
      <point x="52" y="308"/>
      <point x="51" y="291"/>
      <point x="51" y="280" type="curve" smooth="yes"/>
      <point x="51" y="269"/>
      <point x="52" y="253"/>
      <point x="55" y="240" type="curve"/>
      <point x="135" y="240" type="line"/>
      <point x="138" y="253"/>
      <point x="139" y="269"/>
      <point x="139" y="280" type="curve" smooth="yes"/>
      <point x="139" y="291"/>
      <point x="138" y="308"/>
      <point x="135" y="320" type="curve"/>
      <point x="55" y="320" type="line"/>
    </contour>
    <contour>
      <point x="52" y="388"/>
      <point x="51" y="371"/>
      <point x="51" y="360" type="curve" smooth="yes"/>
      <point x="51" y="349"/>
      <point x="52" y="333"/>
      <point x="55" y="320" type="curve"/>
      <point x="135" y="320" type="line"/>
      <point x="138" y="333"/>
      <point x="139" y="349"/>
      <point x="139" y="360" type="curve" smooth="yes"/>
      <point x="139" y="371"/>
      <point x="138" y="388"/>
      <point x="135" y="400" type="curve"/>
      <point x="55" y="400" type="line"/>
    </contour>
    <contour>
      <point x="162" y="308"/>
      <point x="161" y="291"/>
      <point x="161" y="280" type="curve" smooth="yes"/>
      <point x="161" y="269"/>
      <point x="162" y="253"/>
      <point x="165" y="240" type="curve"/>
      <point x="305" y="240" type="line"/>
      <point x="308" y="253"/>
      <point x="309" y="269"/>
      <point x="309" y="280" type="curve" smooth="yes"/>
      <point x="309" y="291"/>
      <point x="308" y="308"/>
      <point x="305" y="320" type="curve"/>
      <point x="165" y="320" type="line"/>
    </contour>
  </outline>
</glyph>
<glyph name="seven" format="1">
  <advance width="400"/>
  <unicode hex="0037"/>
  <outline>
    <contour>
      <point x="257" y="468"/>
      <point x="256" y="451"/>
      <point x="256" y="440" type="curve" smooth="yes"/>
      <point x="256" y="429"/>
      <point x="257" y="413"/>
      <point x="260" y="400" type="curve"/>
      <point x="340" y="400" type="line"/>
      <point x="343" y="413"/>
      <point x="344" y="429"/>
      <point x="344" y="440" type="curve" smooth="yes"/>
      <point x="344" y="451"/>
      <point x="343" y="468"/>
      <point x="340" y="480" type="curve"/>
      <point x="260" y="480" type="line"/>
    </contour>
    <contour>
      <point x="57" y="548"/>
      <point x="56" y="531"/>
      <point x="56" y="520" type="curve" smooth="yes"/>
      <point x="56" y="509"/>
      <point x="57" y="493"/>
      <point x="60" y="480" type="curve"/>
      <point x="220" y="480" type="line"/>
      <point x="223" y="493"/>
      <point x="224" y="509"/>
      <point x="224" y="520" type="curve" smooth="yes"/>
      <point x="224" y="531"/>
      <point x="223" y="548"/>
      <point x="220" y="560" type="curve"/>
      <point x="60" y="560" type="line"/>
    </contour>
    <contour>
      <point x="217" y="548"/>
      <point x="216" y="531"/>
      <point x="216" y="520" type="curve" smooth="yes"/>
      <point x="216" y="509"/>
      <point x="217" y="493"/>
      <point x="220" y="480" type="curve"/>
      <point x="340" y="480" type="line"/>
      <point x="343" y="493"/>
      <point x="344" y="509"/>
      <point x="344" y="520" type="curve" smooth="yes"/>
      <point x="344" y="531"/>
      <point x="343" y="548"/>
      <point x="340" y="560" type="curve"/>
      <point x="220" y="560" type="line"/>
    </contour>
    <contour>
      <point x="227" y="388"/>
      <point x="226" y="371"/>
      <point x="226" y="360" type="curve" smooth="yes"/>
      <point x="226" y="349"/>
      <point x="227" y="333"/>
      <point x="230" y="320" type="curve"/>
      <point x="310" y="320" type="line"/>
      <point x="313" y="333"/>
      <point x="314" y="349"/>
      <point x="314" y="360" type="curve" smooth="yes"/>
      <point x="314" y="371"/>
      <point x="313" y="388"/>
      <point x="310" y="400" type="curve"/>
      <point x="230" y="400" type="line"/>
    </contour>
    <contour>
      <point x="197" y="308"/>
      <point x="196" y="291"/>
      <point x="196" y="280" type="curve" smooth="yes"/>
      <point x="196" y="269"/>
      <point x="197" y="253"/>
      <point x="200" y="240" type="curve"/>
      <point x="280" y="240" type="line"/>
      <point x="283" y="253"/>
      <point x="284" y="269"/>
      <point x="284" y="280" type="curve" smooth="yes"/>
      <point x="284" y="291"/>
      <point x="283" y="308"/>
      <point x="280" y="320" type="curve"/>
      <point x="200" y="320" type="line"/>
    </contour>
    <contour>
      <point x="167" y="228"/>
      <point x="166" y="211"/>
      <point x="166" y="200" type="curve" smooth="yes"/>
      <point x="166" y="189"/>
      <point x="167" y="173"/>
      <point x="170" y="160" type="curve"/>
      <point x="250" y="160" type="line"/>
      <point x="253" y="173"/>
      <point x="254" y="189"/>
      <point x="254" y="200" type="curve" smooth="yes"/>
      <point x="254" y="211"/>
      <point x="253" y="228"/>
      <point x="250" y="240" type="curve"/>
      <point x="170" y="240" type="line"/>
    </contour>
    <contour>
      <point x="137" y="148"/>
      <point x="136" y="131"/>
      <point x="136" y="120" type="curve" smooth="yes"/>
      <point x="136" y="109"/>
      <point x="137" y="93"/>
      <point x="140" y="80" type="curve"/>
      <point x="220" y="80" type="line"/>
      <point x="223" y="93"/>
      <point x="224" y="109"/>
      <point x="224" y="120" type="curve" smooth="yes"/>
      <point x="224" y="131"/>
      <point x="223" y="148"/>
      <point x="220" y="160" type="curve"/>
      <point x="140" y="160" type="line"/>
    </contour>
    <contour>
      <point x="107" y="68"/>
      <point x="106" y="51"/>
      <point x="106" y="40" type="curve" smooth="yes"/>
      <point x="106" y="29"/>
      <point x="107" y="13"/>
      <point x="110" y="0" type="curve"/>
      <point x="190" y="0" type="line"/>
      <point x="193" y="13"/>
      <point x="194" y="29"/>
      <point x="194" y="40" type="curve" smooth="yes"/>
      <point x="194" y="51"/>
      <point x="193" y="68"/>
      <point x="190" y="80" type="curve"/>
      <point x="110" y="80" type="line"/>
    </contour>
  </outline>
</glyph>
<glyph name="nine" format="1">
  <advance width="400"/>
  <unicode hex="0039"/>
  <outline>
    <contour>
      <point x="232" y="468"/>
      <point x="231" y="451"/>
      <point x="231" y="440" type="curve" smooth="yes"/>
      <point x="231" y="429"/>
      <point x="232" y="413"/>
      <point x="235" y="400" type="curve"/>
      <point x="315" y="400" type="line"/>
      <point x="318" y="413"/>
      <point x="319" y="429"/>
      <point x="319" y="440" type="curve" smooth="yes"/>
      <point x="319" y="451"/>
      <point x="318" y="468"/>
      <point x="315" y="480" type="curve"/>
      <point x="235" y="480" type="line"/>
    </contour>
    <contour>
      <point x="232" y="388"/>
      <point x="231" y="371"/>
      <point x="231" y="360" type="curve" smooth="yes"/>
      <point x="231" y="349"/>
      <point x="232" y="333"/>
      <point x="235" y="320" type="curve"/>
      <point x="345" y="320" type="line"/>
      <point x="348" y="333"/>
      <point x="349" y="349"/>
      <point x="349" y="360" type="curve" smooth="yes"/>
      <point x="349" y="371"/>
      <point x="348" y="388"/>
      <point x="345" y="400" type="curve"/>
      <point x="235" y="400" type="line"/>
    </contour>
    <contour>
      <point x="232" y="148"/>
      <point x="231" y="131"/>
      <point x="231" y="120" type="curve" smooth="yes"/>
      <point x="231" y="109"/>
      <point x="232" y="93"/>
      <point x="235" y="80" type="curve"/>
      <point x="315" y="80" type="line"/>
      <point x="318" y="93"/>
      <point x="319" y="109"/>
      <point x="319" y="120" type="curve" smooth="yes"/>
      <point x="319" y="131"/>
      <point x="318" y="148"/>
      <point x="315" y="160" type="curve"/>
      <point x="235" y="160" type="line"/>
    </contour>
    <contour>
      <point x="52" y="468"/>
      <point x="51" y="451"/>
      <point x="51" y="440" type="curve" smooth="yes"/>
      <point x="51" y="429"/>
      <point x="52" y="413"/>
      <point x="55" y="400" type="curve"/>
      <point x="135" y="400" type="line"/>
      <point x="138" y="413"/>
      <point x="139" y="429"/>
      <point x="139" y="440" type="curve" smooth="yes"/>
      <point x="139" y="451"/>
      <point x="138" y="468"/>
      <point x="135" y="480" type="curve"/>
      <point x="55" y="480" type="line"/>
    </contour>
    <contour>
      <point x="112" y="548"/>
      <point x="111" y="531"/>
      <point x="111" y="520" type="curve" smooth="yes"/>
      <point x="111" y="509"/>
      <point x="112" y="493"/>
      <point x="115" y="480" type="curve"/>
      <point x="235" y="480" type="line"/>
      <point x="238" y="493"/>
      <point x="239" y="509"/>
      <point x="239" y="520" type="curve" smooth="yes"/>
      <point x="239" y="531"/>
      <point x="238" y="548"/>
      <point x="235" y="560" type="curve"/>
      <point x="115" y="560" type="line"/>
    </contour>
    <contour>
      <point x="92" y="68"/>
      <point x="91" y="51"/>
      <point x="91" y="40" type="curve" smooth="yes"/>
      <point x="91" y="29"/>
      <point x="92" y="13"/>
      <point x="95" y="0" type="curve"/>
      <point x="235" y="0" type="line"/>
      <point x="238" y="13"/>
      <point x="239" y="29"/>
      <point x="239" y="40" type="curve" smooth="yes"/>
      <point x="239" y="51"/>
      <point x="238" y="68"/>
      <point x="235" y="80" type="curve"/>
      <point x="95" y="80" type="line"/>
    </contour>
    <contour>
      <point x="52" y="388"/>
      <point x="51" y="371"/>
      <point x="51" y="360" type="curve" smooth="yes"/>
      <point x="51" y="349"/>
      <point x="52" y="333"/>
      <point x="55" y="320" type="curve"/>
      <point x="135" y="320" type="line"/>
      <point x="138" y="333"/>
      <point x="139" y="349"/>
      <point x="139" y="360" type="curve" smooth="yes"/>
      <point x="139" y="371"/>
      <point x="138" y="388"/>
      <point x="135" y="400" type="curve"/>
      <point x="55" y="400" type="line"/>
    </contour>
    <contour>
      <point x="262" y="308"/>
      <point x="261" y="291"/>
      <point x="261" y="280" type="curve" smooth="yes"/>
      <point x="261" y="269"/>
      <point x="262" y="253"/>
      <point x="265" y="240" type="curve"/>
      <point x="345" y="240" type="line"/>
      <point x="348" y="253"/>
      <point x="349" y="269"/>
      <point x="349" y="280" type="curve" smooth="yes"/>
      <point x="349" y="291"/>
      <point x="348" y="308"/>
      <point x="345" y="320" type="curve"/>
      <point x="265" y="320" type="line"/>
    </contour>
    <contour>
      <point x="262" y="228"/>
      <point x="261" y="211"/>
      <point x="261" y="200" type="curve" smooth="yes"/>
      <point x="261" y="189"/>
      <point x="262" y="173"/>
      <point x="265" y="160" type="curve"/>
      <point x="345" y="160" type="line"/>
      <point x="348" y="173"/>
      <point x="349" y="189"/>
      <point x="349" y="200" type="curve" smooth="yes"/>
      <point x="349" y="211"/>
      <point x="348" y="228"/>
      <point x="345" y="240" type="curve"/>
      <point x="265" y="240" type="line"/>
    </contour>
    <contour>
      <point x="92" y="308"/>
      <point x="91" y="291"/>
      <point x="91" y="280" type="curve" smooth="yes"/>
      <point x="91" y="269"/>
      <point x="92" y="253"/>
      <point x="95" y="240" type="curve"/>
      <point x="235" y="240" type="line"/>
      <point x="238" y="253"/>
      <point x="239" y="269"/>
      <point x="239" y="280" type="curve" smooth="yes"/>
      <point x="239" y="291"/>
      <point x="238" y="308"/>
      <point x="235" y="320" type="curve"/>
      <point x="95" y="320" type="line"/>
    </contour>
  </outline>
</glyph>
<glyph name="colon" format="1">
  <advance width="400"/>
  <unicode hex="003A"/>
  <outline>
    <contour>
      <point x="147" y="148"/>
      <point x="146" y="131"/>
      <point x="146" y="120" type="curve" smooth="yes"/>
      <point x="146" y="109"/>
      <point x="147" y="93"/>
      <point x="150" y="80" type="curve"/>
      <point x="250" y="80" type="line"/>
      <point x="253" y="93"/>
      <point x="254" y="109"/>
      <point x="254" y="120" type="curve" smooth="yes"/>
      <point x="254" y="131"/>
      <point x="253" y="148"/>
      <point x="250" y="160" type="curve"/>
      <point x="150" y="160" type="line"/>
    </contour>
    <contour>
      <point x="147" y="68"/>
      <point x="146" y="51"/>
      <point x="146" y="40" type="curve" smooth="yes"/>
      <point x="146" y="29"/>
      <point x="147" y="13"/>
      <point x="150" y="0" type="curve"/>
      <point x="250" y="0" type="line"/>
      <point x="253" y="13"/>
      <point x="254" y="29"/>
      <point x="254" y="40" type="curve" smooth="yes"/>
      <point x="254" y="51"/>
      <point x="253" y="68"/>
      <point x="250" y="80" type="curve"/>
      <point x="150" y="80" type="line"/>
    </contour>
    <contour>
      <point x="147" y="468"/>
      <point x="146" y="451"/>
      <point x="146" y="440" type="curve" smooth="yes"/>
      <point x="146" y="429"/>
      <point x="147" y="413"/>
      <point x="150" y="400" type="curve"/>
      <point x="250" y="400" type="line"/>
      <point x="253" y="413"/>
      <point x="254" y="429"/>
      <point x="254" y="440" type="curve" smooth="yes"/>
      <point x="254" y="451"/>
      <point x="253" y="468"/>
      <point x="250" y="480" type="curve"/>
      <point x="150" y="480" type="line"/>
    </contour>
    <contour>
      <point x="147" y="388"/>
      <point x="146" y="371"/>
      <point x="146" y="360" type="curve" smooth="yes"/>
      <point x="146" y="349"/>
      <point x="147" y="333"/>
      <point x="150" y="320" type="curve"/>
      <point x="250" y="320" type="line"/>
      <point x="253" y="333"/>
      <point x="254" y="349"/>
      <point x="254" y="360" type="curve" smooth="yes"/>
      <point x="254" y="371"/>
      <point x="253" y="388"/>
      <point x="250" y="400" type="curve"/>
      <point x="150" y="400" type="line"/>
    </contour>
  </outline>
</glyph>
<glyph name="at" format="1">
  <advance width="400"/>
  <unicode hex="0040"/>
  <outline>
    <contour>
      <point x="37" y="468"/>
      <point x="36" y="451"/>
      <point x="36" y="440" type="curve" smooth="yes"/>
      <point x="36" y="429"/>
      <point x="37" y="413"/>
      <point x="40" y="400" type="curve"/>
      <point x="100" y="400" type="line"/>
      <point x="103" y="413"/>
      <point x="104" y="429"/>
      <point x="104" y="440" type="curve" smooth="yes"/>
      <point x="104" y="451"/>
      <point x="103" y="468"/>
      <point x="100" y="480" type="curve"/>
      <point x="40" y="480" type="line"/>
    </contour>
    <contour>
      <point x="117" y="68"/>
      <point x="116" y="51"/>
      <point x="116" y="40" type="curve" smooth="yes"/>
      <point x="116" y="29"/>
      <point x="117" y="13"/>
      <point x="120" y="0" type="curve"/>
      <point x="200" y="0" type="line"/>
      <point x="203" y="13"/>
      <point x="204" y="29"/>
      <point x="204" y="40" type="curve" smooth="yes"/>
      <point x="204" y="51"/>
      <point x="203" y="68"/>
      <point x="200" y="80" type="curve"/>
      <point x="120" y="80" type="line"/>
    </contour>
    <contour>
      <point x="117" y="628"/>
      <point x="116" y="611"/>
      <point x="116" y="600" type="curve" smooth="yes"/>
      <point x="116" y="589"/>
      <point x="117" y="573"/>
      <point x="120" y="560" type="curve"/>
      <point x="200" y="560" type="line"/>
      <point x="203" y="573"/>
      <point x="204" y="589"/>
      <point x="204" y="600" type="curve" smooth="yes"/>
      <point x="204" y="611"/>
      <point x="203" y="628"/>
      <point x="200" y="640" type="curve"/>
      <point x="120" y="640" type="line"/>
    </contour>
    <contour>
      <point x="197" y="68"/>
      <point x="196" y="51"/>
      <point x="196" y="40" type="curve" smooth="yes"/>
      <point x="196" y="29"/>
      <point x="197" y="13"/>
      <point x="200" y="0" type="curve"/>
      <point x="320" y="0" type="line"/>
      <point x="323" y="13"/>
      <point x="324" y="29"/>
      <point x="324" y="40" type="curve" smooth="yes"/>
      <point x="324" y="51"/>
      <point x="323" y="68"/>
      <point x="320" y="80" type="curve"/>
      <point x="200" y="80" type="line"/>
    </contour>
    <contour>
      <point x="197" y="628"/>
      <point x="196" y="611"/>
      <point x="196" y="600" type="curve" smooth="yes"/>
      <point x="196" y="589"/>
      <point x="197" y="573"/>
      <point x="200" y="560" type="curve"/>
      <point x="280" y="560" type="line"/>
      <point x="283" y="573"/>
      <point x="284" y="589"/>
      <point x="284" y="600" type="curve" smooth="yes"/>
      <point x="284" y="611"/>
      <point x="283" y="628"/>
      <point x="280" y="640" type="curve"/>
      <point x="200" y="640" type="line"/>
    </contour>
    <contour>
      <point x="197" y="468"/>
      <point x="196" y="451"/>
      <point x="196" y="440" type="curve" smooth="yes"/>
      <point x="196" y="429"/>
      <point x="197" y="413"/>
      <point x="200" y="400" type="curve"/>
      <point x="360" y="400" type="line"/>
      <point x="363" y="413"/>
      <point x="364" y="429"/>
      <point x="364" y="440" type="curve" smooth="yes"/>
      <point x="364" y="451"/>
      <point x="363" y="468"/>
      <point x="360" y="480" type="curve"/>
      <point x="200" y="480" type="line"/>
    </contour>
    <contour>
      <point x="37" y="388"/>
      <point x="36" y="371"/>
      <point x="36" y="360" type="curve" smooth="yes"/>
      <point x="36" y="349"/>
      <point x="37" y="333"/>
      <point x="40" y="320" type="curve"/>
      <point x="100" y="320" type="line"/>
      <point x="103" y="333"/>
      <point x="104" y="349"/>
      <point x="104" y="360" type="curve" smooth="yes"/>
      <point x="104" y="371"/>
      <point x="103" y="388"/>
      <point x="100" y="400" type="curve"/>
      <point x="40" y="400" type="line"/>
    </contour>
    <contour>
      <point x="37" y="308"/>
      <point x="36" y="291"/>
      <point x="36" y="280" type="curve" smooth="yes"/>
      <point x="36" y="269"/>
      <point x="37" y="253"/>
      <point x="40" y="240" type="curve"/>
      <point x="100" y="240" type="line"/>
      <point x="103" y="253"/>
      <point x="104" y="269"/>
      <point x="104" y="280" type="curve" smooth="yes"/>
      <point x="104" y="291"/>
      <point x="103" y="308"/>
      <point x="100" y="320" type="curve"/>
      <point x="40" y="320" type="line"/>
    </contour>
    <contour>
      <point x="37" y="228"/>
      <point x="36" y="211"/>
      <point x="36" y="200" type="curve" smooth="yes"/>
      <point x="36" y="189"/>
      <point x="37" y="173"/>
      <point x="40" y="160" type="curve"/>
      <point x="100" y="160" type="line"/>
      <point x="103" y="173"/>
      <point x="104" y="189"/>
      <point x="104" y="200" type="curve" smooth="yes"/>
      <point x="104" y="211"/>
      <point x="103" y="228"/>
      <point x="100" y="240" type="curve"/>
      <point x="40" y="240" type="line"/>
    </contour>
    <contour>
      <point x="77" y="148"/>
      <point x="76" y="131"/>
      <point x="76" y="120" type="curve" smooth="yes"/>
      <point x="76" y="109"/>
      <point x="77" y="93"/>
      <point x="80" y="80" type="curve"/>
      <point x="140" y="80" type="line"/>
      <point x="143" y="93"/>
      <point x="144" y="109"/>
      <point x="144" y="120" type="curve" smooth="yes"/>
      <point x="144" y="131"/>
      <point x="143" y="148"/>
      <point x="140" y="160" type="curve"/>
      <point x="80" y="160" type="line"/>
    </contour>
    <contour>
      <point x="77" y="548"/>
      <point x="76" y="531"/>
      <point x="76" y="520" type="curve" smooth="yes"/>
      <point x="76" y="509"/>
      <point x="77" y="493"/>
      <point x="80" y="480" type="curve"/>
      <point x="140" y="480" type="line"/>
      <point x="143" y="493"/>
      <point x="144" y="509"/>
      <point x="144" y="520" type="curve" smooth="yes"/>
      <point x="144" y="531"/>
      <point x="143" y="548"/>
      <point x="140" y="560" type="curve"/>
      <point x="80" y="560" type="line"/>
    </contour>
    <contour>
      <point x="237" y="548"/>
      <point x="236" y="531"/>
      <point x="236" y="520" type="curve" smooth="yes"/>
      <point x="236" y="509"/>
      <point x="237" y="493"/>
      <point x="240" y="480" type="curve"/>
      <point x="320" y="480" type="line"/>
      <point x="323" y="493"/>
      <point x="324" y="509"/>
      <point x="324" y="520" type="curve" smooth="yes"/>
      <point x="324" y="531"/>
      <point x="323" y="548"/>
      <point x="320" y="560" type="curve"/>
      <point x="240" y="560" type="line"/>
    </contour>
    <contour>
      <point x="167" y="388"/>
      <point x="166" y="371"/>
      <point x="166" y="360" type="curve" smooth="yes"/>
      <point x="166" y="349"/>
      <point x="167" y="333"/>
      <point x="170" y="320" type="curve"/>
      <point x="230" y="320" type="line"/>
      <point x="233" y="333"/>
      <point x="234" y="349"/>
      <point x="234" y="360" type="curve" smooth="yes"/>
      <point x="234" y="371"/>
      <point x="233" y="388"/>
      <point x="230" y="400" type="curve"/>
      <point x="170" y="400" type="line"/>
    </contour>
    <contour>
      <point x="167" y="308"/>
      <point x="166" y="291"/>
      <point x="166" y="280" type="curve" smooth="yes"/>
      <point x="166" y="269"/>
      <point x="167" y="253"/>
      <point x="170" y="240" type="curve"/>
      <point x="230" y="240" type="line"/>
      <point x="233" y="253"/>
      <point x="234" y="269"/>
      <point x="234" y="280" type="curve" smooth="yes"/>
      <point x="234" y="291"/>
      <point x="233" y="308"/>
      <point x="230" y="320" type="curve"/>
      <point x="170" y="320" type="line"/>
    </contour>
    <contour>
      <point x="297" y="388"/>
      <point x="296" y="371"/>
      <point x="296" y="360" type="curve" smooth="yes"/>
      <point x="296" y="349"/>
      <point x="297" y="333"/>
      <point x="300" y="320" type="curve"/>
      <point x="360" y="320" type="line"/>
      <point x="363" y="333"/>
      <point x="364" y="349"/>
      <point x="364" y="360" type="curve" smooth="yes"/>
      <point x="364" y="371"/>
      <point x="363" y="388"/>
      <point x="360" y="400" type="curve"/>
      <point x="300" y="400" type="line"/>
    </contour>
    <contour>
      <point x="297" y="308"/>
      <point x="296" y="291"/>
      <point x="296" y="280" type="curve" smooth="yes"/>
      <point x="296" y="269"/>
      <point x="297" y="253"/>
      <point x="300" y="240" type="curve"/>
      <point x="360" y="240" type="line"/>
      <point x="363" y="253"/>
      <point x="364" y="269"/>
      <point x="364" y="280" type="curve" smooth="yes"/>
      <point x="364" y="291"/>
      <point x="363" y="308"/>
      <point x="360" y="320" type="curve"/>
      <point x="300" y="320" type="line"/>
    </contour>
    <contour>
      <point x="197" y="228"/>
      <point x="196" y="211"/>
      <point x="196" y="200" type="curve" smooth="yes"/>
      <point x="196" y="189"/>
      <point x="197" y="173"/>
      <point x="200" y="160" type="curve"/>
      <point x="360" y="160" type="line"/>
      <point x="363" y="173"/>
      <point x="364" y="189"/>
      <point x="364" y="200" type="curve" smooth="yes"/>
      <point x="364" y="211"/>
      <point x="363" y="228"/>
      <point x="360" y="240" type="curve"/>
      <point x="200" y="240" type="line"/>
    </contour>
  </outline>
</glyph>
<glyph name="A" format="1">
  <advance width="400"/>
  <unicode hex="0041"/>
  <outline>
    <contour>
      <point x="37" y="68"/>
      <point x="36" y="51"/>
      <point x="36" y="40" type="curve" smooth="yes"/>
      <point x="36" y="29"/>
      <point x="37" y="13"/>
      <point x="40" y="0" type="curve"/>
      <point x="120" y="0" type="line"/>
      <point x="123" y="13"/>
      <point x="124" y="29"/>
      <point x="124" y="40" type="curve" smooth="yes"/>
      <point x="124" y="51"/>
      <point x="123" y="68"/>
      <point x="120" y="80" type="curve"/>
      <point x="40" y="80" type="line"/>
    </contour>
    <contour>
      <point x="37" y="148"/>
      <point x="36" y="131"/>
      <point x="36" y="120" type="curve" smooth="yes"/>
      <point x="36" y="109"/>
      <point x="37" y="93"/>
      <point x="40" y="80" type="curve"/>
      <point x="120" y="80" type="line"/>
      <point x="123" y="93"/>
      <point x="124" y="109"/>
      <point x="124" y="120" type="curve" smooth="yes"/>
      <point x="124" y="131"/>
      <point x="123" y="148"/>
      <point x="120" y="160" type="curve"/>
      <point x="40" y="160" type="line"/>
    </contour>
    <contour>
      <point x="67" y="308"/>
      <point x="66" y="291"/>
      <point x="66" y="280" type="curve" smooth="yes"/>
      <point x="66" y="269"/>
      <point x="67" y="253"/>
      <point x="70" y="240" type="curve"/>
      <point x="150" y="240" type="line"/>
      <point x="153" y="253"/>
      <point x="154" y="269"/>
      <point x="154" y="280" type="curve" smooth="yes"/>
      <point x="154" y="291"/>
      <point x="153" y="308"/>
      <point x="150" y="320" type="curve"/>
      <point x="70" y="320" type="line"/>
    </contour>
    <contour>
      <point x="87" y="388"/>
      <point x="86" y="371"/>
      <point x="86" y="360" type="curve" smooth="yes"/>
      <point x="86" y="349"/>
      <point x="87" y="333"/>
      <point x="90" y="320" type="curve"/>
      <point x="170" y="320" type="line"/>
      <point x="173" y="333"/>
      <point x="174" y="349"/>
      <point x="174" y="360" type="curve" smooth="yes"/>
      <point x="174" y="371"/>
      <point x="173" y="388"/>
      <point x="170" y="400" type="curve"/>
      <point x="90" y="400" type="line"/>
    </contour>
    <contour>
      <point x="67" y="228"/>
      <point x="66" y="211"/>
      <point x="66" y="200" type="curve" smooth="yes"/>
      <point x="66" y="189"/>
      <point x="67" y="173"/>
      <point x="70" y="160" type="curve"/>
      <point x="200" y="160" type="line"/>
      <point x="203" y="173"/>
      <point x="204" y="189"/>
      <point x="204" y="200" type="curve" smooth="yes"/>
      <point x="204" y="211"/>
      <point x="203" y="228"/>
      <point x="200" y="240" type="curve"/>
      <point x="70" y="240" type="line"/>
    </contour>
    <contour>
      <point x="117" y="468"/>
      <point x="116" y="451"/>
      <point x="116" y="440" type="curve" smooth="yes"/>
      <point x="116" y="429"/>
      <point x="117" y="413"/>
      <point x="120" y="400" type="curve"/>
      <point x="280" y="400" type="line"/>
      <point x="283" y="413"/>
      <point x="284" y="429"/>
      <point x="284" y="440" type="curve" smooth="yes"/>
      <point x="284" y="451"/>
      <point x="283" y="468"/>
      <point x="280" y="480" type="curve"/>
      <point x="120" y="480" type="line"/>
    </contour>
    <contour>
      <point x="227" y="388"/>
      <point x="226" y="371"/>
      <point x="226" y="360" type="curve" smooth="yes"/>
      <point x="226" y="349"/>
      <point x="227" y="333"/>
      <point x="230" y="320" type="curve"/>
      <point x="310" y="320" type="line"/>
      <point x="313" y="333"/>
      <point x="314" y="349"/>
      <point x="314" y="360" type="curve" smooth="yes"/>
      <point x="314" y="371"/>
      <point x="313" y="388"/>
      <point x="310" y="400" type="curve"/>
      <point x="230" y="400" type="line"/>
    </contour>
    <contour>
      <point x="247" y="308"/>
      <point x="246" y="291"/>
      <point x="246" y="280" type="curve" smooth="yes"/>
      <point x="246" y="269"/>
      <point x="247" y="253"/>
      <point x="250" y="240" type="curve"/>
      <point x="330" y="240" type="line"/>
      <point x="333" y="253"/>
      <point x="334" y="269"/>
      <point x="334" y="280" type="curve" smooth="yes"/>
      <point x="334" y="291"/>
      <point x="333" y="308"/>
      <point x="330" y="320" type="curve"/>
      <point x="250" y="320" type="line"/>
    </contour>
    <contour>
      <point x="197" y="228"/>
      <point x="196" y="211"/>
      <point x="196" y="200" type="curve" smooth="yes"/>
      <point x="196" y="189"/>
      <point x="197" y="173"/>
      <point x="200" y="160" type="curve"/>
      <point x="330" y="160" type="line"/>
      <point x="333" y="173"/>
      <point x="334" y="189"/>
      <point x="334" y="200" type="curve" smooth="yes"/>
      <point x="334" y="211"/>
      <point x="333" y="228"/>
      <point x="330" y="240" type="curve"/>
      <point x="200" y="240" type="line"/>
    </contour>
    <contour>
      <point x="277" y="68"/>
      <point x="276" y="51"/>
      <point x="276" y="40" type="curve" smooth="yes"/>
      <point x="276" y="29"/>
      <point x="277" y="13"/>
      <point x="280" y="0" type="curve"/>
      <point x="360" y="0" type="line"/>
      <point x="363" y="13"/>
      <point x="364" y="29"/>
      <point x="364" y="40" type="curve" smooth="yes"/>
      <point x="364" y="51"/>
      <point x="363" y="68"/>
      <point x="360" y="80" type="curve"/>
      <point x="280" y="80" type="line"/>
    </contour>
    <contour>
      <point x="277" y="148"/>
      <point x="276" y="131"/>
      <point x="276" y="120" type="curve" smooth="yes"/>
      <point x="276" y="109"/>
      <point x="277" y="93"/>
      <point x="280" y="80" type="curve"/>
      <point x="360" y="80" type="line"/>
      <point x="363" y="93"/>
      <point x="364" y="109"/>
      <point x="364" y="120" type="curve" smooth="yes"/>
      <point x="364" y="131"/>
      <point x="363" y="148"/>
      <point x="360" y="160" type="curve"/>
      <point x="280" y="160" type="line"/>
    </contour>
    <contour>
      <point x="137" y="548"/>
      <point x="136" y="531"/>
      <point x="136" y="520" type="curve" smooth="yes"/>
      <point x="136" y="509"/>
      <point x="137" y="493"/>
      <point x="140" y="480" type="curve"/>
      <point x="260" y="480" type="line"/>
      <point x="263" y="493"/>
      <point x="264" y="509"/>
      <point x="264" y="520" type="curve" smooth="yes"/>
      <point x="264" y="531"/>
      <point x="263" y="548"/>
      <point x="260" y="560" type="curve"/>
      <point x="140" y="560" type="line"/>
    </contour>
    <contour>
      <point x="340" y="10" type="move" name="ogonek"/>
    </contour>
    <contour>
      <point x="200" y="0" type="move" name="bottom"/>
    </contour>
    <contour>
      <point x="200" y="560" type="move" name="top"/>
    </contour>
  </outline>
</glyph>
<glyph name="K" format="1">
  <advance width="400"/>
  <unicode hex="004B"/>
  <outline>
    <contour>
      <point x="37" y="148"/>
      <point x="36" y="131"/>
      <point x="36" y="120" type="curve" smooth="yes"/>
      <point x="36" y="109"/>
      <point x="37" y="93"/>
      <point x="40" y="80" type="curve"/>
      <point x="120" y="80" type="line"/>
      <point x="123" y="93"/>
      <point x="124" y="109"/>
      <point x="124" y="120" type="curve" smooth="yes"/>
      <point x="124" y="131"/>
      <point x="123" y="148"/>
      <point x="120" y="160" type="curve"/>
      <point x="40" y="160" type="line"/>
    </contour>
    <contour>
      <point x="37" y="68"/>
      <point x="36" y="51"/>
      <point x="36" y="40" type="curve" smooth="yes"/>
      <point x="36" y="29"/>
      <point x="37" y="13"/>
      <point x="40" y="0" type="curve"/>
      <point x="120" y="0" type="line"/>
      <point x="123" y="13"/>
      <point x="124" y="29"/>
      <point x="124" y="40" type="curve" smooth="yes"/>
      <point x="124" y="51"/>
      <point x="123" y="68"/>
      <point x="120" y="80" type="curve"/>
      <point x="40" y="80" type="line"/>
    </contour>
    <contour>
      <point x="37" y="228"/>
      <point x="36" y="211"/>
      <point x="36" y="200" type="curve" smooth="yes"/>
      <point x="36" y="189"/>
      <point x="37" y="173"/>
      <point x="40" y="160" type="curve"/>
      <point x="120" y="160" type="line"/>
      <point x="123" y="173"/>
      <point x="124" y="189"/>
      <point x="124" y="200" type="curve" smooth="yes"/>
      <point x="124" y="211"/>
      <point x="123" y="228"/>
      <point x="120" y="240" type="curve"/>
      <point x="40" y="240" type="line"/>
    </contour>
    <contour>
      <point x="37" y="308"/>
      <point x="36" y="291"/>
      <point x="36" y="280" type="curve" smooth="yes"/>
      <point x="36" y="269"/>
      <point x="37" y="253"/>
      <point x="40" y="240" type="curve"/>
      <point x="120" y="240" type="line"/>
      <point x="123" y="253"/>
      <point x="124" y="269"/>
      <point x="124" y="280" type="curve" smooth="yes"/>
      <point x="124" y="291"/>
      <point x="123" y="308"/>
      <point x="120" y="320" type="curve"/>
      <point x="40" y="320" type="line"/>
    </contour>
    <contour>
      <point x="37" y="388"/>
      <point x="36" y="371"/>
      <point x="36" y="360" type="curve" smooth="yes"/>
      <point x="36" y="349"/>
      <point x="37" y="333"/>
      <point x="40" y="320" type="curve"/>
      <point x="120" y="320" type="line"/>
      <point x="123" y="333"/>
      <point x="124" y="349"/>
      <point x="124" y="360" type="curve" smooth="yes"/>
      <point x="124" y="371"/>
      <point x="123" y="388"/>
      <point x="120" y="400" type="curve"/>
      <point x="40" y="400" type="line"/>
    </contour>
    <contour>
      <point x="37" y="468"/>
      <point x="36" y="451"/>
      <point x="36" y="440" type="curve" smooth="yes"/>
      <point x="36" y="429"/>
      <point x="37" y="413"/>
      <point x="40" y="400" type="curve"/>
      <point x="120" y="400" type="line"/>
      <point x="123" y="413"/>
      <point x="124" y="429"/>
      <point x="124" y="440" type="curve" smooth="yes"/>
      <point x="124" y="451"/>
      <point x="123" y="468"/>
      <point x="120" y="480" type="curve"/>
      <point x="40" y="480" type="line"/>
    </contour>
    <contour>
      <point x="37" y="548"/>
      <point x="36" y="531"/>
      <point x="36" y="520" type="curve" smooth="yes"/>
      <point x="36" y="509"/>
      <point x="37" y="493"/>
      <point x="40" y="480" type="curve"/>
      <point x="120" y="480" type="line"/>
      <point x="123" y="493"/>
      <point x="124" y="509"/>
      <point x="124" y="520" type="curve" smooth="yes"/>
      <point x="124" y="531"/>
      <point x="123" y="548"/>
      <point x="120" y="560" type="curve"/>
      <point x="40" y="560" type="line"/>
    </contour>
    <contour>
      <point x="117" y="308"/>
      <point x="116" y="291"/>
      <point x="116" y="280" type="curve" smooth="yes"/>
      <point x="116" y="269"/>
      <point x="117" y="253"/>
      <point x="120" y="240" type="curve"/>
      <point x="220" y="240" type="line"/>
      <point x="223" y="253"/>
      <point x="224" y="269"/>
      <point x="224" y="280" type="curve" smooth="yes"/>
      <point x="224" y="291"/>
      <point x="223" y="308"/>
      <point x="220" y="320" type="curve"/>
      <point x="120" y="320" type="line"/>
    </contour>
    <contour>
      <point x="187" y="388"/>
      <point x="186" y="371"/>
      <point x="186" y="360" type="curve" smooth="yes"/>
      <point x="186" y="349"/>
      <point x="187" y="333"/>
      <point x="190" y="320" type="curve"/>
      <point x="270" y="320" type="line"/>
      <point x="273" y="333"/>
      <point x="274" y="349"/>
      <point x="274" y="360" type="curve" smooth="yes"/>
      <point x="274" y="371"/>
      <point x="273" y="388"/>
      <point x="270" y="400" type="curve"/>
      <point x="190" y="400" type="line"/>
    </contour>
    <contour>
      <point x="187" y="228"/>
      <point x="186" y="211"/>
      <point x="186" y="200" type="curve" smooth="yes"/>
      <point x="186" y="189"/>
      <point x="187" y="173"/>
      <point x="190" y="160" type="curve"/>
      <point x="270" y="160" type="line"/>
      <point x="273" y="173"/>
      <point x="274" y="189"/>
      <point x="274" y="200" type="curve" smooth="yes"/>
      <point x="274" y="211"/>
      <point x="273" y="228"/>
      <point x="270" y="240" type="curve"/>
      <point x="190" y="240" type="line"/>
    </contour>
    <contour>
      <point x="247" y="468"/>
      <point x="246" y="451"/>
      <point x="246" y="440" type="curve" smooth="yes"/>
      <point x="246" y="429"/>
      <point x="247" y="413"/>
      <point x="250" y="400" type="curve"/>
      <point x="330" y="400" type="line"/>
      <point x="333" y="413"/>
      <point x="334" y="429"/>
      <point x="334" y="440" type="curve" smooth="yes"/>
      <point x="334" y="451"/>
      <point x="333" y="468"/>
      <point x="330" y="480" type="curve"/>
      <point x="250" y="480" type="line"/>
    </contour>
    <contour>
      <point x="277" y="548"/>
      <point x="276" y="531"/>
      <point x="276" y="520" type="curve" smooth="yes"/>
      <point x="276" y="509"/>
      <point x="277" y="493"/>
      <point x="280" y="480" type="curve"/>
      <point x="360" y="480" type="line"/>
      <point x="363" y="493"/>
      <point x="364" y="509"/>
      <point x="364" y="520" type="curve" smooth="yes"/>
      <point x="364" y="531"/>
      <point x="363" y="548"/>
      <point x="360" y="560" type="curve"/>
      <point x="280" y="560" type="line"/>
    </contour>
    <contour>
      <point x="247" y="148"/>
      <point x="246" y="131"/>
      <point x="246" y="120" type="curve" smooth="yes"/>
      <point x="246" y="109"/>
      <point x="247" y="93"/>
      <point x="250" y="80" type="curve"/>
      <point x="330" y="80" type="line"/>
      <point x="333" y="93"/>
      <point x="334" y="109"/>
      <point x="334" y="120" type="curve" smooth="yes"/>
      <point x="334" y="131"/>
      <point x="333" y="148"/>
      <point x="330" y="160" type="curve"/>
      <point x="250" y="160" type="line"/>
    </contour>
    <contour>
      <point x="277" y="68"/>
      <point x="276" y="51"/>
      <point x="276" y="40" type="curve" smooth="yes"/>
      <point x="276" y="29"/>
      <point x="277" y="13"/>
      <point x="280" y="0" type="curve"/>
      <point x="360" y="0" type="line"/>
      <point x="363" y="13"/>
      <point x="364" y="29"/>
      <point x="364" y="40" type="curve" smooth="yes"/>
      <point x="364" y="51"/>
      <point x="363" y="68"/>
      <point x="360" y="80" type="curve"/>
      <point x="280" y="80" type="line"/>
    </contour>
    <contour>
      <point x="200" y="560" type="move" name="top"/>
    </contour>
    <contour>
      <point x="200" y="0" type="move" name="bottom"/>
    </contour>
  </outline>
</glyph>
<glyph name="bracketleft" format="1">
  <advance width="400"/>
  <unicode hex="005B"/>
  <outline>
    <contour>
      <point x="137" y="68"/>
      <point x="136" y="51"/>
      <point x="136" y="40" type="curve" smooth="yes"/>
      <point x="136" y="29"/>
      <point x="137" y="13"/>
      <point x="140" y="0" type="curve"/>
      <point x="220" y="0" type="line"/>
      <point x="223" y="13"/>
      <point x="224" y="29"/>
      <point x="224" y="40" type="curve" smooth="yes"/>
      <point x="224" y="51"/>
      <point x="223" y="68"/>
      <point x="220" y="80" type="curve"/>
      <point x="140" y="80" type="line"/>
    </contour>
    <contour>
      <point x="137" y="148"/>
      <point x="136" y="131"/>
      <point x="136" y="120" type="curve" smooth="yes"/>
      <point x="136" y="109"/>
      <point x="137" y="93"/>
      <point x="140" y="80" type="curve"/>
      <point x="220" y="80" type="line"/>
      <point x="223" y="93"/>
      <point x="224" y="109"/>
      <point x="224" y="120" type="curve" smooth="yes"/>
      <point x="224" y="131"/>
      <point x="223" y="148"/>
      <point x="220" y="160" type="curve"/>
      <point x="140" y="160" type="line"/>
    </contour>
    <contour>
      <point x="137" y="228"/>
      <point x="136" y="211"/>
      <point x="136" y="200" type="curve" smooth="yes"/>
      <point x="136" y="189"/>
      <point x="137" y="173"/>
      <point x="140" y="160" type="curve"/>
      <point x="220" y="160" type="line"/>
      <point x="223" y="173"/>
      <point x="224" y="189"/>
      <point x="224" y="200" type="curve" smooth="yes"/>
      <point x="224" y="211"/>
      <point x="223" y="228"/>
      <point x="220" y="240" type="curve"/>
      <point x="140" y="240" type="line"/>
    </contour>
    <contour>
      <point x="137" y="308"/>
      <point x="136" y="291"/>
      <point x="136" y="280" type="curve" smooth="yes"/>
      <point x="136" y="269"/>
      <point x="137" y="253"/>
      <point x="140" y="240" type="curve"/>
      <point x="220" y="240" type="line"/>
      <point x="223" y="253"/>
      <point x="224" y="269"/>
      <point x="224" y="280" type="curve" smooth="yes"/>
      <point x="224" y="291"/>
      <point x="223" y="308"/>
      <point x="220" y="320" type="curve"/>
      <point x="140" y="320" type="line"/>
    </contour>
    <contour>
      <point x="137" y="388"/>
      <point x="136" y="371"/>
      <point x="136" y="360" type="curve" smooth="yes"/>
      <point x="136" y="349"/>
      <point x="137" y="333"/>
      <point x="140" y="320" type="curve"/>
      <point x="220" y="320" type="line"/>
      <point x="223" y="333"/>
      <point x="224" y="349"/>
      <point x="224" y="360" type="curve" smooth="yes"/>
      <point x="224" y="371"/>
      <point x="223" y="388"/>
      <point x="220" y="400" type="curve"/>
      <point x="140" y="400" type="line"/>
    </contour>
    <contour>
      <point x="137" y="468"/>
      <point x="136" y="451"/>
      <point x="136" y="440" type="curve" smooth="yes"/>
      <point x="136" y="429"/>
      <point x="137" y="413"/>
      <point x="140" y="400" type="curve"/>
      <point x="220" y="400" type="line"/>
      <point x="223" y="413"/>
      <point x="224" y="429"/>
      <point x="224" y="440" type="curve" smooth="yes"/>
      <point x="224" y="451"/>
      <point x="223" y="468"/>
      <point x="220" y="480" type="curve"/>
      <point x="140" y="480" type="line"/>
    </contour>
    <contour>
      <point x="137" y="548"/>
      <point x="136" y="531"/>
      <point x="136" y="520" type="curve" smooth="yes"/>
      <point x="136" y="509"/>
      <point x="137" y="493"/>
      <point x="140" y="480" type="curve"/>
      <point x="220" y="480" type="line"/>
      <point x="223" y="493"/>
      <point x="224" y="509"/>
      <point x="224" y="520" type="curve" smooth="yes"/>
      <point x="224" y="531"/>
      <point x="223" y="548"/>
      <point x="220" y="560" type="curve"/>
      <point x="140" y="560" type="line"/>
    </contour>
    <contour>
      <point x="137" y="628"/>
      <point x="136" y="611"/>
      <point x="136" y="600" type="curve" smooth="yes"/>
      <point x="136" y="589"/>
      <point x="137" y="573"/>
      <point x="140" y="560" type="curve"/>
      <point x="280" y="560" type="line"/>
      <point x="283" y="573"/>
      <point x="284" y="589"/>
      <point x="284" y="600" type="curve" smooth="yes"/>
      <point x="284" y="611"/>
      <point x="283" y="628"/>
      <point x="280" y="640" type="curve"/>
      <point x="140" y="640" type="line"/>
    </contour>
    <contour>
      <point x="137" y="-12"/>
      <point x="136" y="-29"/>
      <point x="136" y="-40" type="curve" smooth="yes"/>
      <point x="136" y="-51"/>
      <point x="137" y="-67"/>
      <point x="140" y="-80" type="curve"/>
      <point x="280" y="-80" type="line"/>
      <point x="283" y="-67"/>
      <point x="284" y="-51"/>
      <point x="284" y="-40" type="curve" smooth="yes"/>
      <point x="284" y="-29"/>
      <point x="283" y="-12"/>
      <point x="280" y="0" type="curve"/>
      <point x="140" y="0" type="line"/>
    </contour>
  </outline>
</glyph>
<glyph name="bracketright" format="1">
  <advance width="400"/>
  <unicode hex="005D"/>
  <outline>
    <contour>
      <point x="177" y="68"/>
      <point x="176" y="51"/>
      <point x="176" y="40" type="curve" smooth="yes"/>
      <point x="176" y="29"/>
      <point x="177" y="13"/>
      <point x="180" y="0" type="curve"/>
      <point x="260" y="0" type="line"/>
      <point x="263" y="13"/>
      <point x="264" y="29"/>
      <point x="264" y="40" type="curve" smooth="yes"/>
      <point x="264" y="51"/>
      <point x="263" y="68"/>
      <point x="260" y="80" type="curve"/>
      <point x="180" y="80" type="line"/>
    </contour>
    <contour>
      <point x="177" y="148"/>
      <point x="176" y="131"/>
      <point x="176" y="120" type="curve" smooth="yes"/>
      <point x="176" y="109"/>
      <point x="177" y="93"/>
      <point x="180" y="80" type="curve"/>
      <point x="260" y="80" type="line"/>
      <point x="263" y="93"/>
      <point x="264" y="109"/>
      <point x="264" y="120" type="curve" smooth="yes"/>
      <point x="264" y="131"/>
      <point x="263" y="148"/>
      <point x="260" y="160" type="curve"/>
      <point x="180" y="160" type="line"/>
    </contour>
    <contour>
      <point x="177" y="228"/>
      <point x="176" y="211"/>
      <point x="176" y="200" type="curve" smooth="yes"/>
      <point x="176" y="189"/>
      <point x="177" y="173"/>
      <point x="180" y="160" type="curve"/>
      <point x="260" y="160" type="line"/>
      <point x="263" y="173"/>
      <point x="264" y="189"/>
      <point x="264" y="200" type="curve" smooth="yes"/>
      <point x="264" y="211"/>
      <point x="263" y="228"/>
      <point x="260" y="240" type="curve"/>
      <point x="180" y="240" type="line"/>
    </contour>
    <contour>
      <point x="177" y="308"/>
      <point x="176" y="291"/>
      <point x="176" y="280" type="curve" smooth="yes"/>
      <point x="176" y="269"/>
      <point x="177" y="253"/>
      <point x="180" y="240" type="curve"/>
      <point x="260" y="240" type="line"/>
      <point x="263" y="253"/>
      <point x="264" y="269"/>
      <point x="264" y="280" type="curve" smooth="yes"/>
      <point x="264" y="291"/>
      <point x="263" y="308"/>
      <point x="260" y="320" type="curve"/>
      <point x="180" y="320" type="line"/>
    </contour>
    <contour>
      <point x="177" y="388"/>
      <point x="176" y="371"/>
      <point x="176" y="360" type="curve" smooth="yes"/>
      <point x="176" y="349"/>
      <point x="177" y="333"/>
      <point x="180" y="320" type="curve"/>
      <point x="260" y="320" type="line"/>
      <point x="263" y="333"/>
      <point x="264" y="349"/>
      <point x="264" y="360" type="curve" smooth="yes"/>
      <point x="264" y="371"/>
      <point x="263" y="388"/>
      <point x="260" y="400" type="curve"/>
      <point x="180" y="400" type="line"/>
    </contour>
    <contour>
      <point x="177" y="468"/>
      <point x="176" y="451"/>
      <point x="176" y="440" type="curve" smooth="yes"/>
      <point x="176" y="429"/>
      <point x="177" y="413"/>
      <point x="180" y="400" type="curve"/>
      <point x="260" y="400" type="line"/>
      <point x="263" y="413"/>
      <point x="264" y="429"/>
      <point x="264" y="440" type="curve" smooth="yes"/>
      <point x="264" y="451"/>
      <point x="263" y="468"/>
      <point x="260" y="480" type="curve"/>
      <point x="180" y="480" type="line"/>
    </contour>
    <contour>
      <point x="177" y="548"/>
      <point x="176" y="531"/>
      <point x="176" y="520" type="curve" smooth="yes"/>
      <point x="176" y="509"/>
      <point x="177" y="493"/>
      <point x="180" y="480" type="curve"/>
      <point x="260" y="480" type="line"/>
      <point x="263" y="493"/>
      <point x="264" y="509"/>
      <point x="264" y="520" type="curve" smooth="yes"/>
      <point x="264" y="531"/>
      <point x="263" y="548"/>
      <point x="260" y="560" type="curve"/>
      <point x="180" y="560" type="line"/>
    </contour>
    <contour>
      <point x="117" y="628"/>
      <point x="116" y="611"/>
      <point x="116" y="600" type="curve" smooth="yes"/>
      <point x="116" y="589"/>
      <point x="117" y="573"/>
      <point x="120" y="560" type="curve"/>
      <point x="260" y="560" type="line"/>
      <point x="263" y="573"/>
      <point x="264" y="589"/>
      <point x="264" y="600" type="curve" smooth="yes"/>
      <point x="264" y="611"/>
      <point x="263" y="628"/>
      <point x="260" y="640" type="curve"/>
      <point x="120" y="640" type="line"/>
    </contour>
    <contour>
      <point x="117" y="-12"/>
      <point x="116" y="-29"/>
      <point x="116" y="-40" type="curve" smooth="yes"/>
      <point x="116" y="-51"/>
      <point x="117" y="-67"/>
      <point x="120" y="-80" type="curve"/>
      <point x="260" y="-80" type="line"/>
      <point x="263" y="-67"/>
      <point x="264" y="-51"/>
      <point x="264" y="-40" type="curve" smooth="yes"/>
      <point x="264" y="-29"/>
      <point x="263" y="-12"/>
      <point x="260" y="0" type="curve"/>
      <point x="120" y="0" type="line"/>
    </contour>
  </outline>
</glyph>
<glyph name="d" format="1">
  <advance width="400"/>
  <unicode hex="0064"/>
  <outline>
    <contour>
      <point x="67" y="148"/>
      <point x="66" y="131"/>
      <point x="66" y="120" type="curve" smooth="yes"/>
      <point x="66" y="109"/>
      <point x="67" y="93"/>
      <point x="70" y="80" type="curve"/>
      <point x="130" y="80" type="line"/>
      <point x="133" y="93"/>
      <point x="134" y="109"/>
      <point x="134" y="120" type="curve" smooth="yes"/>
      <point x="134" y="131"/>
      <point x="133" y="148"/>
      <point x="130" y="160" type="curve"/>
      <point x="70" y="160" type="line"/>
    </contour>
    <contour>
      <point x="37" y="228"/>
      <point x="36" y="211"/>
      <point x="36" y="200" type="curve" smooth="yes"/>
      <point x="36" y="189"/>
      <point x="37" y="173"/>
      <point x="40" y="160" type="curve"/>
      <point x="100" y="160" type="line"/>
      <point x="103" y="173"/>
      <point x="104" y="189"/>
      <point x="104" y="200" type="curve" smooth="yes"/>
      <point x="104" y="211"/>
      <point x="103" y="228"/>
      <point x="100" y="240" type="curve"/>
      <point x="40" y="240" type="line"/>
    </contour>
    <contour>
      <point x="67" y="308"/>
      <point x="66" y="291"/>
      <point x="66" y="280" type="curve" smooth="yes"/>
      <point x="66" y="269"/>
      <point x="67" y="253"/>
      <point x="70" y="240" type="curve"/>
      <point x="130" y="240" type="line"/>
      <point x="133" y="253"/>
      <point x="134" y="269"/>
      <point x="134" y="280" type="curve" smooth="yes"/>
      <point x="134" y="291"/>
      <point x="133" y="308"/>
      <point x="130" y="320" type="curve"/>
      <point x="70" y="320" type="line"/>
    </contour>
    <contour>
      <point x="277" y="388"/>
      <point x="276" y="371"/>
      <point x="276" y="360" type="curve" smooth="yes"/>
      <point x="276" y="349"/>
      <point x="277" y="333"/>
      <point x="280" y="320" type="curve"/>
      <point x="360" y="320" type="line"/>
      <point x="363" y="333"/>
      <point x="364" y="349"/>
      <point x="364" y="360" type="curve" smooth="yes"/>
      <point x="364" y="371"/>
      <point x="363" y="388"/>
      <point x="360" y="400" type="curve"/>
      <point x="280" y="400" type="line"/>
    </contour>
    <contour>
      <point x="117" y="68"/>
      <point x="116" y="51"/>
      <point x="116" y="40" type="curve" smooth="yes"/>
      <point x="116" y="29"/>
      <point x="117" y="13"/>
      <point x="120" y="0" type="curve"/>
      <point x="250" y="0" type="line"/>
      <point x="253" y="13"/>
      <point x="254" y="29"/>
      <point x="254" y="40" type="curve" smooth="yes"/>
      <point x="254" y="51"/>
      <point x="253" y="68"/>
      <point x="250" y="80" type="curve"/>
      <point x="120" y="80" type="line"/>
    </contour>
    <contour>
      <point x="117" y="388"/>
      <point x="116" y="371"/>
      <point x="116" y="360" type="curve" smooth="yes"/>
      <point x="116" y="349"/>
      <point x="117" y="333"/>
      <point x="120" y="320" type="curve"/>
      <point x="250" y="320" type="line"/>
      <point x="253" y="333"/>
      <point x="254" y="349"/>
      <point x="254" y="360" type="curve" smooth="yes"/>
      <point x="254" y="371"/>
      <point x="253" y="388"/>
      <point x="250" y="400" type="curve"/>
      <point x="120" y="400" type="line"/>
    </contour>
    <contour>
      <point x="277" y="228"/>
      <point x="276" y="211"/>
      <point x="276" y="200" type="curve" smooth="yes"/>
      <point x="276" y="189"/>
      <point x="277" y="173"/>
      <point x="280" y="160" type="curve"/>
      <point x="360" y="160" type="line"/>
      <point x="363" y="173"/>
      <point x="364" y="189"/>
      <point x="364" y="200" type="curve" smooth="yes"/>
      <point x="364" y="211"/>
      <point x="363" y="228"/>
      <point x="360" y="240" type="curve"/>
      <point x="280" y="240" type="line"/>
    </contour>
    <contour>
      <point x="277" y="68"/>
      <point x="276" y="51"/>
      <point x="276" y="40" type="curve" smooth="yes"/>
      <point x="276" y="29"/>
      <point x="277" y="13"/>
      <point x="280" y="0" type="curve"/>
      <point x="360" y="0" type="line"/>
      <point x="363" y="13"/>
      <point x="364" y="29"/>
      <point x="364" y="40" type="curve" smooth="yes"/>
      <point x="364" y="51"/>
      <point x="363" y="68"/>
      <point x="360" y="80" type="curve"/>
      <point x="280" y="80" type="line"/>
    </contour>
    <contour>
      <point x="247" y="308"/>
      <point x="246" y="291"/>
      <point x="246" y="280" type="curve" smooth="yes"/>
      <point x="246" y="269"/>
      <point x="247" y="253"/>
      <point x="250" y="240" type="curve"/>
      <point x="360" y="240" type="line"/>
      <point x="363" y="253"/>
      <point x="364" y="269"/>
      <point x="364" y="280" type="curve" smooth="yes"/>
      <point x="364" y="291"/>
      <point x="363" y="308"/>
      <point x="360" y="320" type="curve"/>
      <point x="250" y="320" type="line"/>
    </contour>
    <contour>
      <point x="277" y="468"/>
      <point x="276" y="451"/>
      <point x="276" y="440" type="curve" smooth="yes"/>
      <point x="276" y="429"/>
      <point x="277" y="413"/>
      <point x="280" y="400" type="curve"/>
      <point x="360" y="400" type="line"/>
      <point x="363" y="413"/>
      <point x="364" y="429"/>
      <point x="364" y="440" type="curve" smooth="yes"/>
      <point x="364" y="451"/>
      <point x="363" y="468"/>
      <point x="360" y="480" type="curve"/>
      <point x="280" y="480" type="line"/>
    </contour>
    <contour>
      <point x="277" y="548"/>
      <point x="276" y="531"/>
      <point x="276" y="520" type="curve" smooth="yes"/>
      <point x="276" y="509"/>
      <point x="277" y="493"/>
      <point x="280" y="480" type="curve"/>
      <point x="360" y="480" type="line"/>
      <point x="363" y="493"/>
      <point x="364" y="509"/>
      <point x="364" y="520" type="curve" smooth="yes"/>
      <point x="364" y="531"/>
      <point x="363" y="548"/>
      <point x="360" y="560" type="curve"/>
      <point x="280" y="560" type="line"/>
    </contour>
    <contour>
      <point x="247" y="148"/>
      <point x="246" y="131"/>
      <point x="246" y="120" type="curve" smooth="yes"/>
      <point x="246" y="109"/>
      <point x="247" y="93"/>
      <point x="250" y="80" type="curve"/>
      <point x="360" y="80" type="line"/>
      <point x="363" y="93"/>
      <point x="364" y="109"/>
      <point x="364" y="120" type="curve" smooth="yes"/>
      <point x="364" y="131"/>
      <point x="363" y="148"/>
      <point x="360" y="160" type="curve"/>
      <point x="250" y="160" type="line"/>
    </contour>
    <contour>
      <point x="200" y="0" type="move" name="bottom"/>
    </contour>
    <contour>
      <point x="200" y="400" type="move" name="top"/>
    </contour>
    <contour>
      <point x="399" y="560" type="move" name="topright"/>
    </contour>
    <contour>
      <point x="200" y="200" type="move" name="center"/>
    </contour>
  </outline>
</glyph>
<glyph name="e" format="1">
  <advance width="400"/>
  <unicode hex="0065"/>
  <outline>
    <contour>
      <point x="67" y="148"/>
      <point x="66" y="131"/>
      <point x="66" y="120" type="curve" smooth="yes"/>
      <point x="66" y="109"/>
      <point x="67" y="93"/>
      <point x="70" y="80" type="curve"/>
      <point x="150" y="80" type="line"/>
      <point x="153" y="93"/>
      <point x="154" y="109"/>
      <point x="154" y="120" type="curve" smooth="yes"/>
      <point x="154" y="131"/>
      <point x="153" y="148"/>
      <point x="150" y="160" type="curve"/>
      <point x="70" y="160" type="line"/>
    </contour>
    <contour>
      <point x="37" y="228"/>
      <point x="36" y="211"/>
      <point x="36" y="200" type="curve" smooth="yes"/>
      <point x="36" y="189"/>
      <point x="37" y="173"/>
      <point x="40" y="160" type="curve"/>
      <point x="200" y="160" type="line"/>
      <point x="203" y="173"/>
      <point x="204" y="189"/>
      <point x="204" y="200" type="curve" smooth="yes"/>
      <point x="204" y="211"/>
      <point x="203" y="228"/>
      <point x="200" y="240" type="curve"/>
      <point x="40" y="240" type="line"/>
    </contour>
    <contour>
      <point x="67" y="308"/>
      <point x="66" y="291"/>
      <point x="66" y="280" type="curve" smooth="yes"/>
      <point x="66" y="269"/>
      <point x="67" y="253"/>
      <point x="70" y="240" type="curve"/>
      <point x="150" y="240" type="line"/>
      <point x="153" y="253"/>
      <point x="154" y="269"/>
      <point x="154" y="280" type="curve" smooth="yes"/>
      <point x="154" y="291"/>
      <point x="153" y="308"/>
      <point x="150" y="320" type="curve"/>
      <point x="70" y="320" type="line"/>
    </contour>
    <contour>
      <point x="277" y="308"/>
      <point x="276" y="291"/>
      <point x="276" y="280" type="curve" smooth="yes"/>
      <point x="276" y="269"/>
      <point x="277" y="253"/>
      <point x="280" y="240" type="curve"/>
      <point x="360" y="240" type="line"/>
      <point x="363" y="253"/>
      <point x="364" y="269"/>
      <point x="364" y="280" type="curve" smooth="yes"/>
      <point x="364" y="291"/>
      <point x="363" y="308"/>
      <point x="360" y="320" type="curve"/>
      <point x="280" y="320" type="line"/>
    </contour>
    <contour>
      <point x="117" y="68"/>
      <point x="116" y="51"/>
      <point x="116" y="40" type="curve" smooth="yes"/>
      <point x="116" y="29"/>
      <point x="117" y="13"/>
      <point x="120" y="0" type="curve"/>
      <point x="200" y="0" type="line"/>
      <point x="203" y="13"/>
      <point x="204" y="29"/>
      <point x="204" y="40" type="curve" smooth="yes"/>
      <point x="204" y="51"/>
      <point x="203" y="68"/>
      <point x="200" y="80" type="curve"/>
      <point x="120" y="80" type="line"/>
    </contour>
    <contour>
      <point x="197" y="68"/>
      <point x="196" y="51"/>
      <point x="196" y="40" type="curve" smooth="yes"/>
      <point x="196" y="29"/>
      <point x="197" y="13"/>
      <point x="200" y="0" type="curve"/>
      <point x="320" y="0" type="line"/>
      <point x="323" y="13"/>
      <point x="324" y="29"/>
      <point x="324" y="40" type="curve" smooth="yes"/>
      <point x="324" y="51"/>
      <point x="323" y="68"/>
      <point x="320" y="80" type="curve"/>
      <point x="200" y="80" type="line"/>
    </contour>
    <contour>
      <point x="117" y="388"/>
      <point x="116" y="371"/>
      <point x="116" y="360" type="curve" smooth="yes"/>
      <point x="116" y="349"/>
      <point x="117" y="333"/>
      <point x="120" y="320" type="curve"/>
      <point x="200" y="320" type="line"/>
      <point x="203" y="333"/>
      <point x="204" y="349"/>
      <point x="204" y="360" type="curve" smooth="yes"/>
      <point x="204" y="371"/>
      <point x="203" y="388"/>
      <point x="200" y="400" type="curve"/>
      <point x="120" y="400" type="line"/>
    </contour>
    <contour>
      <point x="197" y="388"/>
      <point x="196" y="371"/>
      <point x="196" y="360" type="curve" smooth="yes"/>
      <point x="196" y="349"/>
      <point x="197" y="333"/>
      <point x="200" y="320" type="curve"/>
      <point x="320" y="320" type="line"/>
      <point x="323" y="333"/>
      <point x="324" y="349"/>
      <point x="324" y="360" type="curve" smooth="yes"/>
      <point x="324" y="371"/>
      <point x="323" y="388"/>
      <point x="320" y="400" type="curve"/>
      <point x="200" y="400" type="line"/>
    </contour>
    <contour>
      <point x="197" y="228"/>
      <point x="196" y="211"/>
      <point x="196" y="200" type="curve" smooth="yes"/>
      <point x="196" y="189"/>
      <point x="197" y="173"/>
      <point x="200" y="160" type="curve"/>
      <point x="360" y="160" type="line"/>
      <point x="363" y="173"/>
      <point x="364" y="189"/>
      <point x="364" y="200" type="curve" smooth="yes"/>
      <point x="364" y="211"/>
      <point x="363" y="228"/>
      <point x="360" y="240" type="curve"/>
      <point x="200" y="240" type="line"/>
    </contour>
    <contour>
      <point x="310" y="10" type="move" name="ogonek"/>
    </contour>
    <contour>
      <point x="220" y="0" type="move" name="bottom"/>
    </contour>
    <contour>
      <point x="220" y="400" type="move" name="top"/>
    </contour>
  </outline>
</glyph>
<glyph name="r" format="1">
  <advance width="400"/>
  <unicode hex="0072"/>
  <outline>
    <contour>
      <point x="37" y="68"/>
      <point x="36" y="51"/>
      <point x="36" y="40" type="curve" smooth="yes"/>
      <point x="36" y="29"/>
      <point x="37" y="13"/>
      <point x="40" y="0" type="curve"/>
      <point x="140" y="0" type="line"/>
      <point x="143" y="13"/>
      <point x="144" y="29"/>
      <point x="144" y="40" type="curve" smooth="yes"/>
      <point x="144" y="51"/>
      <point x="143" y="68"/>
      <point x="140" y="80" type="curve"/>
      <point x="40" y="80" type="line"/>
    </contour>
    <contour>
      <point x="97" y="148"/>
      <point x="96" y="131"/>
      <point x="96" y="120" type="curve" smooth="yes"/>
      <point x="96" y="109"/>
      <point x="97" y="93"/>
      <point x="100" y="80" type="curve"/>
      <point x="180" y="80" type="line"/>
      <point x="183" y="93"/>
      <point x="184" y="109"/>
      <point x="184" y="120" type="curve" smooth="yes"/>
      <point x="184" y="131"/>
      <point x="183" y="148"/>
      <point x="180" y="160" type="curve"/>
      <point x="100" y="160" type="line"/>
    </contour>
    <contour>
      <point x="97" y="228"/>
      <point x="96" y="211"/>
      <point x="96" y="200" type="curve" smooth="yes"/>
      <point x="96" y="189"/>
      <point x="97" y="173"/>
      <point x="100" y="160" type="curve"/>
      <point x="180" y="160" type="line"/>
      <point x="183" y="173"/>
      <point x="184" y="189"/>
      <point x="184" y="200" type="curve" smooth="yes"/>
      <point x="184" y="211"/>
      <point x="183" y="228"/>
      <point x="180" y="240" type="curve"/>
      <point x="100" y="240" type="line"/>
    </contour>
    <contour>
      <point x="37" y="388"/>
      <point x="36" y="371"/>
      <point x="36" y="360" type="curve" smooth="yes"/>
      <point x="36" y="349"/>
      <point x="37" y="333"/>
      <point x="40" y="320" type="curve"/>
      <point x="140" y="320" type="line"/>
      <point x="143" y="333"/>
      <point x="144" y="349"/>
      <point x="144" y="360" type="curve" smooth="yes"/>
      <point x="144" y="371"/>
      <point x="143" y="388"/>
      <point x="140" y="400" type="curve"/>
      <point x="40" y="400" type="line"/>
    </contour>
    <contour>
      <point x="137" y="68"/>
      <point x="136" y="51"/>
      <point x="136" y="40" type="curve" smooth="yes"/>
      <point x="136" y="29"/>
      <point x="137" y="13"/>
      <point x="140" y="0" type="curve"/>
      <point x="240" y="0" type="line"/>
      <point x="243" y="13"/>
      <point x="244" y="29"/>
      <point x="244" y="40" type="curve" smooth="yes"/>
      <point x="244" y="51"/>
      <point x="243" y="68"/>
      <point x="240" y="80" type="curve"/>
      <point x="140" y="80" type="line"/>
    </contour>
    <contour>
      <point x="177" y="388"/>
      <point x="176" y="371"/>
      <point x="176" y="360" type="curve" smooth="yes"/>
      <point x="176" y="349"/>
      <point x="177" y="333"/>
      <point x="180" y="320" type="curve"/>
      <point x="330" y="320" type="line"/>
      <point x="333" y="333"/>
      <point x="334" y="349"/>
      <point x="334" y="360" type="curve" smooth="yes"/>
      <point x="334" y="371"/>
      <point x="333" y="388"/>
      <point x="330" y="400" type="curve"/>
      <point x="180" y="400" type="line"/>
    </contour>
    <contour>
      <point x="277" y="308"/>
      <point x="276" y="291"/>
      <point x="276" y="280" type="curve" smooth="yes"/>
      <point x="276" y="269"/>
      <point x="277" y="253"/>
      <point x="280" y="240" type="curve"/>
      <point x="360" y="240" type="line"/>
      <point x="363" y="253"/>
      <point x="364" y="269"/>
      <point x="364" y="280" type="curve" smooth="yes"/>
      <point x="364" y="291"/>
      <point x="363" y="308"/>
      <point x="360" y="320" type="curve"/>
      <point x="280" y="320" type="line"/>
    </contour>
    <contour>
      <point x="97" y="308"/>
      <point x="96" y="291"/>
      <point x="96" y="280" type="curve" smooth="yes"/>
      <point x="96" y="269"/>
      <point x="97" y="253"/>
      <point x="100" y="240" type="curve"/>
      <point x="210" y="240" type="line"/>
      <point x="213" y="253"/>
      <point x="214" y="269"/>
      <point x="214" y="280" type="curve" smooth="yes"/>
      <point x="214" y="291"/>
      <point x="213" y="308"/>
      <point x="210" y="320" type="curve"/>
      <point x="100" y="320" type="line"/>
    </contour>
    <contour>
      <point x="200" y="400" type="move" name="top"/>
    </contour>
    <contour>
      <point x="140" y="0" type="move" name="bottom"/>
    </contour>
  </outline>
</glyph>
<glyph name="t" format="1">
  <advance width="400"/>
  <unicode hex="0074"/>
  <outline>
    <contour>
      <point x="117" y="148"/>
      <point x="116" y="131"/>
      <point x="116" y="120" type="curve" smooth="yes"/>
      <point x="116" y="109"/>
      <point x="117" y="93"/>
      <point x="120" y="80" type="curve"/>
      <point x="200" y="80" type="line"/>
      <point x="203" y="93"/>
      <point x="204" y="109"/>
      <point x="204" y="120" type="curve" smooth="yes"/>
      <point x="204" y="131"/>
      <point x="203" y="148"/>
      <point x="200" y="160" type="curve"/>
      <point x="120" y="160" type="line"/>
    </contour>
    <contour>
      <point x="117" y="228"/>
      <point x="116" y="211"/>
      <point x="116" y="200" type="curve" smooth="yes"/>
      <point x="116" y="189"/>
      <point x="117" y="173"/>
      <point x="120" y="160" type="curve"/>
      <point x="200" y="160" type="line"/>
      <point x="203" y="173"/>
      <point x="204" y="189"/>
      <point x="204" y="200" type="curve" smooth="yes"/>
      <point x="204" y="211"/>
      <point x="203" y="228"/>
      <point x="200" y="240" type="curve"/>
      <point x="120" y="240" type="line"/>
    </contour>
    <contour>
      <point x="117" y="308"/>
      <point x="116" y="291"/>
      <point x="116" y="280" type="curve" smooth="yes"/>
      <point x="116" y="269"/>
      <point x="117" y="253"/>
      <point x="120" y="240" type="curve"/>
      <point x="200" y="240" type="line"/>
      <point x="203" y="253"/>
      <point x="204" y="269"/>
      <point x="204" y="280" type="curve" smooth="yes"/>
      <point x="204" y="291"/>
      <point x="203" y="308"/>
      <point x="200" y="320" type="curve"/>
      <point x="120" y="320" type="line"/>
    </contour>
    <contour>
      <point x="117" y="468"/>
      <point x="116" y="451"/>
      <point x="116" y="440" type="curve" smooth="yes"/>
      <point x="116" y="429"/>
      <point x="117" y="413"/>
      <point x="120" y="400" type="curve"/>
      <point x="200" y="400" type="line"/>
      <point x="203" y="413"/>
      <point x="204" y="429"/>
      <point x="204" y="440" type="curve" smooth="yes"/>
      <point x="204" y="451"/>
      <point x="203" y="468"/>
      <point x="200" y="480" type="curve"/>
      <point x="120" y="480" type="line"/>
    </contour>
    <contour>
      <point x="37" y="388"/>
      <point x="36" y="371"/>
      <point x="36" y="360" type="curve" smooth="yes"/>
      <point x="36" y="349"/>
      <point x="37" y="333"/>
      <point x="40" y="320" type="curve"/>
      <point x="200" y="320" type="line"/>
      <point x="203" y="333"/>
      <point x="204" y="349"/>
      <point x="204" y="360" type="curve" smooth="yes"/>
      <point x="204" y="371"/>
      <point x="203" y="388"/>
      <point x="200" y="400" type="curve"/>
      <point x="40" y="400" type="line"/>
    </contour>
    <contour>
      <point x="117" y="548"/>
      <point x="116" y="531"/>
      <point x="116" y="520" type="curve" smooth="yes"/>
      <point x="116" y="509"/>
      <point x="117" y="493"/>
      <point x="120" y="480" type="curve"/>
      <point x="200" y="480" type="line"/>
      <point x="203" y="493"/>
      <point x="204" y="509"/>
      <point x="204" y="520" type="curve" smooth="yes"/>
      <point x="204" y="531"/>
      <point x="203" y="548"/>
      <point x="200" y="560" type="curve"/>
      <point x="120" y="560" type="line"/>
    </contour>
    <contour>
      <point x="157" y="68"/>
      <point x="156" y="51"/>
      <point x="156" y="40" type="curve" smooth="yes"/>
      <point x="156" y="29"/>
      <point x="157" y="13"/>
      <point x="160" y="0" type="curve"/>
      <point x="320" y="0" type="line"/>
      <point x="323" y="13"/>
      <point x="324" y="29"/>
      <point x="324" y="40" type="curve" smooth="yes"/>
      <point x="324" y="51"/>
      <point x="323" y="68"/>
      <point x="320" y="80" type="curve"/>
      <point x="160" y="80" type="line"/>
    </contour>
    <contour>
      <point x="197" y="388"/>
      <point x="196" y="371"/>
      <point x="196" y="360" type="curve" smooth="yes"/>
      <point x="196" y="349"/>
      <point x="197" y="333"/>
      <point x="200" y="320" type="curve"/>
      <point x="320" y="320" type="line"/>
      <point x="323" y="333"/>
      <point x="324" y="349"/>
      <point x="324" y="360" type="curve" smooth="yes"/>
      <point x="324" y="371"/>
      <point x="323" y="388"/>
      <point x="320" y="400" type="curve"/>
      <point x="200" y="400" type="line"/>
    </contour>
    <contour>
      <point x="220" y="0" type="move" name="bottom"/>
    </contour>
    <contour>
      <point x="200" y="400" type="move" name="top"/>
    </contour>
    <contour>
      <point x="260" y="640" type="move" name="topright"/>
    </contour>
    <contour>
      <point x="200" y="200" type="move" name="center"/>
    </contour>
  </outline>
</glyph>
<glyph name="w" format="1">
  <advance width="400"/>
  <unicode hex="0077"/>
  <outline>
    <contour>
      <point x="37" y="388"/>
      <point x="36" y="371"/>
      <point x="36" y="360" type="curve" smooth="yes"/>
      <point x="36" y="349"/>
      <point x="37" y="333"/>
      <point x="40" y="320" type="curve"/>
      <point x="120" y="320" type="line"/>
      <point x="123" y="333"/>
      <point x="124" y="349"/>
      <point x="124" y="360" type="curve" smooth="yes"/>
      <point x="124" y="371"/>
      <point x="123" y="388"/>
      <point x="120" y="400" type="curve"/>
      <point x="40" y="400" type="line"/>
    </contour>
    <contour>
      <point x="277" y="388"/>
      <point x="276" y="371"/>
      <point x="276" y="360" type="curve" smooth="yes"/>
      <point x="276" y="349"/>
      <point x="277" y="333"/>
      <point x="280" y="320" type="curve"/>
      <point x="360" y="320" type="line"/>
      <point x="363" y="333"/>
      <point x="364" y="349"/>
      <point x="364" y="360" type="curve" smooth="yes"/>
      <point x="364" y="371"/>
      <point x="363" y="388"/>
      <point x="360" y="400" type="curve"/>
      <point x="280" y="400" type="line"/>
    </contour>
    <contour>
      <point x="167" y="388"/>
      <point x="166" y="371"/>
      <point x="166" y="360" type="curve" smooth="yes"/>
      <point x="166" y="349"/>
      <point x="167" y="333"/>
      <point x="170" y="320" type="curve"/>
      <point x="230" y="320" type="line"/>
      <point x="233" y="333"/>
      <point x="234" y="349"/>
      <point x="234" y="360" type="curve" smooth="yes"/>
      <point x="234" y="371"/>
      <point x="233" y="388"/>
      <point x="230" y="400" type="curve"/>
      <point x="170" y="400" type="line"/>
    </contour>
    <contour>
      <point x="37" y="308"/>
      <point x="36" y="291"/>
      <point x="36" y="280" type="curve" smooth="yes"/>
      <point x="36" y="269"/>
      <point x="37" y="253"/>
      <point x="40" y="240" type="curve"/>
      <point x="120" y="240" type="line"/>
      <point x="123" y="253"/>
      <point x="124" y="269"/>
      <point x="124" y="280" type="curve" smooth="yes"/>
      <point x="124" y="291"/>
      <point x="123" y="308"/>
      <point x="120" y="320" type="curve"/>
      <point x="40" y="320" type="line"/>
    </contour>
    <contour>
      <point x="277" y="308"/>
      <point x="276" y="291"/>
      <point x="276" y="280" type="curve" smooth="yes"/>
      <point x="276" y="269"/>
      <point x="277" y="253"/>
      <point x="280" y="240" type="curve"/>
      <point x="360" y="240" type="line"/>
      <point x="363" y="253"/>
      <point x="364" y="269"/>
      <point x="364" y="280" type="curve" smooth="yes"/>
      <point x="364" y="291"/>
      <point x="363" y="308"/>
      <point x="360" y="320" type="curve"/>
      <point x="280" y="320" type="line"/>
    </contour>
    <contour>
      <point x="167" y="308"/>
      <point x="166" y="291"/>
      <point x="166" y="280" type="curve" smooth="yes"/>
      <point x="166" y="269"/>
      <point x="167" y="253"/>
      <point x="170" y="240" type="curve"/>
      <point x="230" y="240" type="line"/>
      <point x="233" y="253"/>
      <point x="234" y="269"/>
      <point x="234" y="280" type="curve" smooth="yes"/>
      <point x="234" y="291"/>
      <point x="233" y="308"/>
      <point x="230" y="320" type="curve"/>
      <point x="170" y="320" type="line"/>
    </contour>
    <contour>
      <point x="67" y="228"/>
      <point x="66" y="211"/>
      <point x="66" y="200" type="curve" smooth="yes"/>
      <point x="66" y="189"/>
      <point x="67" y="173"/>
      <point x="70" y="160" type="curve"/>
      <point x="120" y="160" type="line"/>
      <point x="123" y="173"/>
      <point x="124" y="189"/>
      <point x="124" y="200" type="curve" smooth="yes"/>
      <point x="124" y="211"/>
      <point x="123" y="228"/>
      <point x="120" y="240" type="curve"/>
      <point x="70" y="240" type="line"/>
    </contour>
    <contour>
      <point x="277" y="228"/>
      <point x="276" y="211"/>
      <point x="276" y="200" type="curve" smooth="yes"/>
      <point x="276" y="189"/>
      <point x="277" y="173"/>
      <point x="280" y="160" type="curve"/>
      <point x="330" y="160" type="line"/>
      <point x="333" y="173"/>
      <point x="334" y="189"/>
      <point x="334" y="200" type="curve" smooth="yes"/>
      <point x="334" y="211"/>
      <point x="333" y="228"/>
      <point x="330" y="240" type="curve"/>
      <point x="280" y="240" type="line"/>
    </contour>
    <contour>
      <point x="147" y="228"/>
      <point x="146" y="211"/>
      <point x="146" y="200" type="curve" smooth="yes"/>
      <point x="146" y="189"/>
      <point x="147" y="173"/>
      <point x="150" y="160" type="curve"/>
      <point x="250" y="160" type="line"/>
      <point x="253" y="173"/>
      <point x="254" y="189"/>
      <point x="254" y="200" type="curve" smooth="yes"/>
      <point x="254" y="211"/>
      <point x="253" y="228"/>
      <point x="250" y="240" type="curve"/>
      <point x="150" y="240" type="line"/>
    </contour>
    <contour>
      <point x="67" y="148"/>
      <point x="66" y="131"/>
      <point x="66" y="120" type="curve" smooth="yes"/>
      <point x="66" y="109"/>
      <point x="67" y="93"/>
      <point x="70" y="80" type="curve"/>
      <point x="170" y="80" type="line"/>
      <point x="173" y="93"/>
      <point x="174" y="109"/>
      <point x="174" y="120" type="curve" smooth="yes"/>
      <point x="174" y="131"/>
      <point x="173" y="148"/>
      <point x="170" y="160" type="curve"/>
      <point x="70" y="160" type="line"/>
    </contour>
    <contour>
      <point x="227" y="148"/>
      <point x="226" y="131"/>
      <point x="226" y="120" type="curve" smooth="yes"/>
      <point x="226" y="109"/>
      <point x="227" y="93"/>
      <point x="230" y="80" type="curve"/>
      <point x="330" y="80" type="line"/>
      <point x="333" y="93"/>
      <point x="334" y="109"/>
      <point x="334" y="120" type="curve" smooth="yes"/>
      <point x="334" y="131"/>
      <point x="333" y="148"/>
      <point x="330" y="160" type="curve"/>
      <point x="230" y="160" type="line"/>
    </contour>
    <contour>
      <point x="87" y="68"/>
      <point x="86" y="51"/>
      <point x="86" y="40" type="curve" smooth="yes"/>
      <point x="86" y="29"/>
      <point x="87" y="13"/>
      <point x="90" y="0" type="curve"/>
      <point x="150" y="0" type="line"/>
      <point x="153" y="13"/>
      <point x="154" y="29"/>
      <point x="154" y="40" type="curve" smooth="yes"/>
      <point x="154" y="51"/>
      <point x="153" y="68"/>
      <point x="150" y="80" type="curve"/>
      <point x="90" y="80" type="line"/>
    </contour>
    <contour>
      <point x="247" y="68"/>
      <point x="246" y="51"/>
      <point x="246" y="40" type="curve" smooth="yes"/>
      <point x="246" y="29"/>
      <point x="247" y="13"/>
      <point x="250" y="0" type="curve"/>
      <point x="310" y="0" type="line"/>
      <point x="313" y="13"/>
      <point x="314" y="29"/>
      <point x="314" y="40" type="curve" smooth="yes"/>
      <point x="314" y="51"/>
      <point x="313" y="68"/>
      <point x="310" y="80" type="curve"/>
      <point x="250" y="80" type="line"/>
    </contour>
    <contour>
      <point x="200" y="400" type="move" name="top"/>
    </contour>
    <contour>
      <point x="200" y="0" type="move" name="bottom"/>
    </contour>
  </outline>
</glyph>
<glyph name="x" format="1">
  <advance width="400"/>
  <unicode hex="0078"/>
  <outline>
    <contour>
      <point x="137" y="228"/>
      <point x="136" y="211"/>
      <point x="136" y="200" type="curve" smooth="yes"/>
      <point x="136" y="189"/>
      <point x="137" y="173"/>
      <point x="140" y="160" type="curve"/>
      <point x="260" y="160" type="line"/>
      <point x="263" y="173"/>
      <point x="264" y="189"/>
      <point x="264" y="200" type="curve" smooth="yes"/>
      <point x="264" y="211"/>
      <point x="263" y="228"/>
      <point x="260" y="240" type="curve"/>
      <point x="140" y="240" type="line"/>
    </contour>
    <contour>
      <point x="227" y="308"/>
      <point x="226" y="291"/>
      <point x="226" y="280" type="curve" smooth="yes"/>
      <point x="226" y="269"/>
      <point x="227" y="253"/>
      <point x="230" y="240" type="curve"/>
      <point x="310" y="240" type="line"/>
      <point x="313" y="253"/>
      <point x="314" y="269"/>
      <point x="314" y="280" type="curve" smooth="yes"/>
      <point x="314" y="291"/>
      <point x="313" y="308"/>
      <point x="310" y="320" type="curve"/>
      <point x="230" y="320" type="line"/>
    </contour>
    <contour>
      <point x="97" y="308"/>
      <point x="96" y="291"/>
      <point x="96" y="280" type="curve" smooth="yes"/>
      <point x="96" y="269"/>
      <point x="97" y="253"/>
      <point x="100" y="240" type="curve"/>
      <point x="180" y="240" type="line"/>
      <point x="183" y="253"/>
      <point x="184" y="269"/>
      <point x="184" y="280" type="curve" smooth="yes"/>
      <point x="184" y="291"/>
      <point x="183" y="308"/>
      <point x="180" y="320" type="curve"/>
      <point x="100" y="320" type="line"/>
    </contour>
    <contour>
      <point x="57" y="388"/>
      <point x="56" y="371"/>
      <point x="56" y="360" type="curve" smooth="yes"/>
      <point x="56" y="349"/>
      <point x="57" y="333"/>
      <point x="60" y="320" type="curve"/>
      <point x="140" y="320" type="line"/>
      <point x="143" y="333"/>
      <point x="144" y="349"/>
      <point x="144" y="360" type="curve" smooth="yes"/>
      <point x="144" y="371"/>
      <point x="143" y="388"/>
      <point x="140" y="400" type="curve"/>
      <point x="60" y="400" type="line"/>
    </contour>
    <contour>
      <point x="257" y="388"/>
      <point x="256" y="371"/>
      <point x="256" y="360" type="curve" smooth="yes"/>
      <point x="256" y="349"/>
      <point x="257" y="333"/>
      <point x="260" y="320" type="curve"/>
      <point x="340" y="320" type="line"/>
      <point x="343" y="333"/>
      <point x="344" y="349"/>
      <point x="344" y="360" type="curve" smooth="yes"/>
      <point x="344" y="371"/>
      <point x="343" y="388"/>
      <point x="340" y="400" type="curve"/>
      <point x="260" y="400" type="line"/>
    </contour>
    <contour>
      <point x="227" y="148"/>
      <point x="226" y="131"/>
      <point x="226" y="120" type="curve" smooth="yes"/>
      <point x="226" y="109"/>
      <point x="227" y="93"/>
      <point x="230" y="80" type="curve"/>
      <point x="310" y="80" type="line"/>
      <point x="313" y="93"/>
      <point x="314" y="109"/>
      <point x="314" y="120" type="curve" smooth="yes"/>
      <point x="314" y="131"/>
      <point x="313" y="148"/>
      <point x="310" y="160" type="curve"/>
      <point x="230" y="160" type="line"/>
    </contour>
    <contour>
      <point x="97" y="148"/>
      <point x="96" y="131"/>
      <point x="96" y="120" type="curve" smooth="yes"/>
      <point x="96" y="109"/>
      <point x="97" y="93"/>
      <point x="100" y="80" type="curve"/>
      <point x="180" y="80" type="line"/>
      <point x="183" y="93"/>
      <point x="184" y="109"/>
      <point x="184" y="120" type="curve" smooth="yes"/>
      <point x="184" y="131"/>
      <point x="183" y="148"/>
      <point x="180" y="160" type="curve"/>
      <point x="100" y="160" type="line"/>
    </contour>
    <contour>
      <point x="57" y="68"/>
      <point x="56" y="51"/>
      <point x="56" y="40" type="curve" smooth="yes"/>
      <point x="56" y="29"/>
      <point x="57" y="13"/>
      <point x="60" y="0" type="curve"/>
      <point x="140" y="0" type="line"/>
      <point x="143" y="13"/>
      <point x="144" y="29"/>
      <point x="144" y="40" type="curve" smooth="yes"/>
      <point x="144" y="51"/>
      <point x="143" y="68"/>
      <point x="140" y="80" type="curve"/>
      <point x="60" y="80" type="line"/>
    </contour>
    <contour>
      <point x="257" y="68"/>
      <point x="256" y="51"/>
      <point x="256" y="40" type="curve" smooth="yes"/>
      <point x="256" y="29"/>
      <point x="257" y="13"/>
      <point x="260" y="0" type="curve"/>
      <point x="340" y="0" type="line"/>
      <point x="343" y="13"/>
      <point x="344" y="29"/>
      <point x="344" y="40" type="curve" smooth="yes"/>
      <point x="344" y="51"/>
      <point x="343" y="68"/>
      <point x="340" y="80" type="curve"/>
      <point x="260" y="80" type="line"/>
    </contour>
    <contour>
      <point x="200" y="400" type="move" name="top"/>
    </contour>
    <contour>
      <point x="200" y="0" type="move" name="bottom"/>
    </contour>
  </outline>
</glyph>
<glyph name="asciitilde" format="1">
  <advance width="400"/>
  <unicode hex="007E"/>
  <outline>
    <contour>
      <point x="67" y="388"/>
      <point x="66" y="371"/>
      <point x="66" y="360" type="curve" smooth="yes"/>
      <point x="66" y="349"/>
      <point x="67" y="333"/>
      <point x="70" y="320" type="curve"/>
      <point x="230" y="320" type="line"/>
      <point x="233" y="333"/>
      <point x="234" y="349"/>
      <point x="234" y="360" type="curve" smooth="yes"/>
      <point x="234" y="371"/>
      <point x="233" y="388"/>
      <point x="230" y="400" type="curve"/>
      <point x="70" y="400" type="line"/>
    </contour>
    <contour>
      <point x="37" y="308"/>
      <point x="36" y="291"/>
      <point x="36" y="280" type="curve" smooth="yes"/>
      <point x="36" y="269"/>
      <point x="37" y="253"/>
      <point x="40" y="240" type="curve"/>
      <point x="120" y="240" type="line"/>
      <point x="123" y="253"/>
      <point x="124" y="269"/>
      <point x="124" y="280" type="curve" smooth="yes"/>
      <point x="124" y="291"/>
      <point x="123" y="308"/>
      <point x="120" y="320" type="curve"/>
      <point x="40" y="320" type="line"/>
    </contour>
    <contour>
      <point x="167" y="308"/>
      <point x="166" y="291"/>
      <point x="166" y="280" type="curve" smooth="yes"/>
      <point x="166" y="269"/>
      <point x="167" y="253"/>
      <point x="170" y="240" type="curve"/>
      <point x="330" y="240" type="line"/>
      <point x="333" y="253"/>
      <point x="334" y="269"/>
      <point x="334" y="280" type="curve" smooth="yes"/>
      <point x="334" y="291"/>
      <point x="333" y="308"/>
      <point x="330" y="320" type="curve"/>
      <point x="170" y="320" type="line"/>
    </contour>
    <contour>
      <point x="277" y="388"/>
      <point x="276" y="371"/>
      <point x="276" y="360" type="curve" smooth="yes"/>
      <point x="276" y="349"/>
      <point x="277" y="333"/>
      <point x="280" y="320" type="curve"/>
      <point x="360" y="320" type="line"/>
      <point x="363" y="333"/>
      <point x="364" y="349"/>
      <point x="364" y="360" type="curve" smooth="yes"/>
      <point x="364" y="371"/>
      <point x="363" y="388"/>
      <point x="360" y="400" type="curve"/>
      <point x="280" y="400" type="line"/>
    </contour>
    <contour>
      <point x="37" y="228"/>
      <point x="36" y="211"/>
      <point x="36" y="200" type="curve" smooth="yes"/>
      <point x="36" y="189"/>
      <point x="37" y="173"/>
      <point x="40" y="160" type="curve"/>
      <point x="100" y="160" type="line"/>
      <point x="103" y="173"/>
      <point x="104" y="189"/>
      <point x="104" y="200" type="curve" smooth="yes"/>
      <point x="104" y="211"/>
      <point x="103" y="228"/>
      <point x="100" y="240" type="curve"/>
      <point x="40" y="240" type="line"/>
    </contour>
    <contour>
      <point x="297" y="468"/>
      <point x="296" y="451"/>
      <point x="296" y="440" type="curve" smooth="yes"/>
      <point x="296" y="429"/>
      <point x="297" y="413"/>
      <point x="300" y="400" type="curve"/>
      <point x="360" y="400" type="line"/>
      <point x="363" y="413"/>
      <point x="364" y="429"/>
      <point x="364" y="440" type="curve" smooth="yes"/>
      <point x="364" y="451"/>
      <point x="363" y="468"/>
      <point x="360" y="480" type="curve"/>
      <point x="300" y="480" type="line"/>
    </contour>
    <contour>
      <point x="97" y="468"/>
      <point x="96" y="451"/>
      <point x="96" y="440" type="curve" smooth="yes"/>
      <point x="96" y="429"/>
      <point x="97" y="413"/>
      <point x="100" y="400" type="curve"/>
      <point x="200" y="400" type="line"/>
      <point x="203" y="413"/>
      <point x="204" y="429"/>
      <point x="204" y="440" type="curve" smooth="yes"/>
      <point x="204" y="451"/>
      <point x="203" y="468"/>
      <point x="200" y="480" type="curve"/>
      <point x="100" y="480" type="line"/>
    </contour>
    <contour>
      <point x="197" y="228"/>
      <point x="196" y="211"/>
      <point x="196" y="200" type="curve" smooth="yes"/>
      <point x="196" y="189"/>
      <point x="197" y="173"/>
      <point x="200" y="160" type="curve"/>
      <point x="300" y="160" type="line"/>
      <point x="303" y="173"/>
      <point x="304" y="189"/>
      <point x="304" y="200" type="curve" smooth="yes"/>
      <point x="304" y="211"/>
      <point x="303" y="228"/>
      <point x="300" y="240" type="curve"/>
      <point x="200" y="240" type="line"/>
    </contour>
  </outline>
</glyph>
<glyph name="exclamdown" format="1">
  <advance width="400"/>
  <unicode hex="00A1"/>
  <outline>
    <contour>
      <point x="157" y="-12"/>
      <point x="156" y="-29"/>
      <point x="156" y="-40" type="curve" smooth="yes"/>
      <point x="156" y="-51"/>
      <point x="157" y="-67"/>
      <point x="160" y="-80" type="curve"/>
      <point x="240" y="-80" type="line"/>
      <point x="243" y="-67"/>
      <point x="244" y="-51"/>
      <point x="244" y="-40" type="curve" smooth="yes"/>
      <point x="244" y="-29"/>
      <point x="243" y="-12"/>
      <point x="240" y="0" type="curve"/>
      <point x="160" y="0" type="line"/>
    </contour>
    <contour>
      <point x="157" y="68"/>
      <point x="156" y="51"/>
      <point x="156" y="40" type="curve" smooth="yes"/>
      <point x="156" y="29"/>
      <point x="157" y="13"/>
      <point x="160" y="0" type="curve"/>
      <point x="240" y="0" type="line"/>
      <point x="243" y="13"/>
      <point x="244" y="29"/>
      <point x="244" y="40" type="curve" smooth="yes"/>
      <point x="244" y="51"/>
      <point x="243" y="68"/>
      <point x="240" y="80" type="curve"/>
      <point x="160" y="80" type="line"/>
    </contour>
    <contour>
      <point x="157" y="148"/>
      <point x="156" y="131"/>
      <point x="156" y="120" type="curve" smooth="yes"/>
      <point x="156" y="109"/>
      <point x="157" y="93"/>
      <point x="160" y="80" type="curve"/>
      <point x="240" y="80" type="line"/>
      <point x="243" y="93"/>
      <point x="244" y="109"/>
      <point x="244" y="120" type="curve" smooth="yes"/>
      <point x="244" y="131"/>
      <point x="243" y="148"/>
      <point x="240" y="160" type="curve"/>
      <point x="160" y="160" type="line"/>
    </contour>
    <contour>
      <point x="157" y="228"/>
      <point x="156" y="211"/>
      <point x="156" y="200" type="curve" smooth="yes"/>
      <point x="156" y="189"/>
      <point x="157" y="173"/>
      <point x="160" y="160" type="curve"/>
      <point x="240" y="160" type="line"/>
      <point x="243" y="173"/>
      <point x="244" y="189"/>
      <point x="244" y="200" type="curve" smooth="yes"/>
      <point x="244" y="211"/>
      <point x="243" y="228"/>
      <point x="240" y="240" type="curve"/>
      <point x="160" y="240" type="line"/>
    </contour>
    <contour>
      <point x="157" y="308"/>
      <point x="156" y="291"/>
      <point x="156" y="280" type="curve" smooth="yes"/>
      <point x="156" y="269"/>
      <point x="157" y="253"/>
      <point x="160" y="240" type="curve"/>
      <point x="240" y="240" type="line"/>
      <point x="243" y="253"/>
      <point x="244" y="269"/>
      <point x="244" y="280" type="curve" smooth="yes"/>
      <point x="244" y="291"/>
      <point x="243" y="308"/>
      <point x="240" y="320" type="curve"/>
      <point x="160" y="320" type="line"/>
    </contour>
    <contour>
      <point x="157" y="468"/>
      <point x="156" y="451"/>
      <point x="156" y="440" type="curve" smooth="yes"/>
      <point x="156" y="429"/>
      <point x="157" y="413"/>
      <point x="160" y="400" type="curve"/>
      <point x="240" y="400" type="line"/>
      <point x="243" y="413"/>
      <point x="244" y="429"/>
      <point x="244" y="440" type="curve" smooth="yes"/>
      <point x="244" y="451"/>
      <point x="243" y="468"/>
      <point x="240" y="480" type="curve"/>
      <point x="160" y="480" type="line"/>
    </contour>
  </outline>
</glyph>
<glyph name="yen" format="1">
  <advance width="400"/>
  <unicode hex="00A5"/>
  <outline>
    <contour>
      <point x="57" y="468"/>
      <point x="56" y="451"/>
      <point x="56" y="440" type="curve" smooth="yes"/>
      <point x="56" y="429"/>
      <point x="57" y="413"/>
      <point x="60" y="400" type="curve"/>
      <point x="140" y="400" type="line"/>
      <point x="143" y="413"/>
      <point x="144" y="429"/>
      <point x="144" y="440" type="curve" smooth="yes"/>
      <point x="144" y="451"/>
      <point x="143" y="468"/>
      <point x="140" y="480" type="curve"/>
      <point x="60" y="480" type="line"/>
    </contour>
    <contour>
      <point x="97" y="388"/>
      <point x="96" y="371"/>
      <point x="96" y="360" type="curve" smooth="yes"/>
      <point x="96" y="349"/>
      <point x="97" y="333"/>
      <point x="100" y="320" type="curve"/>
      <point x="180" y="320" type="line"/>
      <point x="183" y="333"/>
      <point x="184" y="349"/>
      <point x="184" y="360" type="curve" smooth="yes"/>
      <point x="184" y="371"/>
      <point x="183" y="388"/>
      <point x="180" y="400" type="curve"/>
      <point x="100" y="400" type="line"/>
    </contour>
    <contour>
      <point x="57" y="308"/>
      <point x="56" y="291"/>
      <point x="56" y="280" type="curve" smooth="yes"/>
      <point x="56" y="269"/>
      <point x="57" y="253"/>
      <point x="60" y="240" type="curve"/>
      <point x="200" y="240" type="line"/>
      <point x="203" y="253"/>
      <point x="204" y="269"/>
      <point x="204" y="280" type="curve" smooth="yes"/>
      <point x="204" y="291"/>
      <point x="203" y="308"/>
      <point x="200" y="320" type="curve"/>
      <point x="60" y="320" type="line"/>
    </contour>
    <contour>
      <point x="217" y="388"/>
      <point x="216" y="371"/>
      <point x="216" y="360" type="curve" smooth="yes"/>
      <point x="216" y="349"/>
      <point x="217" y="333"/>
      <point x="220" y="320" type="curve"/>
      <point x="300" y="320" type="line"/>
      <point x="303" y="333"/>
      <point x="304" y="349"/>
      <point x="304" y="360" type="curve" smooth="yes"/>
      <point x="304" y="371"/>
      <point x="303" y="388"/>
      <point x="300" y="400" type="curve"/>
      <point x="220" y="400" type="line"/>
    </contour>
    <contour>
      <point x="257" y="468"/>
      <point x="256" y="451"/>
      <point x="256" y="440" type="curve" smooth="yes"/>
      <point x="256" y="429"/>
      <point x="257" y="413"/>
      <point x="260" y="400" type="curve"/>
      <point x="340" y="400" type="line"/>
      <point x="343" y="413"/>
      <point x="344" y="429"/>
      <point x="344" y="440" type="curve" smooth="yes"/>
      <point x="344" y="451"/>
      <point x="343" y="468"/>
      <point x="340" y="480" type="curve"/>
      <point x="260" y="480" type="line"/>
    </contour>
    <contour>
      <point x="157" y="228"/>
      <point x="156" y="211"/>
      <point x="156" y="200" type="curve" smooth="yes"/>
      <point x="156" y="189"/>
      <point x="157" y="173"/>
      <point x="160" y="160" type="curve"/>
      <point x="240" y="160" type="line"/>
      <point x="243" y="173"/>
      <point x="244" y="189"/>
      <point x="244" y="200" type="curve" smooth="yes"/>
      <point x="244" y="211"/>
      <point x="243" y="228"/>
      <point x="240" y="240" type="curve"/>
      <point x="160" y="240" type="line"/>
    </contour>
    <contour>
      <point x="157" y="68"/>
      <point x="156" y="51"/>
      <point x="156" y="40" type="curve" smooth="yes"/>
      <point x="156" y="29"/>
      <point x="157" y="13"/>
      <point x="160" y="0" type="curve"/>
      <point x="240" y="0" type="line"/>
      <point x="243" y="13"/>
      <point x="244" y="29"/>
      <point x="244" y="40" type="curve" smooth="yes"/>
      <point x="244" y="51"/>
      <point x="243" y="68"/>
      <point x="240" y="80" type="curve"/>
      <point x="160" y="80" type="line"/>
    </contour>
    <contour>
      <point x="57" y="148"/>
      <point x="56" y="131"/>
      <point x="56" y="120" type="curve" smooth="yes"/>
      <point x="56" y="109"/>
      <point x="57" y="93"/>
      <point x="60" y="80" type="curve"/>
      <point x="200" y="80" type="line"/>
      <point x="203" y="93"/>
      <point x="204" y="109"/>
      <point x="204" y="120" type="curve" smooth="yes"/>
      <point x="204" y="131"/>
      <point x="203" y="148"/>
      <point x="200" y="160" type="curve"/>
      <point x="60" y="160" type="line"/>
    </contour>
    <contour>
      <point x="197" y="308"/>
      <point x="196" y="291"/>
      <point x="196" y="280" type="curve" smooth="yes"/>
      <point x="196" y="269"/>
      <point x="197" y="253"/>
      <point x="200" y="240" type="curve"/>
      <point x="340" y="240" type="line"/>
      <point x="343" y="253"/>
      <point x="344" y="269"/>
      <point x="344" y="280" type="curve" smooth="yes"/>
      <point x="344" y="291"/>
      <point x="343" y="308"/>
      <point x="340" y="320" type="curve"/>
      <point x="200" y="320" type="line"/>
    </contour>
    <contour>
      <point x="197" y="148"/>
      <point x="196" y="131"/>
      <point x="196" y="120" type="curve" smooth="yes"/>
      <point x="196" y="109"/>
      <point x="197" y="93"/>
      <point x="200" y="80" type="curve"/>
      <point x="340" y="80" type="line"/>
      <point x="343" y="93"/>
      <point x="344" y="109"/>
      <point x="344" y="120" type="curve" smooth="yes"/>
      <point x="344" y="131"/>
      <point x="343" y="148"/>
      <point x="340" y="160" type="curve"/>
      <point x="200" y="160" type="line"/>
    </contour>
    <contour>
      <point x="257" y="548"/>
      <point x="256" y="531"/>
      <point x="256" y="520" type="curve" smooth="yes"/>
      <point x="256" y="509"/>
      <point x="257" y="493"/>
      <point x="260" y="480" type="curve"/>
      <point x="360" y="480" type="line"/>
      <point x="363" y="493"/>
      <point x="364" y="509"/>
      <point x="364" y="520" type="curve" smooth="yes"/>
      <point x="364" y="531"/>
      <point x="363" y="548"/>
      <point x="360" y="560" type="curve"/>
      <point x="260" y="560" type="line"/>
    </contour>
    <contour>
      <point x="37" y="548"/>
      <point x="36" y="531"/>
      <point x="36" y="520" type="curve" smooth="yes"/>
      <point x="36" y="509"/>
      <point x="37" y="493"/>
      <point x="40" y="480" type="curve"/>
      <point x="140" y="480" type="line"/>
      <point x="143" y="493"/>
      <point x="144" y="509"/>
      <point x="144" y="520" type="curve" smooth="yes"/>
      <point x="144" y="531"/>
      <point x="143" y="548"/>
      <point x="140" y="560" type="curve"/>
      <point x="40" y="560" type="line"/>
    </contour>
  </outline>
</glyph>
<glyph name="logicalnot" format="1">
  <advance width="400"/>
  <unicode hex="00AC"/>
  <outline>
    <contour>
      <point x="277" y="228"/>
      <point x="276" y="211"/>
      <point x="276" y="200" type="curve" smooth="yes"/>
      <point x="276" y="189"/>
      <point x="277" y="173"/>
      <point x="280" y="160" type="curve"/>
      <point x="360" y="160" type="line"/>
      <point x="363" y="173"/>
      <point x="364" y="189"/>
      <point x="364" y="200" type="curve" smooth="yes"/>
      <point x="364" y="211"/>
      <point x="363" y="228"/>
      <point x="360" y="240" type="curve"/>
      <point x="280" y="240" type="line"/>
    </contour>
    <contour>
      <point x="277" y="148"/>
      <point x="276" y="131"/>
      <point x="276" y="120" type="curve" smooth="yes"/>
      <point x="276" y="109"/>
      <point x="277" y="93"/>
      <point x="280" y="80" type="curve"/>
      <point x="360" y="80" type="line"/>
      <point x="363" y="93"/>
      <point x="364" y="109"/>
      <point x="364" y="120" type="curve" smooth="yes"/>
      <point x="364" y="131"/>
      <point x="363" y="148"/>
      <point x="360" y="160" type="curve"/>
      <point x="280" y="160" type="line"/>
    </contour>
    <contour>
      <point x="197" y="308"/>
      <point x="196" y="291"/>
      <point x="196" y="280" type="curve" smooth="yes"/>
      <point x="196" y="269"/>
      <point x="197" y="253"/>
      <point x="200" y="240" type="curve"/>
      <point x="360" y="240" type="line"/>
      <point x="363" y="253"/>
      <point x="364" y="269"/>
      <point x="364" y="280" type="curve" smooth="yes"/>
      <point x="364" y="291"/>
      <point x="363" y="308"/>
      <point x="360" y="320" type="curve"/>
      <point x="200" y="320" type="line"/>
    </contour>
    <contour>
      <point x="37" y="308"/>
      <point x="36" y="291"/>
      <point x="36" y="280" type="curve" smooth="yes"/>
      <point x="36" y="269"/>
      <point x="37" y="253"/>
      <point x="40" y="240" type="curve"/>
      <point x="200" y="240" type="line"/>
      <point x="203" y="253"/>
      <point x="204" y="269"/>
      <point x="204" y="280" type="curve" smooth="yes"/>
      <point x="204" y="291"/>
      <point x="203" y="308"/>
      <point x="200" y="320" type="curve"/>
      <point x="40" y="320" type="line"/>
    </contour>
  </outline>
</glyph>
<glyph name="softhyphen" format="1">
  <advance width="400"/>
  <unicode hex="00AD"/>
  <outline>
    <contour>
      <point x="97" y="308"/>
      <point x="96" y="291"/>
      <point x="96" y="280" type="curve" smooth="yes"/>
      <point x="96" y="269"/>
      <point x="97" y="253"/>
      <point x="100" y="240" type="curve"/>
      <point x="300" y="240" type="line"/>
      <point x="303" y="253"/>
      <point x="304" y="269"/>
      <point x="304" y="280" type="curve" smooth="yes"/>
      <point x="304" y="291"/>
      <point x="303" y="308"/>
      <point x="300" y="320" type="curve"/>
      <point x="100" y="320" type="line"/>
    </contour>
  </outline>
</glyph>
<glyph name="degree" format="1">
  <advance width="400"/>
  <unicode hex="00B0"/>
  <outline>
    <contour>
      <point x="117" y="628"/>
      <point x="116" y="611"/>
      <point x="116" y="600" type="curve" smooth="yes"/>
      <point x="116" y="589"/>
      <point x="117" y="573"/>
      <point x="120" y="560" type="curve"/>
      <point x="280" y="560" type="line"/>
      <point x="283" y="573"/>
      <point x="284" y="589"/>
      <point x="284" y="600" type="curve" smooth="yes"/>
      <point x="284" y="611"/>
      <point x="283" y="628"/>
      <point x="280" y="640" type="curve"/>
      <point x="120" y="640" type="line"/>
    </contour>
    <contour>
      <point x="247" y="468"/>
      <point x="246" y="451"/>
      <point x="246" y="440" type="curve" smooth="yes"/>
      <point x="246" y="429"/>
      <point x="247" y="413"/>
      <point x="250" y="400" type="curve"/>
      <point x="310" y="400" type="line"/>
      <point x="313" y="413"/>
      <point x="314" y="429"/>
      <point x="314" y="440" type="curve" smooth="yes"/>
      <point x="314" y="451"/>
      <point x="313" y="468"/>
      <point x="310" y="480" type="curve"/>
      <point x="250" y="480" type="line"/>
    </contour>
    <contour>
      <point x="247" y="548"/>
      <point x="246" y="531"/>
      <point x="246" y="520" type="curve" smooth="yes"/>
      <point x="246" y="509"/>
      <point x="247" y="493"/>
      <point x="250" y="480" type="curve"/>
      <point x="310" y="480" type="line"/>
      <point x="313" y="493"/>
      <point x="314" y="509"/>
      <point x="314" y="520" type="curve" smooth="yes"/>
      <point x="314" y="531"/>
      <point x="313" y="548"/>
      <point x="310" y="560" type="curve"/>
      <point x="250" y="560" type="line"/>
    </contour>
    <contour>
      <point x="117" y="388"/>
      <point x="116" y="371"/>
      <point x="116" y="360" type="curve" smooth="yes"/>
      <point x="116" y="349"/>
      <point x="117" y="333"/>
      <point x="120" y="320" type="curve"/>
      <point x="280" y="320" type="line"/>
      <point x="283" y="333"/>
      <point x="284" y="349"/>
      <point x="284" y="360" type="curve" smooth="yes"/>
      <point x="284" y="371"/>
      <point x="283" y="388"/>
      <point x="280" y="400" type="curve"/>
      <point x="120" y="400" type="line"/>
    </contour>
    <contour>
      <point x="87" y="468"/>
      <point x="86" y="451"/>
      <point x="86" y="440" type="curve" smooth="yes"/>
      <point x="86" y="429"/>
      <point x="87" y="413"/>
      <point x="90" y="400" type="curve"/>
      <point x="150" y="400" type="line"/>
      <point x="153" y="413"/>
      <point x="154" y="429"/>
      <point x="154" y="440" type="curve" smooth="yes"/>
      <point x="154" y="451"/>
      <point x="153" y="468"/>
      <point x="150" y="480" type="curve"/>
      <point x="90" y="480" type="line"/>
    </contour>
    <contour>
      <point x="87" y="548"/>
      <point x="86" y="531"/>
      <point x="86" y="520" type="curve" smooth="yes"/>
      <point x="86" y="509"/>
      <point x="87" y="493"/>
      <point x="90" y="480" type="curve"/>
      <point x="150" y="480" type="line"/>
      <point x="153" y="493"/>
      <point x="154" y="509"/>
      <point x="154" y="520" type="curve" smooth="yes"/>
      <point x="154" y="531"/>
      <point x="153" y="548"/>
      <point x="150" y="560" type="curve"/>
      <point x="90" y="560" type="line"/>
    </contour>
  </outline>
</glyph>
<glyph name="threesuperior" format="1">
  <advance width="400"/>
  <unicode hex="00B3"/>
  <outline>
    <contour>
      <point x="217" y="548"/>
      <point x="216" y="531"/>
      <point x="216" y="520" type="curve" smooth="yes"/>
      <point x="216" y="509"/>
      <point x="217" y="493"/>
      <point x="220" y="480" type="curve"/>
      <point x="280" y="480" type="line"/>
      <point x="283" y="493"/>
      <point x="284" y="509"/>
      <point x="284" y="520" type="curve" smooth="yes"/>
      <point x="284" y="531"/>
      <point x="283" y="548"/>
      <point x="280" y="560" type="curve"/>
      <point x="220" y="560" type="line"/>
    </contour>
    <contour>
      <point x="117" y="628"/>
      <point x="116" y="611"/>
      <point x="116" y="600" type="curve" smooth="yes"/>
      <point x="116" y="589"/>
      <point x="117" y="573"/>
      <point x="120" y="560" type="curve"/>
      <point x="250" y="560" type="line"/>
      <point x="253" y="573"/>
      <point x="254" y="589"/>
      <point x="254" y="600" type="curve" smooth="yes"/>
      <point x="254" y="611"/>
      <point x="253" y="628"/>
      <point x="250" y="640" type="curve"/>
      <point x="120" y="640" type="line"/>
    </contour>
    <contour>
      <point x="147" y="468"/>
      <point x="146" y="451"/>
      <point x="146" y="440" type="curve" smooth="yes"/>
      <point x="146" y="429"/>
      <point x="147" y="413"/>
      <point x="150" y="400" type="curve"/>
      <point x="250" y="400" type="line"/>
      <point x="253" y="413"/>
      <point x="254" y="429"/>
      <point x="254" y="440" type="curve" smooth="yes"/>
      <point x="254" y="451"/>
      <point x="253" y="468"/>
      <point x="250" y="480" type="curve"/>
      <point x="150" y="480" type="line"/>
    </contour>
    <contour>
      <point x="217" y="388"/>
      <point x="216" y="371"/>
      <point x="216" y="360" type="curve" smooth="yes"/>
      <point x="216" y="349"/>
      <point x="217" y="333"/>
      <point x="220" y="320" type="curve"/>
      <point x="280" y="320" type="line"/>
      <point x="283" y="333"/>
      <point x="284" y="349"/>
      <point x="284" y="360" type="curve" smooth="yes"/>
      <point x="284" y="371"/>
      <point x="283" y="388"/>
      <point x="280" y="400" type="curve"/>
      <point x="220" y="400" type="line"/>
    </contour>
    <contour>
      <point x="117" y="308"/>
      <point x="116" y="291"/>
      <point x="116" y="280" type="curve" smooth="yes"/>
      <point x="116" y="269"/>
      <point x="117" y="253"/>
      <point x="120" y="240" type="curve"/>
      <point x="250" y="240" type="line"/>
      <point x="253" y="253"/>
      <point x="254" y="269"/>
      <point x="254" y="280" type="curve" smooth="yes"/>
      <point x="254" y="291"/>
      <point x="253" y="308"/>
      <point x="250" y="320" type="curve"/>
      <point x="120" y="320" type="line"/>
    </contour>
  </outline>
</glyph>
<glyph name="acute" format="1">
  <advance width="400"/>
  <unicode hex="00B4"/>
  <outline>
    <contour>
      <point x="157" y="548"/>
      <point x="156" y="531"/>
      <point x="156" y="520" type="curve" smooth="yes"/>
      <point x="156" y="509"/>
      <point x="157" y="493"/>
      <point x="160" y="480" type="curve"/>
      <point x="240" y="480" type="line"/>
      <point x="243" y="493"/>
      <point x="244" y="509"/>
      <point x="244" y="520" type="curve" smooth="yes"/>
      <point x="244" y="531"/>
      <point x="243" y="548"/>
      <point x="240" y="560" type="curve"/>
      <point x="160" y="560" type="line"/>
    </contour>
    <contour>
      <point x="197" y="628"/>
      <point x="196" y="611"/>
      <point x="196" y="600" type="curve" smooth="yes"/>
      <point x="196" y="589"/>
      <point x="197" y="573"/>
      <point x="200" y="560" type="curve"/>
      <point x="280" y="560" type="line"/>
      <point x="283" y="573"/>
      <point x="284" y="589"/>
      <point x="284" y="600" type="curve" smooth="yes"/>
      <point x="284" y="611"/>
      <point x="283" y="628"/>
      <point x="280" y="640" type="curve"/>
      <point x="200" y="640" type="line"/>
    </contour>
    <contour>
      <point x="200" y="640" type="move" name="top"/>
    </contour>
    <contour>
      <point x="200" y="400" type="move" name="_top"/>
    </contour>
  </outline>
</glyph>
<glyph name="micro" format="1">
  <advance width="400"/>
  <unicode hex="00B5"/>
  <outline>
    <contour>
      <point x="67" y="228"/>
      <point x="66" y="211"/>
      <point x="66" y="200" type="curve" smooth="yes"/>
      <point x="66" y="189"/>
      <point x="67" y="173"/>
      <point x="70" y="160" type="curve"/>
      <point x="150" y="160" type="line"/>
      <point x="153" y="173"/>
      <point x="154" y="189"/>
      <point x="154" y="200" type="curve" smooth="yes"/>
      <point x="154" y="211"/>
      <point x="153" y="228"/>
      <point x="150" y="240" type="curve"/>
      <point x="70" y="240" type="line"/>
    </contour>
    <contour>
      <point x="247" y="148"/>
      <point x="246" y="131"/>
      <point x="246" y="120" type="curve" smooth="yes"/>
      <point x="246" y="109"/>
      <point x="247" y="93"/>
      <point x="250" y="80" type="curve"/>
      <point x="330" y="80" type="line"/>
      <point x="333" y="93"/>
      <point x="334" y="109"/>
      <point x="334" y="120" type="curve" smooth="yes"/>
      <point x="334" y="131"/>
      <point x="333" y="148"/>
      <point x="330" y="160" type="curve"/>
      <point x="250" y="160" type="line"/>
    </contour>
    <contour>
      <point x="97" y="388"/>
      <point x="96" y="371"/>
      <point x="96" y="360" type="curve" smooth="yes"/>
      <point x="96" y="349"/>
      <point x="97" y="333"/>
      <point x="100" y="320" type="curve"/>
      <point x="180" y="320" type="line"/>
      <point x="183" y="333"/>
      <point x="184" y="349"/>
      <point x="184" y="360" type="curve" smooth="yes"/>
      <point x="184" y="371"/>
      <point x="183" y="388"/>
      <point x="180" y="400" type="curve"/>
      <point x="100" y="400" type="line"/>
    </contour>
    <contour>
      <point x="147" y="68"/>
      <point x="146" y="51"/>
      <point x="146" y="40" type="curve" smooth="yes"/>
      <point x="146" y="29"/>
      <point x="147" y="13"/>
      <point x="150" y="0" type="curve"/>
      <point x="250" y="0" type="line"/>
      <point x="253" y="13"/>
      <point x="254" y="29"/>
      <point x="254" y="40" type="curve" smooth="yes"/>
      <point x="254" y="51"/>
      <point x="253" y="68"/>
      <point x="250" y="80" type="curve"/>
      <point x="150" y="80" type="line"/>
    </contour>
    <contour>
      <point x="277" y="308"/>
      <point x="276" y="291"/>
      <point x="276" y="280" type="curve" smooth="yes"/>
      <point x="276" y="269"/>
      <point x="277" y="253"/>
      <point x="280" y="240" type="curve"/>
      <point x="360" y="240" type="line"/>
      <point x="363" y="253"/>
      <point x="364" y="269"/>
      <point x="364" y="280" type="curve" smooth="yes"/>
      <point x="364" y="291"/>
      <point x="363" y="308"/>
      <point x="360" y="320" type="curve"/>
      <point x="280" y="320" type="line"/>
    </contour>
    <contour>
      <point x="247" y="228"/>
      <point x="246" y="211"/>
      <point x="246" y="200" type="curve" smooth="yes"/>
      <point x="246" y="189"/>
      <point x="247" y="173"/>
      <point x="250" y="160" type="curve"/>
      <point x="330" y="160" type="line"/>
      <point x="333" y="173"/>
      <point x="334" y="189"/>
      <point x="334" y="200" type="curve" smooth="yes"/>
      <point x="334" y="211"/>
      <point x="333" y="228"/>
      <point x="330" y="240" type="curve"/>
      <point x="250" y="240" type="line"/>
    </contour>
    <contour>
      <point x="277" y="68"/>
      <point x="276" y="51"/>
      <point x="276" y="40" type="curve" smooth="yes"/>
      <point x="276" y="29"/>
      <point x="277" y="13"/>
      <point x="280" y="0" type="curve"/>
      <point x="360" y="0" type="line"/>
      <point x="363" y="13"/>
      <point x="364" y="29"/>
      <point x="364" y="40" type="curve" smooth="yes"/>
      <point x="364" y="51"/>
      <point x="363" y="68"/>
      <point x="360" y="80" type="curve"/>
      <point x="280" y="80" type="line"/>
    </contour>
    <contour>
      <point x="97" y="308"/>
      <point x="96" y="291"/>
      <point x="96" y="280" type="curve" smooth="yes"/>
      <point x="96" y="269"/>
      <point x="97" y="253"/>
      <point x="100" y="240" type="curve"/>
      <point x="180" y="240" type="line"/>
      <point x="183" y="253"/>
      <point x="184" y="269"/>
      <point x="184" y="280" type="curve" smooth="yes"/>
      <point x="184" y="291"/>
      <point x="183" y="308"/>
      <point x="180" y="320" type="curve"/>
      <point x="100" y="320" type="line"/>
    </contour>
    <contour>
      <point x="277" y="388"/>
      <point x="276" y="371"/>
      <point x="276" y="360" type="curve" smooth="yes"/>
      <point x="276" y="349"/>
      <point x="277" y="333"/>
      <point x="280" y="320" type="curve"/>
      <point x="360" y="320" type="line"/>
      <point x="363" y="333"/>
      <point x="364" y="349"/>
      <point x="364" y="360" type="curve" smooth="yes"/>
      <point x="364" y="371"/>
      <point x="363" y="388"/>
      <point x="360" y="400" type="curve"/>
      <point x="280" y="400" type="line"/>
    </contour>
    <contour>
      <point x="37" y="-12"/>
      <point x="36" y="-29"/>
      <point x="36" y="-40" type="curve" smooth="yes"/>
      <point x="36" y="-51"/>
      <point x="37" y="-67"/>
      <point x="40" y="-80" type="curve"/>
      <point x="120" y="-80" type="line"/>
      <point x="123" y="-67"/>
      <point x="124" y="-51"/>
      <point x="124" y="-40" type="curve" smooth="yes"/>
      <point x="124" y="-29"/>
      <point x="123" y="-12"/>
      <point x="120" y="0" type="curve"/>
      <point x="40" y="0" type="line"/>
    </contour>
    <contour>
      <point x="37" y="68"/>
      <point x="36" y="51"/>
      <point x="36" y="40" type="curve" smooth="yes"/>
      <point x="36" y="29"/>
      <point x="37" y="13"/>
      <point x="40" y="0" type="curve"/>
      <point x="120" y="0" type="line"/>
      <point x="123" y="13"/>
      <point x="124" y="29"/>
      <point x="124" y="40" type="curve" smooth="yes"/>
      <point x="124" y="51"/>
      <point x="123" y="68"/>
      <point x="120" y="80" type="curve"/>
      <point x="40" y="80" type="line"/>
    </contour>
    <contour>
      <point x="-3" y="-92"/>
      <point x="-4" y="-109"/>
      <point x="-4" y="-120" type="curve" smooth="yes"/>
      <point x="-4" y="-131"/>
      <point x="-3" y="-147"/>
      <point x="0" y="-160" type="curve"/>
      <point x="80" y="-160" type="line"/>
      <point x="83" y="-147"/>
      <point x="84" y="-131"/>
      <point x="84" y="-120" type="curve" smooth="yes"/>
      <point x="84" y="-109"/>
      <point x="83" y="-92"/>
      <point x="80" y="-80" type="curve"/>
      <point x="0" y="-80" type="line"/>
    </contour>
    <contour>
      <point x="67" y="148"/>
      <point x="66" y="131"/>
      <point x="66" y="120" type="curve" smooth="yes"/>
      <point x="66" y="109"/>
      <point x="67" y="93"/>
      <point x="70" y="80" type="curve"/>
      <point x="150" y="80" type="line"/>
      <point x="153" y="93"/>
      <point x="154" y="109"/>
      <point x="154" y="120" type="curve" smooth="yes"/>
      <point x="154" y="131"/>
      <point x="153" y="148"/>
      <point x="150" y="160" type="curve"/>
      <point x="70" y="160" type="line"/>
    </contour>
  </outline>
</glyph>
<glyph name="paragraph" format="1">
  <advance width="400"/>
  <unicode hex="00B6"/>
  <outline>
    <contour>
      <point x="257" y="548"/>
      <point x="256" y="531"/>
      <point x="256" y="520" type="curve" smooth="yes"/>
      <point x="256" y="509"/>
      <point x="257" y="493"/>
      <point x="260" y="480" type="curve"/>
      <point x="320" y="480" type="line"/>
      <point x="323" y="493"/>
      <point x="324" y="509"/>
      <point x="324" y="520" type="curve" smooth="yes"/>
      <point x="324" y="531"/>
      <point x="323" y="548"/>
      <point x="320" y="560" type="curve"/>
      <point x="260" y="560" type="line"/>
    </contour>
    <contour>
      <point x="257" y="468"/>
      <point x="256" y="451"/>
      <point x="256" y="440" type="curve" smooth="yes"/>
      <point x="256" y="429"/>
      <point x="257" y="413"/>
      <point x="260" y="400" type="curve"/>
      <point x="320" y="400" type="line"/>
      <point x="323" y="413"/>
      <point x="324" y="429"/>
      <point x="324" y="440" type="curve" smooth="yes"/>
      <point x="324" y="451"/>
      <point x="323" y="468"/>
      <point x="320" y="480" type="curve"/>
      <point x="260" y="480" type="line"/>
    </contour>
    <contour>
      <point x="257" y="388"/>
      <point x="256" y="371"/>
      <point x="256" y="360" type="curve" smooth="yes"/>
      <point x="256" y="349"/>
      <point x="257" y="333"/>
      <point x="260" y="320" type="curve"/>
      <point x="320" y="320" type="line"/>
      <point x="323" y="333"/>
      <point x="324" y="349"/>
      <point x="324" y="360" type="curve" smooth="yes"/>
      <point x="324" y="371"/>
      <point x="323" y="388"/>
      <point x="320" y="400" type="curve"/>
      <point x="260" y="400" type="line"/>
    </contour>
    <contour>
      <point x="257" y="308"/>
      <point x="256" y="291"/>
      <point x="256" y="280" type="curve" smooth="yes"/>
      <point x="256" y="269"/>
      <point x="257" y="253"/>
      <point x="260" y="240" type="curve"/>
      <point x="320" y="240" type="line"/>
      <point x="323" y="253"/>
      <point x="324" y="269"/>
      <point x="324" y="280" type="curve" smooth="yes"/>
      <point x="324" y="291"/>
      <point x="323" y="308"/>
      <point x="320" y="320" type="curve"/>
      <point x="260" y="320" type="line"/>
    </contour>
    <contour>
      <point x="257" y="228"/>
      <point x="256" y="211"/>
      <point x="256" y="200" type="curve" smooth="yes"/>
      <point x="256" y="189"/>
      <point x="257" y="173"/>
      <point x="260" y="160" type="curve"/>
      <point x="320" y="160" type="line"/>
      <point x="323" y="173"/>
      <point x="324" y="189"/>
      <point x="324" y="200" type="curve" smooth="yes"/>
      <point x="324" y="211"/>
      <point x="323" y="228"/>
      <point x="320" y="240" type="curve"/>
      <point x="260" y="240" type="line"/>
    </contour>
    <contour>
      <point x="257" y="148"/>
      <point x="256" y="131"/>
      <point x="256" y="120" type="curve" smooth="yes"/>
      <point x="256" y="109"/>
      <point x="257" y="93"/>
      <point x="260" y="80" type="curve"/>
      <point x="320" y="80" type="line"/>
      <point x="323" y="93"/>
      <point x="324" y="109"/>
      <point x="324" y="120" type="curve" smooth="yes"/>
      <point x="324" y="131"/>
      <point x="323" y="148"/>
      <point x="320" y="160" type="curve"/>
      <point x="260" y="160" type="line"/>
    </contour>
    <contour>
      <point x="257" y="68"/>
      <point x="256" y="51"/>
      <point x="256" y="40" type="curve" smooth="yes"/>
      <point x="256" y="29"/>
      <point x="257" y="13"/>
      <point x="260" y="0" type="curve"/>
      <point x="320" y="0" type="line"/>
      <point x="323" y="13"/>
      <point x="324" y="29"/>
      <point x="324" y="40" type="curve" smooth="yes"/>
      <point x="324" y="51"/>
      <point x="323" y="68"/>
      <point x="320" y="80" type="curve"/>
      <point x="260" y="80" type="line"/>
    </contour>
    <contour>
      <point x="257" y="628"/>
      <point x="256" y="611"/>
      <point x="256" y="600" type="curve" smooth="yes"/>
      <point x="256" y="589"/>
      <point x="257" y="573"/>
      <point x="260" y="560" type="curve"/>
      <point x="360" y="560" type="line"/>
      <point x="363" y="573"/>
      <point x="364" y="589"/>
      <point x="364" y="600" type="curve" smooth="yes"/>
      <point x="364" y="611"/>
      <point x="363" y="628"/>
      <point x="360" y="640" type="curve"/>
      <point x="260" y="640" type="line"/>
    </contour>
    <contour>
      <point x="117" y="628"/>
      <point x="116" y="611"/>
      <point x="116" y="600" type="curve" smooth="yes"/>
      <point x="116" y="589"/>
      <point x="117" y="573"/>
      <point x="120" y="560" type="curve"/>
      <point x="260" y="560" type="line"/>
      <point x="263" y="573"/>
      <point x="264" y="589"/>
      <point x="264" y="600" type="curve" smooth="yes"/>
      <point x="264" y="611"/>
      <point x="263" y="628"/>
      <point x="260" y="640" type="curve"/>
      <point x="120" y="640" type="line"/>
    </contour>
    <contour>
      <point x="117" y="228"/>
      <point x="116" y="211"/>
      <point x="116" y="200" type="curve" smooth="yes"/>
      <point x="116" y="189"/>
      <point x="117" y="173"/>
      <point x="120" y="160" type="curve"/>
      <point x="200" y="160" type="line"/>
      <point x="203" y="173"/>
      <point x="204" y="189"/>
      <point x="204" y="200" type="curve" smooth="yes"/>
      <point x="204" y="211"/>
      <point x="203" y="228"/>
      <point x="200" y="240" type="curve"/>
      <point x="120" y="240" type="line"/>
    </contour>
    <contour>
      <point x="137" y="148"/>
      <point x="136" y="131"/>
      <point x="136" y="120" type="curve" smooth="yes"/>
      <point x="136" y="109"/>
      <point x="137" y="93"/>
      <point x="140" y="80" type="curve"/>
      <point x="200" y="80" type="line"/>
      <point x="203" y="93"/>
      <point x="204" y="109"/>
      <point x="204" y="120" type="curve" smooth="yes"/>
      <point x="204" y="131"/>
      <point x="203" y="148"/>
      <point x="200" y="160" type="curve"/>
      <point x="140" y="160" type="line"/>
    </contour>
    <contour>
      <point x="137" y="68"/>
      <point x="136" y="51"/>
      <point x="136" y="40" type="curve" smooth="yes"/>
      <point x="136" y="29"/>
      <point x="137" y="13"/>
      <point x="140" y="0" type="curve"/>
      <point x="200" y="0" type="line"/>
      <point x="203" y="13"/>
      <point x="204" y="29"/>
      <point x="204" y="40" type="curve" smooth="yes"/>
      <point x="204" y="51"/>
      <point x="203" y="68"/>
      <point x="200" y="80" type="curve"/>
      <point x="140" y="80" type="line"/>
    </contour>
    <contour>
      <point x="77" y="548"/>
      <point x="76" y="531"/>
      <point x="76" y="520" type="curve" smooth="yes"/>
      <point x="76" y="509"/>
      <point x="77" y="493"/>
      <point x="80" y="480" type="curve"/>
      <point x="200" y="480" type="line"/>
      <point x="203" y="493"/>
      <point x="204" y="509"/>
      <point x="204" y="520" type="curve" smooth="yes"/>
      <point x="204" y="531"/>
      <point x="203" y="548"/>
      <point x="200" y="560" type="curve"/>
      <point x="80" y="560" type="line"/>
    </contour>
    <contour>
      <point x="77" y="308"/>
      <point x="76" y="291"/>
      <point x="76" y="280" type="curve" smooth="yes"/>
      <point x="76" y="269"/>
      <point x="77" y="253"/>
      <point x="80" y="240" type="curve"/>
      <point x="200" y="240" type="line"/>
      <point x="203" y="253"/>
      <point x="204" y="269"/>
      <point x="204" y="280" type="curve" smooth="yes"/>
      <point x="204" y="291"/>
      <point x="203" y="308"/>
      <point x="200" y="320" type="curve"/>
      <point x="80" y="320" type="line"/>
    </contour>
    <contour>
      <point x="37" y="468"/>
      <point x="36" y="451"/>
      <point x="36" y="440" type="curve" smooth="yes"/>
      <point x="36" y="429"/>
      <point x="37" y="413"/>
      <point x="40" y="400" type="curve"/>
      <point x="200" y="400" type="line"/>
      <point x="203" y="413"/>
      <point x="204" y="429"/>
      <point x="204" y="440" type="curve" smooth="yes"/>
      <point x="204" y="451"/>
      <point x="203" y="468"/>
      <point x="200" y="480" type="curve"/>
      <point x="40" y="480" type="line"/>
    </contour>
    <contour>
      <point x="37" y="388"/>
      <point x="36" y="371"/>
      <point x="36" y="360" type="curve" smooth="yes"/>
      <point x="36" y="349"/>
      <point x="37" y="333"/>
      <point x="40" y="320" type="curve"/>
      <point x="200" y="320" type="line"/>
      <point x="203" y="333"/>
      <point x="204" y="349"/>
      <point x="204" y="360" type="curve" smooth="yes"/>
      <point x="204" y="371"/>
      <point x="203" y="388"/>
      <point x="200" y="400" type="curve"/>
      <point x="40" y="400" type="line"/>
    </contour>
    <contour>
      <point x="257" y="-12"/>
      <point x="256" y="-29"/>
      <point x="256" y="-40" type="curve" smooth="yes"/>
      <point x="256" y="-51"/>
      <point x="257" y="-67"/>
      <point x="260" y="-80" type="curve"/>
      <point x="320" y="-80" type="line"/>
      <point x="323" y="-67"/>
      <point x="324" y="-51"/>
      <point x="324" y="-40" type="curve" smooth="yes"/>
      <point x="324" y="-29"/>
      <point x="323" y="-12"/>
      <point x="320" y="0" type="curve"/>
      <point x="260" y="0" type="line"/>
    </contour>
    <contour>
      <point x="137" y="-12"/>
      <point x="136" y="-29"/>
      <point x="136" y="-40" type="curve" smooth="yes"/>
      <point x="136" y="-51"/>
      <point x="137" y="-67"/>
      <point x="140" y="-80" type="curve"/>
      <point x="200" y="-80" type="line"/>
      <point x="203" y="-67"/>
      <point x="204" y="-51"/>
      <point x="204" y="-40" type="curve" smooth="yes"/>
      <point x="204" y="-29"/>
      <point x="203" y="-12"/>
      <point x="200" y="0" type="curve"/>
      <point x="140" y="0" type="line"/>
    </contour>
  </outline>
</glyph>
<glyph name="periodcentered" format="1">
  <advance width="400"/>
  <unicode hex="00B7"/>
  <outline>
    <contour>
      <point x="147" y="308"/>
      <point x="146" y="291"/>
      <point x="146" y="280" type="curve" smooth="yes"/>
      <point x="146" y="269"/>
      <point x="147" y="253"/>
      <point x="150" y="240" type="curve"/>
      <point x="250" y="240" type="line"/>
      <point x="253" y="253"/>
      <point x="254" y="269"/>
      <point x="254" y="280" type="curve" smooth="yes"/>
      <point x="254" y="291"/>
      <point x="253" y="308"/>
      <point x="250" y="320" type="curve"/>
      <point x="150" y="320" type="line"/>
    </contour>
    <contour>
      <point x="147" y="228"/>
      <point x="146" y="211"/>
      <point x="146" y="200" type="curve" smooth="yes"/>
      <point x="146" y="189"/>
      <point x="147" y="173"/>
      <point x="150" y="160" type="curve"/>
      <point x="250" y="160" type="line"/>
      <point x="253" y="173"/>
      <point x="254" y="189"/>
      <point x="254" y="200" type="curve" smooth="yes"/>
      <point x="254" y="211"/>
      <point x="253" y="228"/>
      <point x="250" y="240" type="curve"/>
      <point x="150" y="240" type="line"/>
    </contour>
  </outline>
</glyph>
<glyph name="onehalf" format="1">
  <advance width="400"/>
  <unicode hex="00BD"/>
  <outline>
    <contour>
      <point x="152" y="308"/>
      <point x="151" y="291"/>
      <point x="151" y="280" type="curve" smooth="yes"/>
      <point x="151" y="269"/>
      <point x="152" y="253"/>
      <point x="155" y="240" type="curve"/>
      <point x="215" y="240" type="line"/>
      <point x="218" y="253"/>
      <point x="219" y="269"/>
      <point x="219" y="280" type="curve" smooth="yes"/>
      <point x="219" y="291"/>
      <point x="218" y="308"/>
      <point x="215" y="320" type="curve"/>
      <point x="155" y="320" type="line"/>
    </contour>
    <contour>
      <point x="122" y="228"/>
      <point x="121" y="211"/>
      <point x="121" y="200" type="curve" smooth="yes"/>
      <point x="121" y="189"/>
      <point x="122" y="173"/>
      <point x="125" y="160" type="curve"/>
      <point x="185" y="160" type="line"/>
      <point x="188" y="173"/>
      <point x="189" y="189"/>
      <point x="189" y="200" type="curve" smooth="yes"/>
      <point x="189" y="211"/>
      <point x="188" y="228"/>
      <point x="185" y="240" type="curve"/>
      <point x="125" y="240" type="line"/>
    </contour>
    <contour>
      <point x="92" y="148"/>
      <point x="91" y="131"/>
      <point x="91" y="120" type="curve" smooth="yes"/>
      <point x="91" y="109"/>
      <point x="92" y="93"/>
      <point x="95" y="80" type="curve"/>
      <point x="155" y="80" type="line"/>
      <point x="158" y="93"/>
      <point x="159" y="109"/>
      <point x="159" y="120" type="curve" smooth="yes"/>
      <point x="159" y="131"/>
      <point x="158" y="148"/>
      <point x="155" y="160" type="curve"/>
      <point x="95" y="160" type="line"/>
    </contour>
    <contour>
      <point x="212" y="468"/>
      <point x="211" y="451"/>
      <point x="211" y="440" type="curve" smooth="yes"/>
      <point x="211" y="429"/>
      <point x="212" y="413"/>
      <point x="215" y="400" type="curve"/>
      <point x="275" y="400" type="line"/>
      <point x="278" y="413"/>
      <point x="279" y="429"/>
      <point x="279" y="440" type="curve" smooth="yes"/>
      <point x="279" y="451"/>
      <point x="278" y="468"/>
      <point x="275" y="480" type="curve"/>
      <point x="215" y="480" type="line"/>
    </contour>
    <contour>
      <point x="242" y="548"/>
      <point x="241" y="531"/>
      <point x="241" y="520" type="curve" smooth="yes"/>
      <point x="241" y="509"/>
      <point x="242" y="493"/>
      <point x="245" y="480" type="curve"/>
      <point x="305" y="480" type="line"/>
      <point x="308" y="493"/>
      <point x="309" y="509"/>
      <point x="309" y="520" type="curve" smooth="yes"/>
      <point x="309" y="531"/>
      <point x="308" y="548"/>
      <point x="305" y="560" type="curve"/>
      <point x="245" y="560" type="line"/>
    </contour>
    <contour>
      <point x="22" y="548"/>
      <point x="21" y="531"/>
      <point x="21" y="520" type="curve" smooth="yes"/>
      <point x="21" y="509"/>
      <point x="22" y="493"/>
      <point x="25" y="480" type="curve"/>
      <point x="125" y="480" type="line"/>
      <point x="128" y="493"/>
      <point x="129" y="509"/>
      <point x="129" y="520" type="curve" smooth="yes"/>
      <point x="129" y="531"/>
      <point x="128" y="548"/>
      <point x="125" y="560" type="curve"/>
      <point x="25" y="560" type="line"/>
    </contour>
    <contour>
      <point x="62" y="628"/>
      <point x="61" y="611"/>
      <point x="61" y="600" type="curve" smooth="yes"/>
      <point x="61" y="589"/>
      <point x="62" y="573"/>
      <point x="65" y="560" type="curve"/>
      <point x="125" y="560" type="line"/>
      <point x="128" y="573"/>
      <point x="129" y="589"/>
      <point x="129" y="600" type="curve" smooth="yes"/>
      <point x="129" y="611"/>
      <point x="128" y="628"/>
      <point x="125" y="640" type="curve"/>
      <point x="65" y="640" type="line"/>
    </contour>
    <contour>
      <point x="62" y="468"/>
      <point x="61" y="451"/>
      <point x="61" y="440" type="curve" smooth="yes"/>
      <point x="61" y="429"/>
      <point x="62" y="413"/>
      <point x="65" y="400" type="curve"/>
      <point x="125" y="400" type="line"/>
      <point x="128" y="413"/>
      <point x="129" y="429"/>
      <point x="129" y="440" type="curve" smooth="yes"/>
      <point x="129" y="451"/>
      <point x="128" y="468"/>
      <point x="125" y="480" type="curve"/>
      <point x="65" y="480" type="line"/>
    </contour>
    <contour>
      <point x="62" y="388"/>
      <point x="61" y="371"/>
      <point x="61" y="360" type="curve" smooth="yes"/>
      <point x="61" y="349"/>
      <point x="62" y="333"/>
      <point x="65" y="320" type="curve"/>
      <point x="125" y="320" type="line"/>
      <point x="128" y="333"/>
      <point x="129" y="349"/>
      <point x="129" y="360" type="curve" smooth="yes"/>
      <point x="129" y="371"/>
      <point x="128" y="388"/>
      <point x="125" y="400" type="curve"/>
      <point x="65" y="400" type="line"/>
    </contour>
    <contour>
      <point x="62" y="308"/>
      <point x="61" y="291"/>
      <point x="61" y="280" type="curve" smooth="yes"/>
      <point x="61" y="269"/>
      <point x="62" y="253"/>
      <point x="65" y="240" type="curve"/>
      <point x="125" y="240" type="line"/>
      <point x="128" y="253"/>
      <point x="129" y="269"/>
      <point x="129" y="280" type="curve" smooth="yes"/>
      <point x="129" y="291"/>
      <point x="128" y="308"/>
      <point x="125" y="320" type="curve"/>
      <point x="65" y="320" type="line"/>
    </contour>
    <contour>
      <point x="267" y="228"/>
      <point x="266" y="211"/>
      <point x="266" y="200" type="curve" smooth="yes"/>
      <point x="266" y="189"/>
      <point x="267" y="173"/>
      <point x="270" y="160" type="curve"/>
      <point x="330" y="160" type="line"/>
      <point x="333" y="173"/>
      <point x="334" y="189"/>
      <point x="334" y="200" type="curve" smooth="yes"/>
      <point x="334" y="211"/>
      <point x="333" y="228"/>
      <point x="330" y="240" type="curve"/>
      <point x="270" y="240" type="line"/>
    </contour>
    <contour>
      <point x="297" y="308"/>
      <point x="296" y="291"/>
      <point x="296" y="280" type="curve" smooth="yes"/>
      <point x="296" y="269"/>
      <point x="297" y="253"/>
      <point x="300" y="240" type="curve"/>
      <point x="360" y="240" type="line"/>
      <point x="363" y="253"/>
      <point x="364" y="269"/>
      <point x="364" y="280" type="curve" smooth="yes"/>
      <point x="364" y="291"/>
      <point x="363" y="308"/>
      <point x="360" y="320" type="curve"/>
      <point x="300" y="320" type="line"/>
    </contour>
    <contour>
      <point x="237" y="148"/>
      <point x="236" y="131"/>
      <point x="236" y="120" type="curve" smooth="yes"/>
      <point x="236" y="109"/>
      <point x="237" y="93"/>
      <point x="240" y="80" type="curve"/>
      <point x="300" y="80" type="line"/>
      <point x="303" y="93"/>
      <point x="304" y="109"/>
      <point x="304" y="120" type="curve" smooth="yes"/>
      <point x="304" y="131"/>
      <point x="303" y="148"/>
      <point x="300" y="160" type="curve"/>
      <point x="240" y="160" type="line"/>
    </contour>
    <contour>
      <point x="197" y="68"/>
      <point x="196" y="51"/>
      <point x="196" y="40" type="curve" smooth="yes"/>
      <point x="196" y="29"/>
      <point x="197" y="13"/>
      <point x="200" y="0" type="curve"/>
      <point x="360" y="0" type="line"/>
      <point x="363" y="13"/>
      <point x="364" y="29"/>
      <point x="364" y="40" type="curve" smooth="yes"/>
      <point x="364" y="51"/>
      <point x="363" y="68"/>
      <point x="360" y="80" type="curve"/>
      <point x="200" y="80" type="line"/>
    </contour>
    <contour>
      <point x="182" y="388"/>
      <point x="181" y="371"/>
      <point x="181" y="360" type="curve" smooth="yes"/>
      <point x="181" y="349"/>
      <point x="182" y="333"/>
      <point x="185" y="320" type="curve"/>
      <point x="330" y="320" type="line"/>
      <point x="333" y="333"/>
      <point x="334" y="349"/>
      <point x="334" y="360" type="curve" smooth="yes"/>
      <point x="334" y="371"/>
      <point x="333" y="388"/>
      <point x="330" y="400" type="curve"/>
      <point x="185" y="400" type="line"/>
    </contour>
  </outline>
</glyph>
<glyph name="threequarters" format="1">
  <advance width="400"/>
  <unicode hex="00BE"/>
  <outline>
    <contour>
      <point x="152" y="308"/>
      <point x="151" y="291"/>
      <point x="151" y="280" type="curve" smooth="yes"/>
      <point x="151" y="269"/>
      <point x="152" y="253"/>
      <point x="155" y="240" type="curve"/>
      <point x="215" y="240" type="line"/>
      <point x="218" y="253"/>
      <point x="219" y="269"/>
      <point x="219" y="280" type="curve" smooth="yes"/>
      <point x="219" y="291"/>
      <point x="218" y="308"/>
      <point x="215" y="320" type="curve"/>
      <point x="155" y="320" type="line"/>
    </contour>
    <contour>
      <point x="122" y="228"/>
      <point x="121" y="211"/>
      <point x="121" y="200" type="curve" smooth="yes"/>
      <point x="121" y="189"/>
      <point x="122" y="173"/>
      <point x="125" y="160" type="curve"/>
      <point x="185" y="160" type="line"/>
      <point x="188" y="173"/>
      <point x="189" y="189"/>
      <point x="189" y="200" type="curve" smooth="yes"/>
      <point x="189" y="211"/>
      <point x="188" y="228"/>
      <point x="185" y="240" type="curve"/>
      <point x="125" y="240" type="line"/>
    </contour>
    <contour>
      <point x="92" y="148"/>
      <point x="91" y="131"/>
      <point x="91" y="120" type="curve" smooth="yes"/>
      <point x="91" y="109"/>
      <point x="92" y="93"/>
      <point x="95" y="80" type="curve"/>
      <point x="155" y="80" type="line"/>
      <point x="158" y="93"/>
      <point x="159" y="109"/>
      <point x="159" y="120" type="curve" smooth="yes"/>
      <point x="159" y="131"/>
      <point x="158" y="148"/>
      <point x="155" y="160" type="curve"/>
      <point x="95" y="160" type="line"/>
    </contour>
    <contour>
      <point x="212" y="468"/>
      <point x="211" y="451"/>
      <point x="211" y="440" type="curve" smooth="yes"/>
      <point x="211" y="429"/>
      <point x="212" y="413"/>
      <point x="215" y="400" type="curve"/>
      <point x="275" y="400" type="line"/>
      <point x="278" y="413"/>
      <point x="279" y="429"/>
      <point x="279" y="440" type="curve" smooth="yes"/>
      <point x="279" y="451"/>
      <point x="278" y="468"/>
      <point x="275" y="480" type="curve"/>
      <point x="215" y="480" type="line"/>
    </contour>
    <contour>
      <point x="242" y="548"/>
      <point x="241" y="531"/>
      <point x="241" y="520" type="curve" smooth="yes"/>
      <point x="241" y="509"/>
      <point x="242" y="493"/>
      <point x="245" y="480" type="curve"/>
      <point x="305" y="480" type="line"/>
      <point x="308" y="493"/>
      <point x="309" y="509"/>
      <point x="309" y="520" type="curve" smooth="yes"/>
      <point x="309" y="531"/>
      <point x="308" y="548"/>
      <point x="305" y="560" type="curve"/>
      <point x="245" y="560" type="line"/>
    </contour>
    <contour>
      <point x="297" y="148"/>
      <point x="296" y="131"/>
      <point x="296" y="120" type="curve" smooth="yes"/>
      <point x="296" y="109"/>
      <point x="297" y="93"/>
      <point x="300" y="80" type="curve"/>
      <point x="360" y="80" type="line"/>
      <point x="363" y="93"/>
      <point x="364" y="109"/>
      <point x="364" y="120" type="curve" smooth="yes"/>
      <point x="364" y="131"/>
      <point x="363" y="148"/>
      <point x="360" y="160" type="curve"/>
      <point x="300" y="160" type="line"/>
    </contour>
    <contour>
      <point x="297" y="68"/>
      <point x="296" y="51"/>
      <point x="296" y="40" type="curve" smooth="yes"/>
      <point x="296" y="29"/>
      <point x="297" y="13"/>
      <point x="300" y="0" type="curve"/>
      <point x="380" y="0" type="line"/>
      <point x="383" y="13"/>
      <point x="384" y="29"/>
      <point x="384" y="40" type="curve" smooth="yes"/>
      <point x="384" y="51"/>
      <point x="383" y="68"/>
      <point x="380" y="80" type="curve"/>
      <point x="300" y="80" type="line"/>
    </contour>
    <contour>
      <point x="297" y="228"/>
      <point x="296" y="211"/>
      <point x="296" y="200" type="curve" smooth="yes"/>
      <point x="296" y="189"/>
      <point x="297" y="173"/>
      <point x="300" y="160" type="curve"/>
      <point x="360" y="160" type="line"/>
      <point x="363" y="173"/>
      <point x="364" y="189"/>
      <point x="364" y="200" type="curve" smooth="yes"/>
      <point x="364" y="211"/>
      <point x="363" y="228"/>
      <point x="360" y="240" type="curve"/>
      <point x="300" y="240" type="line"/>
    </contour>
    <contour>
      <point x="257" y="308"/>
      <point x="256" y="291"/>
      <point x="256" y="280" type="curve" smooth="yes"/>
      <point x="256" y="269"/>
      <point x="257" y="253"/>
      <point x="260" y="240" type="curve"/>
      <point x="360" y="240" type="line"/>
      <point x="363" y="253"/>
      <point x="364" y="269"/>
      <point x="364" y="280" type="curve" smooth="yes"/>
      <point x="364" y="291"/>
      <point x="363" y="308"/>
      <point x="360" y="320" type="curve"/>
      <point x="260" y="320" type="line"/>
    </contour>
    <contour>
      <point x="237" y="228"/>
      <point x="236" y="211"/>
      <point x="236" y="200" type="curve" smooth="yes"/>
      <point x="236" y="189"/>
      <point x="237" y="173"/>
      <point x="240" y="160" type="curve"/>
      <point x="280" y="160" type="line"/>
      <point x="283" y="173"/>
      <point x="284" y="189"/>
      <point x="284" y="200" type="curve" smooth="yes"/>
      <point x="284" y="211"/>
      <point x="283" y="228"/>
      <point x="280" y="240" type="curve"/>
      <point x="240" y="240" type="line"/>
    </contour>
    <contour>
      <point x="217" y="148"/>
      <point x="216" y="131"/>
      <point x="216" y="120" type="curve" smooth="yes"/>
      <point x="216" y="109"/>
      <point x="217" y="93"/>
      <point x="220" y="80" type="curve"/>
      <point x="260" y="80" type="line"/>
      <point x="263" y="93"/>
      <point x="264" y="109"/>
      <point x="264" y="120" type="curve" smooth="yes"/>
      <point x="264" y="131"/>
      <point x="263" y="148"/>
      <point x="260" y="160" type="curve"/>
      <point x="220" y="160" type="line"/>
    </contour>
    <contour>
      <point x="297" y="-12"/>
      <point x="296" y="-29"/>
      <point x="296" y="-40" type="curve" smooth="yes"/>
      <point x="296" y="-51"/>
      <point x="297" y="-67"/>
      <point x="300" y="-80" type="curve"/>
      <point x="360" y="-80" type="line"/>
      <point x="363" y="-67"/>
      <point x="364" y="-51"/>
      <point x="364" y="-40" type="curve" smooth="yes"/>
      <point x="364" y="-29"/>
      <point x="363" y="-12"/>
      <point x="360" y="0" type="curve"/>
      <point x="300" y="0" type="line"/>
    </contour>
    <contour>
      <point x="197" y="68"/>
      <point x="196" y="51"/>
      <point x="196" y="40" type="curve" smooth="yes"/>
      <point x="196" y="29"/>
      <point x="197" y="13"/>
      <point x="200" y="0" type="curve"/>
      <point x="300" y="0" type="line"/>
      <point x="303" y="13"/>
      <point x="304" y="29"/>
      <point x="304" y="40" type="curve" smooth="yes"/>
      <point x="304" y="51"/>
      <point x="303" y="68"/>
      <point x="300" y="80" type="curve"/>
      <point x="200" y="80" type="line"/>
    </contour>
    <contour>
      <point x="137" y="548"/>
      <point x="136" y="531"/>
      <point x="136" y="520" type="curve" smooth="yes"/>
      <point x="136" y="509"/>
      <point x="137" y="493"/>
      <point x="140" y="480" type="curve"/>
      <point x="200" y="480" type="line"/>
      <point x="203" y="493"/>
      <point x="204" y="509"/>
      <point x="204" y="520" type="curve" smooth="yes"/>
      <point x="204" y="531"/>
      <point x="203" y="548"/>
      <point x="200" y="560" type="curve"/>
      <point x="140" y="560" type="line"/>
    </contour>
    <contour>
      <point x="37" y="628"/>
      <point x="36" y="611"/>
      <point x="36" y="600" type="curve" smooth="yes"/>
      <point x="36" y="589"/>
      <point x="37" y="573"/>
      <point x="40" y="560" type="curve"/>
      <point x="170" y="560" type="line"/>
      <point x="173" y="573"/>
      <point x="174" y="589"/>
      <point x="174" y="600" type="curve" smooth="yes"/>
      <point x="174" y="611"/>
      <point x="173" y="628"/>
      <point x="170" y="640" type="curve"/>
      <point x="40" y="640" type="line"/>
    </contour>
    <contour>
      <point x="67" y="468"/>
      <point x="66" y="451"/>
      <point x="66" y="440" type="curve" smooth="yes"/>
      <point x="66" y="429"/>
      <point x="67" y="413"/>
      <point x="70" y="400" type="curve"/>
      <point x="170" y="400" type="line"/>
      <point x="173" y="413"/>
      <point x="174" y="429"/>
      <point x="174" y="440" type="curve" smooth="yes"/>
      <point x="174" y="451"/>
      <point x="173" y="468"/>
      <point x="170" y="480" type="curve"/>
      <point x="70" y="480" type="line"/>
    </contour>
    <contour>
      <point x="137" y="388"/>
      <point x="136" y="371"/>
      <point x="136" y="360" type="curve" smooth="yes"/>
      <point x="136" y="349"/>
      <point x="137" y="333"/>
      <point x="140" y="320" type="curve"/>
      <point x="245" y="320" type="line"/>
      <point x="248" y="333"/>
      <point x="249" y="349"/>
      <point x="249" y="360" type="curve" smooth="yes"/>
      <point x="249" y="371"/>
      <point x="248" y="388"/>
      <point x="245" y="400" type="curve"/>
      <point x="140" y="400" type="line"/>
    </contour>
    <contour>
      <point x="37" y="308"/>
      <point x="36" y="291"/>
      <point x="36" y="280" type="curve" smooth="yes"/>
      <point x="36" y="269"/>
      <point x="37" y="253"/>
      <point x="40" y="240" type="curve"/>
      <point x="155" y="240" type="line"/>
      <point x="158" y="253"/>
      <point x="159" y="269"/>
      <point x="159" y="280" type="curve" smooth="yes"/>
      <point x="159" y="291"/>
      <point x="158" y="308"/>
      <point x="155" y="320" type="curve"/>
      <point x="40" y="320" type="line"/>
    </contour>
  </outline>
</glyph>
<glyph name="questiondown" format="1">
  <advance width="400"/>
  <unicode hex="00BF"/>
  <outline>
    <contour>
      <point x="37" y="68"/>
      <point x="36" y="51"/>
      <point x="36" y="40" type="curve" smooth="yes"/>
      <point x="36" y="29"/>
      <point x="37" y="13"/>
      <point x="40" y="0" type="curve"/>
      <point x="120" y="0" type="line"/>
      <point x="123" y="13"/>
      <point x="124" y="29"/>
      <point x="124" y="40" type="curve" smooth="yes"/>
      <point x="124" y="51"/>
      <point x="123" y="68"/>
      <point x="120" y="80" type="curve"/>
      <point x="40" y="80" type="line"/>
    </contour>
    <contour>
      <point x="77" y="-12"/>
      <point x="76" y="-29"/>
      <point x="76" y="-40" type="curve" smooth="yes"/>
      <point x="76" y="-51"/>
      <point x="77" y="-67"/>
      <point x="80" y="-80" type="curve"/>
      <point x="200" y="-80" type="line"/>
      <point x="203" y="-67"/>
      <point x="204" y="-51"/>
      <point x="204" y="-40" type="curve" smooth="yes"/>
      <point x="204" y="-29"/>
      <point x="203" y="-12"/>
      <point x="200" y="0" type="curve"/>
      <point x="80" y="0" type="line"/>
    </contour>
    <contour>
      <point x="197" y="-12"/>
      <point x="196" y="-29"/>
      <point x="196" y="-40" type="curve" smooth="yes"/>
      <point x="196" y="-51"/>
      <point x="197" y="-67"/>
      <point x="200" y="-80" type="curve"/>
      <point x="280" y="-80" type="line"/>
      <point x="283" y="-67"/>
      <point x="284" y="-51"/>
      <point x="284" y="-40" type="curve" smooth="yes"/>
      <point x="284" y="-29"/>
      <point x="283" y="-12"/>
      <point x="280" y="0" type="curve"/>
      <point x="200" y="0" type="line"/>
    </contour>
    <contour>
      <point x="37" y="148"/>
      <point x="36" y="131"/>
      <point x="36" y="120" type="curve" smooth="yes"/>
      <point x="36" y="109"/>
      <point x="37" y="93"/>
      <point x="40" y="80" type="curve"/>
      <point x="120" y="80" type="line"/>
      <point x="123" y="93"/>
      <point x="124" y="109"/>
      <point x="124" y="120" type="curve" smooth="yes"/>
      <point x="124" y="131"/>
      <point x="123" y="148"/>
      <point x="120" y="160" type="curve"/>
      <point x="40" y="160" type="line"/>
    </contour>
    <contour>
      <point x="87" y="228"/>
      <point x="86" y="211"/>
      <point x="86" y="200" type="curve" smooth="yes"/>
      <point x="86" y="189"/>
      <point x="87" y="173"/>
      <point x="90" y="160" type="curve"/>
      <point x="170" y="160" type="line"/>
      <point x="173" y="173"/>
      <point x="174" y="189"/>
      <point x="174" y="200" type="curve" smooth="yes"/>
      <point x="174" y="211"/>
      <point x="173" y="228"/>
      <point x="170" y="240" type="curve"/>
      <point x="90" y="240" type="line"/>
    </contour>
    <contour>
      <point x="137" y="308"/>
      <point x="136" y="291"/>
      <point x="136" y="280" type="curve" smooth="yes"/>
      <point x="136" y="269"/>
      <point x="137" y="253"/>
      <point x="140" y="240" type="curve"/>
      <point x="220" y="240" type="line"/>
      <point x="223" y="253"/>
      <point x="224" y="269"/>
      <point x="224" y="280" type="curve" smooth="yes"/>
      <point x="224" y="291"/>
      <point x="223" y="308"/>
      <point x="220" y="320" type="curve"/>
      <point x="140" y="320" type="line"/>
    </contour>
    <contour>
      <point x="257" y="68"/>
      <point x="256" y="51"/>
      <point x="256" y="40" type="curve" smooth="yes"/>
      <point x="256" y="29"/>
      <point x="257" y="13"/>
      <point x="260" y="0" type="curve"/>
      <point x="340" y="0" type="line"/>
      <point x="343" y="13"/>
      <point x="344" y="29"/>
      <point x="344" y="40" type="curve" smooth="yes"/>
      <point x="344" y="51"/>
      <point x="343" y="68"/>
      <point x="340" y="80" type="curve"/>
      <point x="260" y="80" type="line"/>
    </contour>
    <contour>
      <point x="137" y="468"/>
      <point x="136" y="451"/>
      <point x="136" y="440" type="curve" smooth="yes"/>
      <point x="136" y="429"/>
      <point x="137" y="413"/>
      <point x="140" y="400" type="curve"/>
      <point x="220" y="400" type="line"/>
      <point x="223" y="413"/>
      <point x="224" y="429"/>
      <point x="224" y="440" type="curve" smooth="yes"/>
      <point x="224" y="451"/>
      <point x="223" y="468"/>
      <point x="220" y="480" type="curve"/>
      <point x="140" y="480" type="line"/>
    </contour>
  </outline>
</glyph>
